<?xml version="1.0" encoding="utf-8"?>
<!-- Generator: Adobe Illustrator 22.1.0, SVG Export Plug-In . SVG Version: 6.00 Build 0)  -->
<svg version="1.1" id="Layer_1" xmlns="http://www.w3.org/2000/svg" xmlns:xlink="http://www.w3.org/1999/xlink" x="0px" y="0px"
	 viewBox="0 0 141.7 141.7" style="enable-background:new 0 0 141.7 141.7;" xml:space="preserve">
<style type="text/css">
	.st0{fill:#BF9E42;}
</style>
<g>
	<path class="st0" d="M31.9,68.9c0.1,0,0.1,0,0.2,0c0,0,0,0,0,0c0.1,0,0.2,0,0.4,0c3.4-0.2,5.1-2.1,4.9-5.4c0-0.5,0-1.1,0.1-1.6
		c0.3-2,1.5-3.3,3.1-4.3c0.9-0.6,1.9-1,2.9-1.5c0.8-0.4,1.6-0.9,2.2-1.6c0.7-0.7,1.1-1.5,0.9-2.5c-0.3-1.5,0.1-2.9,0.8-4.2
		c1-1.9,1.9-3.8,2.7-5.8c1.1-2.8,2.3-5.7,3.4-8.5c0.1-0.3,0.3-0.7,0.4-1c0.3-1.2-0.5-2.1-1.7-1.9c-0.8,0.1-1.5,0.5-2.1,1
		c-1.3,1.2-2,2.6-2.2,4.3c-0.1,0.8,0,1.6,0.1,2.4c0.2,1.3,0.2,1.3-0.9,1.8c-0.8,0.3-1.4,0.8-1.8,1.5c-1,1.4-2.2,2.6-3.6,3.6
		c-0.9,0.7-1.8,1.5-2.4,2.5c-0.7,1.2-1.6,2.2-3.1,2.2c-0.1,0-0.2,0.1-0.3,0.1c-1.8,0.7-2.7,2.4-2,4.3c0.2,0.5,0.4,0.9,0.6,1.3
		c0.4,0.7,0.4,1.4,0,2.1c-0.3,0.6-0.7,1.3-1,2c-1.1,2.1-1.8,4.3-2.3,6.6c-0.1,0.6-0.2,1.2-0.3,1.8C30.8,68.6,31.1,68.9,31.9,68.9z
		 M31.8,66.8c0.1-0.3,0.1-0.7,0.2-1.1c0.5-2.3,1.4-4.6,2.5-6.7c0.2-0.4,0.4-0.8,0.6-1.1c0.5-0.9,0.6-1.7,0-2.6
		c-0.2-0.4-0.4-0.8-0.6-1.2c-0.6-1.7,0-3.1,1.7-3.7c0.2-0.1,0.4-0.1,0.5-0.2c1.3-0.1,2.1-0.7,2.7-1.9c0.6-1.1,1.5-1.9,2.5-2.7
		c1.5-1.2,2.9-2.4,4-4c0.4-0.6,1-1,1.8-1.1c0.2,0,0.5-0.1,0.7-0.2c0.5-0.2,0.8-0.6,0.7-1.2c-0.1-0.3-0.2-0.6-0.3-0.9
		c-0.6-2-0.2-3.9,0.9-5.6c0.5-0.7,1.1-1.2,1.8-1.5c0.4-0.2,0.8-0.3,1.2,0.1c0.3,0.3,0.3,0.7,0.2,1c-0.1,0.4-0.2,0.7-0.3,1
		c-1.3,3.2-2.6,6.5-3.9,9.7c-0.5,1.3-1.2,2.6-1.8,3.8c-0.8,1.6-1.5,3.2-1.1,5.1c0.2,0.7-0.2,1.3-0.6,1.8c-0.5,0.6-1.1,1-1.8,1.3
		c-0.7,0.4-1.4,0.7-2.1,1.1c-0.6,0.3-1.2,0.7-1.7,1c-2.1,1.5-3.1,3.5-3,6.1c0,0.5,0,1,0,1.5c0,1.1-0.6,2-1.6,2.5
		c-0.7,0.4-1.5,0.7-2.3,0.7c-0.6,0.1-0.9-0.2-1-0.8C31.8,67.2,31.8,67.1,31.8,66.8z"/>
	<path class="st0" d="M75,58.1c1.1,0.7,2.3,0.8,3.5,0.1c1.9-1,3.3-2.4,4.3-4.3c0.5-0.9,0.6-1.8,0.7-2.7c0-0.7-0.1-1.3-0.3-1.7
		c-0.3-0.5-0.8-0.7-1.2-0.5c-0.4,0.2-0.8,0.4-1.1,0.6c-2.1,1.3-4.2,2.5-6.2,3.8c-0.4,0.2-0.7,0.4-1.1,0.7c-1.1,0.8-1.1,1.9-0.1,2.8
		C73.8,57.4,74.4,57.7,75,58.1z M73.7,54.9c0.3-0.3,0.7-0.5,1-0.8c2.1-1.3,4.2-2.6,6.4-3.9c0.2-0.1,0.4-0.3,0.6-0.4
		c0.4-0.2,0.9,0,0.9,0.5c0,0.2,0,0.5,0.1,0.7c-0.1,1-0.3,2-0.8,2.8c-0.9,1.5-2.1,2.7-3.6,3.6c-1,0.6-2.1,0.6-3.1-0.1
		c-0.6-0.4-1.1-0.7-1.6-1.2C73.3,55.8,73.3,55.3,73.7,54.9z"/>
	<path class="st0" d="M46.3,76.8c-0.9,1-1.4,2.1-1.3,3.5c0,0.8,0.6,1.2,1.3,1.1c1.3-0.1,1.9-0.9,1.8-2.8c0-0.3-0.1-0.9-0.2-1.4
		C47.7,76.5,46.8,76.2,46.3,76.8z M47.1,80.3c-0.3,0.3-0.6,0.4-1,0.3c-0.3-0.1-0.4-0.5-0.4-0.8c0-0.8,0.3-1.5,0.8-2.2
		c0.2-0.2,0.6-0.2,0.6,0.1c0.1,0.5,0.2,1.1,0.3,1.3C47.5,79.6,47.4,80,47.1,80.3z"/>
	<path class="st0" d="M21.2,96.8c-0.4,0-0.8,0.4-0.8,0.8c0,0.6,0.3,1.2,0.8,1.3c0.4,0,0.9-0.5,0.9-1.2
		C22.2,97.2,21.7,96.8,21.2,96.8z"/>
	<path class="st0" d="M31.1,52.9l0.4,1.5c0,0,0,0,0,0.1l0,0c0,0,0,0,0,0v0c0.1-0.1,0.1-0.2,0.2-0.3c1-1.7,1.7-3.6,2.5-5.5
		c1.5-3.6,2.9-7.2,4.3-10.7c0.2-0.6,0.4-1.2,0.8-1.6c0.7-0.7,0.9-1.6,0.8-2.5c-0.1-0.9,0.2-1.7,0.9-2.3c1.5-1.5,2.3-3.5,3.5-5.2
		c0.3-0.4,0.5-0.8,0.9-1.2c0.4-0.4,0.9-0.5,1.3-0.1c1,1,2.2,1.1,3.6,1.1c2.4-0.1,4.8,0.3,7.1,0.5c3.5,0.3,7.1,0.6,10.6,1
		c3,0.3,6,0.6,9,0.8c3.5,0.3,6.9,0.7,10.4,1c2.9,0.3,5.8,0.6,8.8,0.9c3.1,0.3,6.2,0.6,9.3,0.9c0.2,0,0.5,0,0.7,0.1
		c1.4,0.2,1.9,0.8,1.6,2.3c-0.2,1-0.5,1.9-0.9,2.8c-1.2,3.1-2.4,6.2-3.6,9.2c-1.1,2.9-2.1,5.7-3.1,8.6c-1.4,3.9-2.8,7.9-4.4,11.7
		c-1.9,4.5-3.5,9-4.9,13.6c-0.5,1.7-1.3,3.1-2.8,4.2c-0.9,0.6-1.4,1.5-1.8,2.5c-0.6,1.5-1.2,3-1.8,4.4c-0.3,0.8-0.7,1.5-1.2,2.3
		c-1.1,1.7-2.4,2.9-4.4,3.4c-1.7,0.4-3.2,1.1-4.8,1.8c-0.3,0.1-0.6,0.2-0.8,0.4c-1.4,0.6-2.8,0.6-4.2-0.3c-1.1-0.7-2.3-1-3.6-1.3
		c-2-0.4-4-0.7-6-0.8c-0.9-0.1-1.8-0.2-2.7-0.7c-3.1-1.7-6.6-2.3-10-2.7c-0.8-0.1-1.7-0.2-2.5-0.4c-0.8-0.2-1.1-0.7-1.1-1.5
		c0-0.5,0.1-1,0.3-1.4c0.2-0.3,0.3-0.7,0.4-1c0.2-0.5,0.1-1-0.3-1.3c-0.4-0.4-1-0.5-1.5-0.3c-0.5,0.2-0.8,0.5-1.1,0.9
		c-0.4,0.6-0.7,1.2-1,1.7c-0.8,1.4-2,2-3.7,1.8c-3.7-0.6-7.4-1-11.1-1.6c-0.6-0.1-1.2-0.2-1.8-0.2c-1.2-0.1-2.3-0.4-3.3-1.1
		c-0.5-0.3-1.1-0.6-1.6-0.8c-1.1-0.4-1.4-0.5-0.7-1.9c0.5-0.9,0.9-1.8,1.3-2.6c0.1-0.2,0.3-0.4,0.3-0.7c0.2-1.8,1.4-3.2,2-4.9
		c0.6-1.7,1.4-3.2,2.2-4.9c0.7-1.6,1.5-3.2,2.2-4.8c1-2.1,1.9-4.2,2.9-6.3c0.4-0.8,0.6-1.6,1.3-2.2c0,0,1.6-4.6,1.6-4.6 M28.8,59.3
		c-0.4,0.8-0.8,1.7-1.2,2.5c-1.4,3.1-2.8,6.1-4.2,9.2c-1.5,3-2.5,6.2-4.2,9.1c-0.1,0.1-0.1,0.2-0.1,0.3c-0.1,1.7-1.1,3-1.7,4.4
		c-0.7,1.6-1.5,3.1-2,4.7c-0.1,0.4-0.4,0.7-0.8,1C14,90.8,13.4,91,12.8,91c-0.9,0.1-1.7,0.2-2.5,0.3c-0.9,0.2-1.8,0.4-2.7,0.7
		c-0.4,0.1-0.5,0.5-0.5,0.9c0.1,0.8,0.6,1.3,1.2,1.7c0.5,0.3,0.6,0.7,0.5,1.3c-0.1,0.6-0.2,1.2-0.3,1.8c0,0.2,0,0.4,0.1,0.5
		c0.2,0.2,0.4,0.1,0.7,0c0.4-0.2,0.8-0.5,1.3-0.7c0.3-0.1,0.7-0.2,1.1-0.2c0.5,0,0.8,0.3,1,0.7c0.2,0.4,0.1,0.8-0.2,1.2
		c-0.2,0.2-0.5,0.4-0.7,0.5c-1.2,0.7-2,1.8-3,2.7c-0.4,0.3-0.6,0.7-0.7,1.3c0,0.5,0.3,0.9,0.8,0.8c0.3,0,0.6-0.1,0.9-0.2
		c1.7-0.6,3.4-1.3,5.2-1.9c1.1-0.4,2.2-0.8,3.3-1.1c1.4-0.4,2.7-0.6,4.2-0.3c0.3,0.1,0.7,0,1.1,0c2.6-0.3,5.3-0.3,7.9,0.1
		c2.1,0.3,4.1,0.6,6.2,1c2.7,0.5,5.4,1.2,7.7,2.7c0.6,0.4,1.3,0.6,2.1,0.6c3.2-0.1,6.3,0.4,9.5,1c3.7,0.7,7.4,1.5,11.2,1.8
		c5.4,0.5,10.3,2.4,15.1,4.9c1,0.5,1.6,1.3,1.7,2.4c0.1,1.2,0.3,2.4,0.4,3.6c0.1,1.2,0.4,2.3,0.7,3.4c0.3,0.8,0.7,1.6,1.2,2.3
		c0.6,0.7,1.3,0.8,2.1,0.6c0.7-0.2,0.6-0.8,0.6-1.4c0-0.1,0-0.1,0-0.2c0.1-0.8,0.5-1.2,1.3-1.3c0.6-0.1,1.1,0.2,1.6,0.4
		c0.3,0.1,0.7,0.3,1,0c0.2-0.3,0-0.6-0.1-0.9c-0.3-0.5-0.5-1-0.8-1.4c-0.6-1.1-1.2-2.1-1.8-3.2c-0.1-0.3-0.3-0.6-0.1-0.8
		c0.3-0.3,0.5-0.1,0.8,0.1c0.3,0.2,0.5,0.4,0.8,0.3c0.1,1.2,1.1,1.8,1.9,2.5c0.3,0.3,0.8,0.1,0.9-0.3c0.3-0.6,0.4-1.3,0.3-2
		c-0.1-0.4-0.2-0.7-0.2-1.1c-0.1-0.7,0.3-1.1,0.9-1.1c0.4,0,0.9,0,1.3,0c1.7-0.2,1.9-0.7,1.1-2.1c-0.1-0.2-0.2-0.5-0.4-0.6
		c-1-0.8-1.4-1.8-1.5-3c0-0.3-0.1-0.6-0.3-0.9c-0.5-1.2-1.2-2.3-2.7-2.4c-0.1,0-0.2-0.1-0.4-0.1c-0.7-0.2-1.2-0.7-1.3-1.4
		c-0.3-1.3-0.3-2.6,0.5-3.7c1.2-1.7,1.9-3.6,2-5.6c0-0.5,0.2-1,0.6-1.3c1.1-0.9,1.7-2.1,2-3.4c0.9-3.1,1.9-6.2,3.2-9.2
		c1.4-3.3,2.6-6.6,3.3-10.1c0.3-1.5,0.8-3,1.4-4.4c1.6-3.4,2.9-7,4.1-10.6c1-3.1,2-6.2,3.1-9.2c0.5-1.5,1.2-2.9,1.8-4.4
		c0.3-0.8,1-1.2,1.9-1.2c0.2,0,0.4,0,0.6,0c2,0,4-0.3,6-0.5c3-0.3,6.1-0.9,9.1-0.9c1,0,1.8-0.7,2.5-1.4c0.4-0.4,0.4-0.9,0.3-1.4
		c-0.1-0.7-0.2-1.3-0.5-2c-0.3-0.9-0.7-1.1-1.5-0.8c-0.4,0.1-0.8,0.4-1.2,0.4c-0.4,0-0.7-0.1-0.9-0.4c-0.2-0.3,0-0.6,0.1-0.8
		c0.5-0.7,0.9-1.3,1.2-2.1c0.7-2-0.1-3.6-2.2-4c-0.6-0.1-1.1-0.2-1.4-0.7c-0.5-0.5-1-0.6-1.7-0.4c-0.5,0.1-1.1,0.4-1.6,0.2
		c-0.2,0-0.3-0.1-0.4-0.3c-0.1-0.2,0-0.4,0.2-0.5c0.4-0.2,0.8-0.4,1.1-0.5c0.9-0.3,1.7-0.7,2.6-1c0.4-0.2,0.6-0.5,0.5-0.9
		c-0.2-0.5-0.4-1-0.6-1.5c-0.2-0.3-0.5-0.5-0.9-0.5c-0.3,0-0.6,0.1-0.9,0.1c-0.9,0.1-1,0-1.4-0.8c-0.7-1.5-2-1.8-3.2-0.6
		c-0.4,0.4-0.7,0.8-1,1.3c-0.3,0.4-0.6,0.7-1,0.7c-0.1-0.1-0.2-0.2-0.2-0.2c-0.1-0.4-0.1-0.8-0.4-1.2c-0.3-0.3-0.6-0.4-1-0.2
		c-0.3,0.2-0.5,0.4-0.7,0.6c-1,0.8-2,1.6-2.9,2.5c-2.3,2-4.7,3.7-6.8,5.9c-0.5,0.5-1.1,0.7-1.8,0.6c-1.1-0.1-2.2-0.2-3.3-0.3
		c-3-0.3-6.1-0.6-9.1-0.9c-4.5-0.4-9-0.9-13.5-1.3c-3.2-0.3-6.3-0.6-9.5-0.9c-3.5-0.3-7.1-0.7-10.6-1c-2.4-0.2-4.7-0.5-7.1-0.7
		c-0.7-0.1-1.3-0.3-1.7-1c-0.2-0.4-0.5-0.7-0.7-1.1c-0.2-0.3-0.5-0.6-0.9-0.6c0.1-0.4-0.1-0.7-0.3-1c-0.5-0.6-1-1.1-1.7-1.4
		c-1.4-0.7-2.6-1.6-3.7-2.6c-0.4-0.4-0.9-0.7-1.3-1c-0.4-0.2-0.8-0.4-1.2-0.5c-1.1-0.2-2,0.6-1.9,1.7c0.1,0.8-0.1,1.3-0.6,1.8
		c-0.4,0.4-0.6,0.9-1,1.3c-0.6,0.7-0.8,1.5-0.7,2.4c0,0.4,0.1,0.7,0.1,1.1c0,0.3-0.2,0.6-0.5,0.7c-0.5,0.2-1.1,0.1-1.6,0.1
		c-0.5,0-1.1-0.1-1.6,0c-0.5,0-0.8,0.6-0.5,1.1c0.2,0.4,0.6,0.7,1.1,1c0.8,0.5,1.6,1,2.3,1.5c1.2,0.8,2.1,1.9,2.8,3.1
		c0.7,1.3,0.8,2.6-0.2,3.8c-0.5,0.6-0.7,1.3-1,1.9c-0.7,1.7-1.3,3.4-2,5.1c-1.2,2.9-2.4,5.9-3.7,8.8 M40.1,17.2
		c0.3-0.3,0.6-0.4,1-0.3c1,0.3,1.8,0.9,2.4,1.7c0.1,0.1,0,0.4-0.2,0.5c-0.4,0.3-0.8,0.2-1.2,0.2c-0.9,0-1.7-0.1-2.1-1.1
		C39.9,17.9,39.9,17.6,40.1,17.2z M42.2,28.5c-0.5,1-1.1,1.9-2,2.6c-0.3,0.2-0.6,0.3-0.8,0c-1.4-1.8-3.1-3.2-5.2-4.3
		c-0.1-0.1-0.2-0.2-0.2-0.3c-0.1-0.2,0-0.4,0.2-0.4c0.5,0,1,0,1.4,0c1.2-0.3,2.2,0.1,3.2,0.5c1,0.4,2,0.6,3,1
		C42.3,27.7,42.5,28.1,42.2,28.5z M42.2,26.8c-0.6-0.1-1.2-0.4-1.8-0.5c-1.2-0.2-2.1-0.9-2.4-2.2c0.2,0,0.5,0,0.7,0.1
		c1.4,0.5,2.8,0.8,4.3,0.7c0.2,0,0.5,0,0.7,0.1c0.2,0,0.3,0.2,0.3,0.4C43.9,26.4,43.1,27,42.2,26.8z M48.2,25
		c-1.2-1-2.5-1.3-4.1-0.9c-0.9,0.2-1.9,0.1-2.9,0.1c-1.1-0.1-2.2-0.4-3.1-1.1c-0.4-0.3-0.5-0.7-0.2-1.1c0.2-0.3,0.6-0.6,0.8-1
		c0.5-1.1,1.3-1.3,2.4-0.9c0.7,0.2,1.5,0.1,2.2,0c1.4-0.3,2.5,0.3,3.3,1.5c0.7,1.1,1.5,2.1,1.8,3.4C48.4,24.8,48.3,24.9,48.2,25z
		 M50.1,25c-0.1,0-0.4,0-0.5-0.1c-0.5-0.5-0.7-1.1-1-1.7c-0.1-0.2-0.3-0.5-0.1-0.7c0.3-0.2,0.5,0.1,0.8,0.1c0,0.8,0.7,1.2,0.9,1.9
		C50.3,24.8,50.3,25,50.1,25z M125.1,22.4c0.1,0.1,0.2,0.3,0.2,0.5c-0.1,0.4-0.5,0.5-0.9,0.5c-0.1-0.1-0.3-0.1-0.3-0.3
		c0-0.1,0-0.2,0.1-0.3C124.3,22.3,124.7,22.2,125.1,22.4z M121.1,22.6c0.3-0.7,0.7-1.3,1.3-1.8c0.3-0.2,0.6-0.4,1-0.3
		c0.3,0,0.5,0.2,0.6,0.6c0,0.1,0,0.3-0.1,0.5c-0.3,0.6-0.7,1.1-1.1,1.7c-0.2,0.3-0.6,0.4-0.9,0.4C121,23.8,120.7,23.3,121.1,22.6z
		 M120.5,25.6c0.2-0.6,0.5-1,1.1-1.1c0.7-0.1,1.3-0.3,2-0.3c0.9-0.1,1.8-0.3,2.5-1c0.3-0.3,0.8-0.4,1.2-0.4c0.4,0,0.5,0.2,0.6,0.6
		c0.1,0.3,0,0.5-0.2,0.7c-0.1,0.1-0.3,0.2-0.5,0.3c-1.8,0.6-3.6,1.2-5.4,1.8c-0.3,0.1-0.6,0.1-0.7,0.1
		C120.6,26.3,120.4,25.9,120.5,25.6z M121.2,27.1c0.5-0.2,1-0.4,1.6-0.2c0.2,0.1,0.3,0.2,0.3,0.4c-0.1,0.1-0.1,0.2-0.2,0.3
		c-0.2,0.1-0.3,0.2-0.5,0.2c-1.6,0.5-3.3,0.9-4.9,1.4c-0.4,0.1-0.8,0.2-1.2,0c-0.1-0.1-0.2-0.2-0.2-0.3c0-0.2,0-0.4,0.2-0.4
		c0.1,0,0.2-0.1,0.3-0.1C118.3,28.2,119.8,27.8,121.2,27.1z M116.8,26.9c0.2-0.3,0.4-0.6,0.7-0.9c0.1-0.1,0.2-0.1,0.3-0.1
		c0.4,0.1,0.6,0.4,0.7,0.8c0.1,0.3-0.1,0.5-0.3,0.6c-0.3,0.2-0.6,0.3-1,0.3C116.9,27.5,116.7,27.2,116.8,26.9z M16.2,89
		c0.1-0.8,0.9-1.4,1.5-1.2c0.7,0.1,1.3,0.4,1.8,0.8c1.3,0.8,2.7,1.1,4.1,1.3c3.9,0.5,7.9,1.1,11.8,1.6c0.3,0,0.6,0.1,0.9,0.1
		c1.6,0.2,2.9-0.4,3.8-1.7c0.4-0.6,0.7-1.3,1.1-1.9c0.2-0.4,0.5-0.7,0.9-0.9c0.3-0.1,0.8,0.2,0.8,0.5c0,0.3-0.1,0.6-0.2,0.9
		c-0.2,0.6-0.4,1.1-0.5,1.8c-0.1,1.4,0.3,2.1,1.7,2.4c0.8,0.2,1.7,0.3,2.5,0.4c2.5,0.3,5,0.7,7.3,1.6c0.5,0.2,1,0.3,1.4,0.5
		c1.8,1.1,3.9,1.4,6,1.5c1.8,0.1,3.6,0.6,5.4,0.9c0.7,0.1,1.4,0.5,2,0.9c1.4,1,3,1,4.5,0.4c0.8-0.3,1.6-0.6,2.4-1
		c1-0.4,2-0.8,3.1-1.1c2.5-0.6,4.2-2.1,5.5-4.3c0.6-1,1-2.1,1.5-3.1c0.4-0.9,0.7-1.8,1.1-2.7c0.5-1.2,1.2-2.3,2.2-3.1
		c1.2-0.9,1.9-2.1,2.3-3.4c1.8-5.8,3.9-11.5,6.3-17.1c1.1-2.8,2.1-5.6,3.1-8.4c1.3-3.8,2.7-7.6,4.2-11.4c1.1-2.8,2.2-5.7,3.3-8.6
		c0.5-1.2,0.8-2.4,0.1-3.7c-0.2-0.4-0.1-0.8,0.2-1.2c0.3-0.3,0.6-0.6,0.9-0.9c2.6-2.2,5.2-4.4,7.8-6.7c0.3-0.2,0.6-0.4,0.9-0.6
		c0.2-0.1,0.4,0.1,0.4,0.3c-0.1,1.1,0,2.2-1,3c-0.8,0.6-1.3,1.5-1.9,2.2c-0.5,0.6-0.7,1.2-0.3,1.8c0.6,0.9,0.3,1.7-0.1,2.6
		c-0.8,1.5-1.9,2.7-3.7,3c-1.3,0.2-2,1-2.4,2.2c-1,2.9-2.1,5.8-3.1,8.6c-0.8,2.2-1.6,4.5-2.4,6.7c-1.2,3.4-2.5,6.6-3.9,9.9
		c-1,2.4-1.9,4.9-2.8,7.4c-0.8,2.3-1.5,4.7-2.3,7c-0.9,2.6-2,5.1-3.4,7.5c-0.7,1.1-1.1,2.3-1.2,3.6c-0.4,4-1.8,7.7-3.5,11.3
		c-0.5,1.1-1.1,2.2-1.7,3.3c-0.2,0.4-0.5,0.8-0.4,1.4c-1.1,0-2.1-0.3-3.1-0.9c-2-1.3-4.4-1.4-6.7-1.3c-0.1,0-0.3,0-0.4,0
		c-0.1,0-0.2,0.1-0.3,0.2c0,0.1,0,0.2,0.1,0.3c0.2,0.2,0.5,0.4,0.7,0.6c0,0-0.1,0.2-0.1,0.3c-0.4,0.1-0.7,0-1.1-0.1
		c-1.7-0.5-3.4-1.1-5.1-1.6c-1.9-0.6-3.9-1.1-5.9-1.3c-0.7-0.1-1.5-0.2-2.2-0.2c-1.3,0-2.7-0.1-4-0.4c0-0.3-0.2-0.6-0.4-0.7
		c-1-0.7-2.1-1.1-3.2-1.1c-0.9,0-1.8,0-2.7,0.2c-0.4,0.1-0.7,0-1-0.3c-0.7-0.7-1.6-0.9-2.5-1c-4.5-0.8-9-1.6-13.4-3.1
		c-1.2-0.4-2.3-0.7-3.6-0.3c-0.4,0.1-0.8,0-1.3-0.1c-3.6-0.9-7.1-1.7-10.7-2.6c-0.1,0-0.2-0.1-0.4-0.1C16.5,89.7,16.1,89.4,16.2,89z
		 M54.1,99.9c0.6,0.1,1.2,0.3,1.8,0.3c1.4-0.1,2.6,0.3,3.9,0.7c1.4,0.5,2.8,0.8,4.2,1.2c0.5,0.1,1.1,0.3,1.6,0.5
		c0.1,0,0.2,0.2,0.2,0.3c0,0.1-0.2,0.1-0.2,0.2c0,0-0.1,0-0.2,0c-2.9-0.6-5.9-1.2-8.9-1.9c-0.8-0.2-1.7-0.4-2.5-0.6
		c-0.2,0-0.4-0.1-0.3-0.3C53.6,99.9,53.9,99.9,54.1,99.9z M52.6,99.8c-0.5,0.4-1,0.3-1.4-0.3c-0.3-0.4-0.7-0.8-0.5-1.3
		c0.2-0.5,0.8-0.5,1.3-0.5c1,0,1.9,0.3,2.8,0.7c0.5,0.2,0.9,0.6,1.5,0.6c-0.4,0.3-0.9,0.4-1.4,0.3C54.1,99.1,53.4,99.2,52.6,99.8z
		 M64.1,101.3c-0.9-0.2-1.8-0.5-2.7-0.7c-0.1,0-0.2-0.1-0.4-0.3c1.1-0.3,2,0.1,2.9,0.2c1,0.2,1.9,0.4,2.9,0.6
		c0.9,0.2,1.8,0.5,2.6,0.8c0.9,0.3,1.9,0.4,2.7,0.9c-0.3,0.6-0.9,0.6-1.2,0.9c-0.5,0.4-1,0.4-1.5,0c0,0-0.1-0.1-0.1-0.1
		c-0.6-0.8-1.9-0.3-2.5-1.3C66.1,101.6,65,101.6,64.1,101.3z M72.2,104c0.2-0.1,0.5-0.1,0.8-0.1c0.5,0.1,1,0.2,1.6,0.3
		c2.3,0.4,4.5,1.4,6.8,2c0.2,0,0.3,0.2,0.3,0.4c0,0.1-0.2,0.1-0.3,0.1c-0.3,0-0.6,0-0.9-0.1c-2.6-0.6-5.2-1.2-7.8-1.8
		c-0.2,0-0.3-0.1-0.5-0.2c-0.1-0.1-0.2-0.2-0.2-0.3C71.9,104.2,72,104.1,72.2,104z M47.9,97.5c0,0.1-0.1,0.2-0.2,0.3
		c-0.6,0.3-1.2,0.3-1.8,0c-2.5-1-5.1-1-7.8-1c-0.9,0-1.7-0.1-2.5-0.4c-0.5-0.1-1.1-0.3-1.5-0.7c-0.9-0.9-2-1.3-3.3-1.5
		c-0.4,0-0.7-0.2-1-0.3c-0.1,0-0.1-0.2-0.1-0.3c0-0.1,0.1-0.2,0.2-0.3c0.2-0.1,0.5-0.1,0.5-0.1c0.8,0,1.4,0.1,2,0.3
		c4.7,1.6,9.6,2.4,14.5,3.3c0.3,0.1,0.6,0.2,0.9,0.3C47.8,97.2,47.9,97.4,47.9,97.5z M18.3,100.5c-2.1,0.5-4,1.4-6,2.2
		c-0.5,0.2-1,0.3-1.6,0.5c-0.2,0.1-0.5,0-0.7-0.2c-0.2-0.2-0.1-0.5,0.1-0.7c0.8-1.2,1.8-2.1,3.1-2.7c0.2-0.1,0.3-0.2,0.5-0.2
		c1.3-0.7,1.3-0.7,1.2-2.3c-0.1-1.4,0.1-1.9,1.3-2.5c0.6-0.3,1.2-0.6,1.9-0.6c0,0,0.1,0.1,0.1,0.1l0,0c0,1-0.1,2.1-0.1,3.1
		c0,0.6,0,1.2,0.3,1.8c0.2,0.3,0.4,0.6,0.8,0.6C19,99.9,18.8,100.3,18.3,100.5z M23,96.4c-0.1,0.6,0,1.2,0,1.8c0,0.4,0,0.9-0.1,1.3
		c0,0.3-0.3,0.6-0.6,0.5c-1-0.2-2.1,0-3-0.5c-0.7-1.6-0.6-3.3-0.3-5c0.1-0.5,0.5-1.2,0-1.6c-0.6-0.5-1.1,0.2-1.7,0.4
		c-0.5,0.2-1,0.5-1.5,0.7c-1.2,0.6-1.8,1.6-1.6,3c0,0.2,0.1,0.5,0.1,0.7c0,0.2-0.1,0.4-0.2,0.5c-0.3,0.2-0.5,0-0.6-0.2
		c-0.1-0.1-0.2-0.3-0.3-0.4c-0.6-0.9-1.4-1.1-2.4-0.8c-0.3,0.1-0.6,0.2-0.9,0.2c-0.3,0-0.4-0.2-0.4-0.4c0-0.2,0-0.4,0.1-0.5
		c0.2-0.8,0-1.3-0.6-1.8C8.5,93.9,8,93.6,8,93.1c0.1-0.7,0.8-0.7,1.3-0.8c1-0.2,1.9-0.4,2.9-0.5c1-0.1,2.1-0.3,3-0.8
		c0.7-0.4,1.4-0.4,2.1-0.3c0.4,0.1,0.8,0.2,1.2,0.3c2.6,0.6,5.1,1.2,7.7,1.8c0.5,0.1,1,0.3,1.5,0.7c-0.6,0-1.2,0-1.8,0
		C24.1,93.7,23.2,94.5,23,96.4z M24.1,98.4c-0.6-0.3-0.3-1-0.4-1.5c0-0.3,0-0.6,0.1-0.9c0.2-1,0.8-1.6,1.9-1.7
		c1.2-0.1,2.3-0.1,3.4,0.2c0.8,0.2,1.5,0.4,2.3,0.6c-2.3,0.2-4.2,1.5-6,2.7C25,98.1,24.6,98.6,24.1,98.4z M83.5,112.4
		c-0.7,0-1.1-0.4-1.7-0.7c-5.2-2.6-10.7-4.1-16.5-4.5c-2.4-0.2-4.8-0.8-7.2-1.2c-2.5-0.5-4.9-1-7.4-1.2c-1.2-0.1-2.3-0.1-3.5-0.1
		c-0.7,0-1.3-0.1-1.9-0.5c-2.4-1.5-5-2.3-7.7-2.8c-2.2-0.4-4.3-0.8-6.5-1c-1.7-0.2-3.4-0.2-5.1-0.4c-0.4,0-0.8-0.1-1.3-0.1
		c-0.2,0-0.3-0.2-0.2-0.4c0-0.1,0.1-0.2,0.2-0.3c1.2-0.8,2.3-1.6,3.5-2.3c1-0.6,2-0.8,3.1-0.8c0.9,0,1.7,0.1,2.4,0.5
		c1.8,0.8,3.6,1.1,5.5,1c2.1-0.1,4.1,0.1,6.1,0.8c0.9,0.3,1.8,0.3,2.7,0.1c0.9-0.3,1.7,0,2.1,0.9c0.5,1.1,1.5,1.5,2.6,1.7
		c3.8,0.8,7.5,1.6,11.3,2.3c0.7,0.1,1.4,0.3,2.2,0.5c0.5,0.1,0.9,0.3,1.4,0.1c0.4-0.1,0.7,0,1,0.3c0.8,0.7,1.7,0.9,2.7,1
		c1.5,0.3,3,0.7,4.5,1c1.8,0.4,3.6,0.8,5.4,1.1c0.7,0.1,1.1,0.5,1.3,1.1c0.2,0.6,0.5,1.3,0.6,1.9C83.4,111.2,84,111.7,83.5,112.4z
		 M90.9,118.9c0.3,0.5,0.6,1.1,0.9,1.6c0.2,0.4-0.1,0.5-0.5,0.6c-0.1,0-0.2,0-0.4,0.1c-0.2-0.7-0.7-0.8-1.3-0.6
		c-0.5,0.1-0.8,0.6-0.8,1.1c0,0.4,0,0.7,0,1.1c0,0.4-0.1,0.7-0.4,1c-0.4,0.6-0.9,0.6-1.3,0c-0.7-1.1-1-2.4-1.2-3.6
		c-0.2-1.3-0.3-2.5-0.4-3.8c-0.1-1-0.3-1.9-0.6-2.9c-0.6-2-1.3-4.1-1.9-6.1c-0.3-1.1-0.9-1.7-2-1.9c-1.5-0.4-2.9-0.8-4.3-1.4
		c0-0.2-0.1-0.4,0-0.5c0.4-0.4,0-1.1,0.4-1.3c0.6-0.3,1.2,0,1.8,0.2c0.8,0.2,1.5,0.6,2.2,1c0.6,0.4,1.3,0.7,2,0.9
		c0.6,0.1,0.8,0.4,1,1c0,0.2,0.1,0.4,0.1,0.5c0.5,2.3,1.5,4.5,2.8,6.6C88.3,114.4,89.6,116.7,90.9,118.9z M85.8,107
		c0.1,0,0.3,0,0.3,0c1,0.7,1.9,1.5,2.2,2.8c0.2,1.2,0.5,2.4,1,3.5c0.1,0.2,0,0.4-0.2,0.5c-0.1,0-0.3,0-0.3-0.1
		c-1.3-1.9-2.5-3.9-3.2-6.1C85.5,107.4,85.5,107.2,85.8,107z M90,115.7C90,115.7,90,115.7,90,115.7c0.1,0.1,0.2,0.1,0.3,0.2
		C90.2,115.8,90.1,115.7,90,115.7z M94.5,118.5c-0.2,0.1-0.3,0-0.5-0.1c-0.6-0.4-0.9-1.1-1.7-1.4c-0.1-0.7-0.6-1-0.9-1.5
		c-0.8-1.1-1.6-2.2-1.9-3.5c0-0.1,0-0.3,0.1-0.3c0.1-0.2,0.3-0.1,0.5,0c0.7,0.7,1.5,1.5,2.2,2.2c0,0,0,0,0,0
		c0.1,0.1,0.3,0.4,0.5,0.1c0,0-0.2-0.2-0.3-0.3c-0.5-1.3-1.6-2.1-2.5-3c-0.3-0.2-0.9-0.4-0.6-0.9c0.2-0.3,0.7,0,1,0
		c0.4,0.1,0.8,0.2,1.2,0.3c0.5,0.7,1.1,1.4,1.8,1.8c0.1,0.7,0.5,1.2,1.1,1.5c0,0.1,0,0.2,0.1,0.4c0.2,0.9,0.2,0.9-0.8,1
		c-0.1,0-0.1,0.1-0.2,0.2c0.3,0.7,0.9,1.3,1,2.1c0.1,0.4,0.2,0.7,0.2,1.1C94.8,118.2,94.7,118.4,94.5,118.5z M92.6,99.2
		c-0.3-1.2-0.3-1.8,0-2.8c0.2-0.5,0.3-0.9,0.5-1.4c0.3,0.2,0.6,0.4,0.6,0.8C93.8,96.8,93.3,98.2,92.6,99.2z M94.2,92.6
		c-0.2,0.7-0.4,1.3-0.9,1.8c-0.1,0.2-0.2,0.4-0.2,0.7c-0.4,0-0.7,0.3-0.8,0.6c-0.4,0.6-0.6,1.4-0.6,2.1c0,0.5,0,1.1,0,1.7
		c0,0.5,0,1-0.1,1.5c-0.1,0.5-0.2,1.2-0.8,1.3c-0.8,0.1-1.6-0.5-1.8-1.3c-0.1-0.3,0-0.6,0-0.9c0.1-0.4,0.2-0.8,0.4-1.2
		c1.3-3.2,2.5-6.4,3.8-9.5c0.7-1.7,1.3-3.4,1.8-5.2c0.7-2.9,1.7-5.7,2.7-8.6c0.5-1.6,1.3-3.1,2.3-4.4c0.6-0.7,0.9-1.6,0.9-2.5
		c0-1,0.1-1.9,0.4-2.9c1.5-0.1,2.2,0.2,1.5,2.2c-0.6,1.6-1.1,3.2-1.7,4.8c-2.3,5.3-4,10.7-5.6,16.2C94.9,90.1,94.6,91.4,94.2,92.6z
		 M113.4,42.5c-0.1,0.4-0.2,0.8-0.3,1.2c-1.3,3-2.4,6.2-3.4,9.3c-0.8,2.6-1.7,5.1-2.6,7.7c-0.6,1.6-1.2,3.2-1.9,4.8
		c-0.9,1.9-1.6,3.8-2.1,5.9c-0.7,3.1-1.7,6.1-2.9,9.1c-1.4,3.2-2.6,6.5-3.5,9.8c-0.2,0.5-0.3,1.1-0.5,1.6c-0.3,0.7-0.7,1.2-0.9,0.9
		c-0.3-0.4,0-0.8,0.1-1.2c1.7-5.7,3.3-11.5,5.7-17c0.9-2.2,1.7-4.4,2.5-6.7c0.3-1,0.6-2-0.5-2.8c-0.3-0.2-0.1-0.4,0.1-0.6
		c0.2-0.2,0.3-0.4,0.4-0.6c0.4-0.2,0.6-0.5,0.8-0.9c1.4-2.8,2.8-5.5,4.1-8.3c1.1-2.4,2-5,2.4-7.6c0.2-1,0.5-1.9,1-2.7
		C112.1,43.5,112.6,42.8,113.4,42.5C113.3,42.5,113.4,42.5,113.4,42.5L113.4,42.5z M113.4,41.2c-0.1,0.2-0.3,0.4-0.5,0.5
		c-1.6,1.3-2.5,3-2.8,5c-0.6,3.5-1.9,6.8-3.5,10c-0.9,1.8-1.8,3.6-2.7,5.4c-0.3,0.5-0.6,1-0.5,1.7c-0.2,0-0.3-0.1-0.5-0.1
		c-0.3-0.1-0.6-0.3-0.5-0.6c0.1-0.5,0.2-1.1,0.4-1.6c0.8-2,1.6-4,2.4-5.9c1.2-2.7,2.3-5.4,3.1-8.2c0.5-1.7,1.1-3.4,1.7-5
		c0.2-0.6,0.5-1.3,1-1.7c0.6-0.6,1.9-0.5,2.4,0.3C113.4,40.9,113.4,41.1,113.4,41.2z M133.6,38.3c-0.4,0.1-0.4-0.3-0.6-0.6
		c-0.4-0.4-0.8-0.5-1.3-0.6c-1.6-0.4-3.2-0.8-4.8-1.1c-1.8-0.3-3.5-0.1-5.3,0.4c-0.4,0.1-0.7,0-0.8-0.5c0,0,0,0,0,0
		c1.2-1.2,2.2-2.8,3.5-3.9c0,0,0.1-0.1,0.1-0.2c0.1-0.1,0-0.2-0.1-0.3c0,0-0.1-0.1-0.2,0c-0.3,0.1-0.6,0.3-0.8,0.4
		c-1.2,1.1-2.2,2.2-2.9,3.7c-0.4,0.3-0.8,0.6-1,1.1c-0.1,0.2,0.1,0.5,0.3,0.5c0.7,0.1,1.3,0,2-0.2c2-0.7,4.1-0.6,6.1-0.2
		c1.1,0.3,2.3,0.5,3.4,0.8c0.3,0.1,0.6,0.2,0.8,0.4c0.2,0.2,0.2,0.6,0,0.8c-0.3,0.3-0.8,0.4-1.2,0.5c-4.7,0.4-9.4,1.4-14.2,1.3
		c-1.1,0-2.2-0.1-3.1-0.8c-0.2-0.1-0.4-0.2-0.7-0.3c-1.2-0.5-2.1-0.2-2.9,0.9c-0.4,0.6-0.6,1.2-0.9,1.8c-0.6,1.8-1.2,3.6-1.8,5.4
		c-0.8,2.6-1.8,5.2-2.9,7.7c-1.2,2.7-2.4,5.5-3.1,8.4c-0.1,0.6-0.3,1.2-0.2,1.8c-0.5,0-0.7,0.4-0.9,0.8c-0.3,0.7-0.2,1.4-0.2,2.2
		c0,0.8-0.2,1.4-0.7,2c-1.2,1.5-2,3.2-2.6,5c-1,2.9-2,5.8-2.7,8.7c-0.4,1.5-1,3-1.6,4.5c-1.4,3.3-2.7,6.6-4,9.9
		c-0.2,0.4-0.2,0.8-0.3,1.2c-0.1,1.4,0.2,2.1,1.5,2.6c0.9,0.4,1.3,1,1.5,1.9c0.2,1.3,1,2.1,2.3,2.3c1.1,0.2,1.7,0.9,2.1,1.8
		c0.2,0.3,0.3,0.7,0.3,1c0.2,1.3,0.6,2.5,1.7,3.3c0.3,0.3,0.6,0.7,0.3,1.1c-0.2,0.3-0.8,0.5-1.3,0.3c-0.4-0.2-0.8-0.4-1.1-0.6
		c-0.3-0.2-0.6-0.5-1-0.4c0.1-0.8-0.3-1.3-1.1-1.5c-0.3-1.3-0.6-1.6-1.8-1.8c0-0.6-0.5-0.9-1-0.9c-1.6-0.2-2.6-1.1-3.6-2.2
		c-0.6-0.7-1.4-1.2-2-1.8c-0.5-0.4-0.8-0.9-0.7-1.6c0.4-0.1,0.7-0.5,0.9-0.9c2.3-4.1,4.4-8.4,5.1-13.1c0.4-2.5,1.2-4.8,2.4-7
		c1.9-3.5,3.1-7.3,4.3-11.1c1-3.3,2.1-6.5,3.5-9.7c2.1-4.6,3.7-9.4,5.5-14.2c1.2-3.3,2.4-6.7,3.6-10c0.1-0.3,0.2-0.6,0.3-0.9
		c0.3-0.7,0.8-1.3,1.6-1.3c2.1-0.2,3.3-1.5,4.2-3.2c1.2-2.3,0.7-2,3.7-2.8c1.5-0.4,2.9-0.8,4.4-1.2c0.2-0.1,0.5-0.1,0.7-0.2
		c0.5-0.1,1-0.3,1.4,0.1c0.4,0.4,0,0.9-0.1,1.4c-0.1,0.3-0.4,0.6-0.4,1c0,0.1,0.1,0.1,0.1,0.1c0,0,0.1,0,0.2,0
		c0.1-0.1,0.2-0.1,0.3-0.2c0.2-0.4,0.5-0.8,0.7-1.3c0.2-0.4,0.1-1.1,0.6-1.3c0.5-0.3,0.8,0.4,1.2,0.6c0.3,0.2,0.7,0.2,1.1,0.2
		c1.4,0.2,2.1,1.3,1.7,2.6c-0.1,0.5-0.4,0.9-0.6,1.3c-0.2,0.4-0.5,0.7-0.7,1.1c-0.6,1-0.2,1.8,0.9,2.1c0.7,0.2,1.3,0,2-0.3
		c0.3-0.1,0.6,0,0.7,0.3c0.2,0.5,0.3,1.1,0.4,1.6C133.9,37.7,134,38.2,133.6,38.3z"/>
</g>
</svg>
