<?xml version="1.0" encoding="utf-8"?>
<!-- Generator: Adobe Illustrator 28.0.0, SVG Export Plug-In . SVG Version: 6.00 Build 0)  -->
<svg version="1.1" id="Layer_1" xmlns="http://www.w3.org/2000/svg" xmlns:xlink="http://www.w3.org/1999/xlink" x="0px" y="0px"
	 viewBox="0 0 127.7 109.7" style="enable-background:new 0 0 127.7 109.7;" xml:space="preserve">
<style type="text/css">
	.st0{opacity:0.38;}
	.st1{fill:#2D2D2D;}
</style>
<g class="st0">
	<path class="st1" d="M26.8,54.3c-0.6,0-1-0.1-1.3-0.5c-0.1-0.2-0.3-0.5-0.2-0.9l0.3-1.7c0.6-2.6,1.3-4.6,2.3-6.5
		c0.2-0.4,0.4-0.9,0.7-1.3c0.1-0.2,0.2-0.4,0.3-0.6c0.3-0.5,0.3-1,0-1.6c-0.2-0.4-0.4-0.8-0.6-1.3c-0.8-2,0.2-4,2.2-4.8h0.1
		c0.1,0,0.2-0.1,0.4-0.1c1,0,1.8-0.6,2.6-1.9c0.7-1.1,1.7-1.9,2.4-2.6c1.3-0.9,2.5-2.1,3.4-3.4c0.4-0.7,1.1-1.3,2-1.6
		c0.3-0.1,0.6-0.3,0.6-0.3c0-0.1,0-0.5-0.1-0.9c-0.1-0.8-0.2-1.6-0.1-2.5c0.2-1.8,1-3.2,2.3-4.5c0.8-0.6,1.5-1,2.3-1.1
		c0.1,0,0.3,0,0.4,0c0.6,0,1.1,0.2,1.5,0.7s0.5,1.1,0.3,1.8c-0.1,0.2-0.1,0.4-0.2,0.6c-0.1,0.2-0.1,0.3-0.2,0.4
		c-0.5,1.4-1.1,2.7-1.6,4.1c-0.6,1.4-1.1,2.8-1.7,4.1c-0.7,1.8-1.6,3.7-2.6,5.7c-0.7,1.3-1,2.6-0.7,3.7c0.2,1-0.1,2-1,2.9
		c-0.5,0.6-1.2,1.1-2.3,1.6c-0.3,0.1-0.6,0.3-0.8,0.4c-0.7,0.3-1.3,0.6-1.9,1c-1.7,1-2.5,2.3-2.8,3.8c-0.1,0.5-0.1,1-0.1,1.5
		c0.1,1.7-0.3,3.1-1.2,4c-0.9,1-2.3,1.6-4,1.7l0,0L26.8,54.3L26.8,54.3z M27.1,52.1c0.1,0.1,0.1,0.1,0.2,0.1l0,0h0.1
		c0.7,0,1.3-0.2,2.1-0.6c0.8-0.4,1.3-1.1,1.3-2v-1.5c-0.1-2.6,0.9-4.8,3.1-6.3l0.4-0.3c0.4-0.2,0.8-0.5,1.3-0.7
		c0.3-0.2,0.7-0.4,1-0.5c0.3-0.2,0.7-0.3,1-0.5c0.7-0.3,1.2-0.7,1.6-1.1c0.4-0.5,0.6-0.9,0.5-1.3c-0.4-2,0.3-3.7,1.1-5.3l0.4-0.7
		c0.5-1,1-1.9,1.4-2.9c0.3-0.7,0.6-1.5,0.9-2.2c-0.1,0.1-0.3,0.2-0.5,0.3c-0.2,0.1-0.6,0.2-0.9,0.2c-0.5,0.1-1,0.4-1.3,0.8
		c-1.1,1.6-2.6,2.9-4,4c-0.9,0.7-1.7,1.4-2.3,2.5c-0.6,1.3-1.5,1.9-2.9,2.1c-0.1,0.1-0.2,0.1-0.3,0.1c0,0-0.1,0-0.2,0.1
		c-0.7,0.3-1.2,0.6-1.4,1.1c-0.2,0.5-0.2,1.1,0,1.8l0.6,1.1c0.8,1.2,0.4,2.3,0,3c-0.2,0.3-0.4,0.7-0.6,1c-1.1,2.1-1.9,4.3-2.4,6.4
		c0,0.2-0.1,0.3-0.1,0.5s-0.1,0.4-0.1,0.5s0,0.1,0,0.2C27.2,52,27.2,52.1,27.1,52.1z M46.3,17.6c-0.1,0-0.2,0-0.4,0.1
		c-0.6,0.3-1.1,0.7-1.6,1.3c-1,1.6-1.3,3.3-0.8,5l0.3,0.9c0,0.1,0,0.2,0,0.3c0.2-0.5,0.4-0.9,0.6-1.4c0.6-1.6,1.2-3.1,1.9-4.6
		c0.1-0.2,0.2-0.5,0.3-0.9c0-0.1,0.1-0.3-0.1-0.5C46.4,17.6,46.3,17.6,46.3,17.6z"/>
	<path class="st1" d="M26.8,53.8c0.1,0,0.1,0,0.2,0l0,0c0.1,0,0.2,0,0.4,0c3.3-0.2,4.9-2,4.7-5.2c0-0.5,0-1.1,0.1-1.5
		c0.3-1.9,1.5-3.2,3-4.2c0.9-0.6,1.8-1,2.8-1.5c0.8-0.4,1.5-0.9,2.1-1.5c0.7-0.7,1.1-1.5,0.9-2.4c-0.3-1.5,0.1-2.8,0.8-4.1
		c1-1.8,1.8-3.7,2.6-5.6c1.1-2.7,2.2-5.5,3.3-8.2c0.1-0.3,0.3-0.7,0.4-1c0.3-1.2-0.5-2-1.6-1.8c-0.8,0.1-1.5,0.5-2,1
		c-1.3,1.2-1.9,2.5-2.1,4.2c-0.1,0.8,0,1.5,0.1,2.3c0.2,1.3,0.2,1.3-0.9,1.7c-0.8,0.3-1.4,0.8-1.7,1.5c-1,1.4-2.1,2.5-3.5,3.5
		c-0.9,0.7-1.7,1.5-2.3,2.4c-0.7,1.2-1.5,2.1-3,2.1c-0.1,0-0.2,0.1-0.3,0.1c-1.7,0.7-2.6,2.3-1.9,4.2c0.2,0.5,0.4,0.9,0.6,1.3
		c0.4,0.7,0.4,1.4,0,2c-0.3,0.6-0.7,1.3-1,1.9c-1.1,2-1.7,4.2-2.2,6.4c-0.1,0.6-0.2,1.2-0.3,1.7C25.7,53.5,26,53.8,26.8,53.8z
		 M26.7,51.7c0.1-0.3,0.1-0.7,0.2-1.1c0.5-2.2,1.4-4.4,2.4-6.5c0.2-0.4,0.4-0.8,0.6-1.1c0.5-0.9,0.6-1.6,0-2.5
		c-0.2-0.4-0.4-0.8-0.6-1.2c-0.6-1.6,0-3,1.6-3.6c0.2-0.1,0.4-0.1,0.5-0.2c1.3-0.1,2-0.7,2.6-1.8s1.5-1.8,2.4-2.6
		c1.5-1.2,2.8-2.3,3.9-3.9c0.4-0.6,1-1,1.7-1.1c0.2,0,0.5-0.1,0.7-0.2c0.5-0.2,0.8-0.6,0.7-1.2c-0.1-0.3-0.2-0.6-0.3-0.9
		c-0.6-1.9-0.2-3.8,0.9-5.4c0.5-0.7,1.1-1.2,1.7-1.5c0.4-0.2,0.8-0.3,1.2,0.1c0.3,0.3,0.3,0.7,0.2,1c-0.1,0.4-0.2,0.7-0.3,1
		c-1.3,3.1-2.5,6.3-3.8,9.4c-0.5,1.3-1.2,2.5-1.7,3.7c-0.8,1.5-1.5,3.1-1.1,4.9c0.2,0.7-0.2,1.3-0.6,1.7c-0.5,0.6-1.1,1-1.7,1.3
		c-0.7,0.4-1.4,0.7-2,1.1c-0.6,0.3-1.2,0.7-1.6,1c-2,1.5-3,3.4-2.9,5.9c0,0.5,0,1,0,1.5c0,1.1-0.6,1.9-1.5,2.4
		c-0.7,0.4-1.5,0.7-2.2,0.7c-0.6,0.1-0.9-0.2-1-0.8C26.7,52.1,26.7,52,26.7,51.7z"/>
	<path class="st1" d="M70.2,44.4c-0.7,0-1.4-0.2-2-0.6l-0.4-0.2c-0.5-0.3-0.9-0.6-1.2-1c-0.6-0.5-0.9-1.1-0.8-1.8
		c0-0.4,0.2-1.1,1-1.7c0.4-0.3,0.7-0.5,1.1-0.7c1.1-0.8,2.4-1.5,3.6-2.2c0.8-0.5,1.6-0.9,2.3-1.4c0.3-0.2,0.7-0.4,1.1-0.6
		c0.2-0.1,0.3-0.1,0.5-0.1c0.5,0,1,0.3,1.3,0.8c0.3,0.6,0.4,1.4,0.4,1.9c-0.1,1-0.2,1.9-0.7,2.9c-1,1.9-2.4,3.3-4.4,4.4
		C71.5,44.2,70.9,44.4,70.2,44.4L70.2,44.4z M68.5,39.9c-0.2,0.1-0.3,0.3-0.5,0.4c-0.1,0.1-0.3,0.2-0.4,0.3
		c-0.2,0.2-0.2,0.3-0.1,0.5c0.4,0.4,0.8,0.6,1.2,0.9l0.2,0.2c0.4,0.3,0.8,0.4,1.3,0.4c0.4,0,0.8-0.1,1.2-0.4
		c1.4-0.8,2.5-1.9,3.3-3.3c0.5-0.7,0.6-1.7,0.7-2.4c-0.1-0.3-0.1-0.5-0.1-0.7l-0.1-0.1h-0.1c-0.1,0-0.1,0.1-0.2,0.1
		c-0.1,0.1-0.2,0.2-0.4,0.2C72.5,37.4,70.4,38.6,68.5,39.9z"/>
	<path class="st1" d="M68.5,43.3c1.1,0.7,2.2,0.8,3.4,0.1c1.8-1,3.2-2.3,4.2-4.2c0.5-0.9,0.6-1.7,0.7-2.6c0-0.7-0.1-1.3-0.3-1.6
		c-0.3-0.5-0.8-0.7-1.2-0.5c-0.4,0.2-0.8,0.4-1.1,0.6c-2,1.3-4.1,2.4-6,3.7c-0.4,0.2-0.7,0.4-1.1,0.7C66,40.2,66,41.3,67,42.2
		C67.3,42.7,67.9,42.9,68.5,43.3z M67.2,40.2c0.3-0.3,0.7-0.5,1-0.8c2-1.3,4.1-2.5,6.2-3.8c0.2-0.1,0.4-0.3,0.6-0.4
		c0.4-0.2,0.9,0,0.9,0.5c0,0.2,0,0.5,0.1,0.7c-0.1,1-0.3,1.9-0.8,2.7c-0.9,1.5-2,2.6-3.5,3.5c-1,0.6-2,0.6-3-0.1
		c-0.6-0.4-1.1-0.7-1.5-1.2C66.8,41.1,66.8,40.6,67.2,40.2z"/>
	<path class="st1" d="M40.5,66.4c-0.9,0-1.6-0.6-1.6-1.6c-0.1-1.4,0.3-2.6,1.4-3.7c0.3-0.3,0.6-0.5,1-0.5c0.6,0,1.2,0.4,1.4,1.1
		c0.1,0.4,0.2,1.1,0.2,1.5c0,0.7,0.2,3-2.2,3.2C40.7,66.4,40.6,66.4,40.5,66.4L40.5,66.4z M41.1,62.8c-0.3,0.5-0.4,1-0.4,1.5
		c0,0.2,0,0.3,0.1,0.3l0,0c0,0,0,0,0.1,0s0.2,0,0.3-0.2c0.1-0.1,0.2-0.3,0.2-0.8C41.2,63.5,41.1,63.2,41.1,62.8z"/>
	<path class="st1" d="M40.7,61.4c-0.9,1-1.4,2-1.3,3.4c0,0.8,0.6,1.2,1.3,1.1c1.3-0.1,1.8-0.9,1.7-2.7c0-0.3-0.1-0.9-0.2-1.4
		C42.1,61.1,41.2,60.8,40.7,61.4z M41.5,64.8c-0.3,0.3-0.6,0.4-1,0.3c-0.3-0.1-0.4-0.5-0.4-0.8c0-0.8,0.3-1.5,0.8-2.1
		c0.2-0.2,0.6-0.2,0.6,0.1c0.1,0.5,0.2,1.1,0.3,1.3C41.9,64.1,41.8,64.5,41.5,64.8z"/>
	<path class="st1" d="M16.4,83.3L16.4,83.3c-0.9-0.2-1.3-1-1.3-1.8c0-0.7,0.6-1.3,1.3-1.3c0.4,0,0.9,0.2,1.1,0.5s0.3,0.6,0.2,1
		C17.8,82.6,17.1,83.3,16.4,83.3z"/>
	<path class="st1" d="M16.4,80.8c-0.4,0-0.8,0.4-0.8,0.8c0,0.6,0.3,1.2,0.8,1.3c0.4,0,0.9-0.5,0.9-1.2
		C17.4,81.1,16.9,80.8,16.4,80.8z"/>
	<path class="st1" d="M81.7,109c-0.7,0-1.3-0.3-1.8-0.8c-0.5-0.7-0.9-1.5-1.2-2.4c-0.3-1.1-0.6-2.2-0.7-3.4c0-0.6-0.1-1.1-0.2-1.7
		s-0.1-1.2-0.2-1.8c-0.1-0.9-0.5-1.5-1.4-1.9c-5.4-2.8-9.9-4.3-14.4-4.7c-3.1-0.2-6.2-0.8-9.1-1.4L51,90.5c-2.6-0.5-5.4-1-8.3-1
		c-0.3,0-0.5,0-0.8,0l0,0c-0.9,0-1.7-0.2-2.3-0.7c-2.2-1.5-4.9-2.1-7.3-2.5c-1.9-0.4-3.8-0.6-6-1c-1.3-0.2-2.6-0.3-4-0.3
		c-1.1,0-2.3,0.1-3.5,0.2c-0.2,0-0.3,0-0.4,0s-0.3,0-0.4,0c-0.2,0-0.3,0-0.5-0.1C17.1,85,16.7,85,16.3,85c-0.8,0-1.5,0.1-2.5,0.4
		c-1.1,0.3-2.1,0.7-3.2,1.1c-1,0.3-2,0.7-2.9,1.1C7,88,6.3,88.2,5.6,88.5c-0.3,0.1-0.7,0.2-1,0.2H4.5c-0.7,0-1.1-0.5-1.1-1.3
		c0.1-0.8,0.4-1.3,0.9-1.7c0.3-0.3,0.6-0.6,0.9-0.9c0.6-0.6,1.3-1.3,2.1-1.8c0.2-0.1,0.4-0.3,0.6-0.4C8.1,82.3,8,82.1,8,82
		c-0.2-0.4-0.4-0.4-0.5-0.4c-0.3,0-0.7,0.1-0.9,0.2c-0.2,0.1-0.5,0.2-0.7,0.4c-0.2,0.1-0.3,0.2-0.5,0.3c0,0-0.1,0-0.1,0.1
		c-0.2,0.1-0.3,0.1-0.5,0.1l0,0c-0.2,0-0.4-0.1-0.6-0.3C4,82.2,4,81.8,4,81.6l0.3-1.8c0.1-0.5,0-0.6-0.2-0.7c-0.5-0.4-1.3-1-1.4-2
		c0-1.1,0.5-1.3,0.9-1.4C4,75.3,4.9,75.1,5.8,75c0.8-0.1,1.6-0.2,2.5-0.3c0.5,0,1-0.1,1.6-0.4c0.3-0.2,0.5-0.4,0.5-0.6
		c0.4-1.1,0.9-2.2,1.3-3.3c0.2-0.4,0.4-0.9,0.6-1.4c0.2-0.4,0.4-0.8,0.6-1.2c0.5-0.9,1-1.8,1-2.9c0-0.1,0-0.3,0.2-0.6
		c0.9-1.6,1.7-3.3,2.4-5c0.5-1.2,1-2.5,1.6-3.7c0.7-1.5,1.3-3,2-4.4c0.7-1.5,1.4-2.9,2-4.4c0.2-0.4,0.4-0.8,0.6-1.2s0.4-0.8,0.6-1.2
		l2.4-5.1l-0.2-0.7c-0.1-0.3,0.1-0.5,0.4-0.6H26c0.1,0,0.2,0,0.3,0.1l0.7-1.5c1-2.1,1.9-4.4,2.8-6.5l0.8-1.9c0.3-0.8,0.6-1.6,1-2.5
		c0.3-0.8,0.6-1.7,1-2.5c0.1-0.2,0.2-0.4,0.2-0.5c0.2-0.5,0.4-1,0.8-1.4c0.8-0.9,0.8-1.9,0.1-3.1s-1.6-2.2-2.5-2.8
		c-0.7-0.5-1.4-1-2.2-1.4c-0.5-0.3-1-0.7-1.3-1.2c-0.2-0.4-0.2-0.8,0-1.2s0.6-0.6,0.9-0.6c0.1,0,0.3,0,0.5,0s0.4,0,0.6,0
		s0.3,0,0.5,0c0.1,0,0.3,0,0.4,0s0.3,0,0.4,0c0.3,0,0.4,0,0.6-0.1c0.1,0,0.2-0.1,0.2-0.2c0-0.2,0-0.3,0-0.5s-0.1-0.4-0.1-0.6
		c-0.1-1,0.2-1.9,0.8-2.6c0.2-0.2,0.3-0.4,0.4-0.6c0.2-0.2,0.3-0.5,0.5-0.7c0.4-0.4,0.5-0.7,0.4-1.3s0.1-1.2,0.5-1.6
		s0.9-0.6,1.5-0.6c0.1,0,0.3,0,0.4,0c0.5,0.1,0.9,0.3,1.3,0.5c0.2,0.1,0.3,0.2,0.4,0.3c0.3,0.2,0.7,0.5,1,0.8c1.1,1,2.3,1.8,3.4,2.4
		c0.8,0.3,1.3,0.9,1.8,1.5c0.2,0.3,0.4,0.5,0.4,0.9c0.3,0.1,0.5,0.3,0.8,0.7c0.1,0.2,0.2,0.4,0.3,0.5c0.1,0.2,0.3,0.4,0.4,0.6
		c0.3,0.5,0.7,0.6,1.3,0.7c1.1,0.1,2.3,0.2,3.4,0.3c1.1,0.1,2.3,0.2,3.4,0.3c1.7,0.1,3.4,0.3,5.1,0.5c1.7,0.2,3.4,0.3,5.1,0.5
		l9.2,0.9c2.2,0.2,4.4,0.4,6.5,0.6c2.2,0.2,4.3,0.4,6.5,0.6l8.8,0.9l3.1,0.3c0.2,0,0.3,0,0.3,0c0.4,0,0.7-0.1,1.1-0.5
		c1.4-1.4,2.9-2.7,4.3-3.8c0.8-0.6,1.5-1.2,2.3-1.9c0.9-0.9,1.9-1.7,2.8-2.4c0.2-0.2,0.4-0.4,0.7-0.6c0.3-0.1,0.5-0.2,0.7-0.2
		c0.3,0,0.6,0.1,0.9,0.4c0.3,0.4,0.4,0.8,0.5,1.1c0.1-0.1,0.2-0.2,0.3-0.4c0.3-0.5,0.6-0.9,1-1.3c0.6-0.6,1.2-0.9,1.8-0.9
		c0.9,0,1.6,0.6,2.1,1.6c0.3,0.5,0.3,0.5,0.5,0.5l0,0c0.1,0,0.2,0,0.4,0c0.2,0,0.3,0,0.4,0c0.2,0,0.3-0.1,0.5-0.1
		c0.5,0,1,0.3,1.3,0.7v0.1l0.6,1.5c0.2,0.7-0.1,1.2-0.7,1.5c-0.5,0.2-0.9,0.3-1.3,0.5s-0.8,0.3-1.3,0.5c-0.2,0.1-0.5,0.2-0.8,0.3
		h0.1c0.2,0,0.4-0.1,0.6-0.1s0.3-0.1,0.4-0.1c0.2-0.1,0.5-0.1,0.7-0.1c0.5,0,1,0.2,1.4,0.6l0.1,0.1c0.2,0.3,0.4,0.3,1,0.4
		c1.1,0.2,1.9,0.7,2.4,1.5s0.5,1.9,0.1,3c-0.3,0.9-0.7,1.5-1.2,2.2c0,0.1-0.1,0.2-0.1,0.2c0,0.1,0.1,0.2,0.5,0.2
		c0.1,0,0.3-0.1,0.5-0.2s0.4-0.2,0.5-0.2c0.2-0.1,0.5-0.1,0.7-0.1c0.9,0,1.2,0.9,1.4,1.2c0.3,0.7,0.4,1.3,0.5,2
		c0.1,0.5,0.2,1.2-0.4,1.8c-0.8,0.8-1.7,1.5-2.8,1.5c-1.9,0-3.9,0.3-5.9,0.5c-1,0.1-1.9,0.3-2.9,0.4c-0.5,0-1,0.1-1.4,0.2
		c-1.4,0.2-2.9,0.3-4.4,0.3H108c-0.5,0-1.1,0.1-1.4,0.8c-0.2,0.6-0.5,1.1-0.7,1.6c-0.4,0.9-0.8,1.7-1.1,2.6c-1.1,2.9-2,5.9-3,8.8
		c-1.1,3.2-2.3,6.8-4,10.4c-0.6,1.4-1,2.8-1.3,4.1c-0.6,3-1.6,6-3.2,9.9c-1.4,3.1-2.4,6.4-3.1,8.8c-0.3,1.5-1,2.7-2.1,3.5
		c-0.3,0.2-0.4,0.5-0.4,0.9c-0.1,2-0.8,3.9-2,5.7c-0.6,0.8-0.7,1.8-0.4,3.2c0.1,0.6,0.6,0.9,0.9,1c0.2,0,0.3,0.1,0.4,0.1
		c1.7,0.1,2.5,1.5,3,2.6c0.2,0.3,0.3,0.7,0.3,1.1c0.1,1.1,0.5,1.9,1.2,2.5c0.3,0.2,0.4,0.5,0.5,0.7v0.1c0.4,0.6,0.7,1.3,0.4,1.9
		c-0.3,0.6-1.1,0.8-1.8,0.9h-1.3c-0.1,0-0.2,0-0.3,0.1c-0.1,0.1-0.1,0.2-0.1,0.4c0,0.3,0.1,0.5,0.1,0.8l0.1,0.2
		c0.1,0.8,0,1.6-0.3,2.2c-0.1,0.4-0.6,0.7-1,0.7c-0.3,0-0.5-0.1-0.7-0.3c-0.1-0.1-0.2-0.2-0.4-0.3c-0.6-0.5-1.3-1.1-1.5-1.9
		c0,0-0.1,0-0.2-0.1c-0.1,0-0.2-0.1-0.2-0.2c-0.1,0-0.2-0.2-0.2-0.2s0,0,0,0.1c0.3,0.5,0.5,1,0.8,1.5s0.6,1,0.9,1.5
		c0.2,0.2,0.3,0.5,0.5,0.8c0.1,0.2,0.2,0.4,0.3,0.5v0.1l0.1,0.1c0.1,0.3,0.3,0.7,0,1.2c-0.3,0.3-0.5,0.4-0.8,0.4s-0.5-0.1-0.7-0.1
		h-0.1l-0.3-0.1c-0.3-0.1-0.6-0.3-0.8-0.3c0,0-0.1,0-0.2,0c-0.6,0.1-0.8,0.3-0.8,0.8v0.3c0,0.5,0,1.4-0.9,1.6
		C82.2,109,82,109,81.7,109z M70.6,87.5c1.3,0.5,2.6,0.9,3.8,1.2c1.2,0.2,1.9,0.9,2.3,2.2c0.3,1,0.6,1.9,0.9,2.9s0.6,2,0.9,3
		c0.3,1.1,0.5,2,0.6,2.9c0.1,1.3,0.2,2.4,0.4,3.6c0.2,1.1,0.4,2.3,1.1,3.3c0.1,0.2,0.2,0.2,0.2,0.2s0.1,0,0.2-0.2
		c0.2-0.3,0.3-0.4,0.3-0.7v-1.1c0-0.8,0.5-1.4,1.2-1.6c0.2-0.1,0.4-0.1,0.6-0.1c0.5,0,0.8,0.2,1.1,0.6h0.1c-0.1-0.2-0.2-0.4-0.3-0.6
		c-0.1-0.3-0.3-0.5-0.4-0.8l-0.7-1.3c-1-1.7-2-3.4-3-4.9c-1.4-2.3-2.3-4.4-2.8-6.6v-0.1c0-0.1-0.1-0.2-0.1-0.4
		c-0.2-0.5-0.3-0.5-0.6-0.6c-0.8-0.2-1.5-0.6-2.1-0.9c-0.6-0.4-1.3-0.7-2-0.9L72,86.5c-0.3-0.1-0.6-0.2-0.8-0.2c-0.1,0-0.2,0-0.2,0
		v0.1C70.8,86.9,70.8,87.2,70.6,87.5z M86.1,100.2c0.2,0.2,0.4,0.3,0.5,0.5c0.2,0.2,0.3,0.3,0.5,0.5c0-0.2-0.1-0.3-0.1-0.5l-0.1-0.2
		c-0.1-0.4-0.3-0.8-0.5-1.2c-0.2-0.3-0.3-0.5-0.4-0.8c-0.1-0.2,0-0.4,0.1-0.6s0.3-0.3,0.5-0.3c0.1,0,0.2,0,0.4,0
		c0-0.1,0-0.2-0.1-0.3c0-0.1-0.1-0.2-0.1-0.2c-0.5-0.3-0.9-0.8-1-1.5c-0.5-0.3-1-0.9-1.6-1.6l-0.9-0.2c0.2,0.2,0.4,0.4,0.6,0.6
		c0.7,0.7,1.5,1.4,1.9,2.4L86,97c0.2,0.2,0.2,0.4,0.1,0.6C85.9,98,85.6,98,85.5,98c-0.3,0-0.5-0.2-0.6-0.3L83.2,96
		c0.3,0.9,0.9,1.7,1.6,2.6c0.1,0.2,0.2,0.3,0.3,0.4c0.2,0.2,0.4,0.5,0.5,0.8c0.1,0,0.2,0,0.3,0.1C86,100,86.1,100.1,86.1,100.2z
		 M87.6,96.1c0.2,0.1,0.4,0.2,0.6,0.3l0.1,0.1c0.3,0.2,0.6,0.4,1,0.5c0,0,0.1,0,0.2,0c0.2,0,0.4-0.1,0.4-0.1
		c0.1-0.1-0.1-0.3-0.2-0.4c-1.2-0.9-1.6-2.3-1.8-3.5c0-0.3-0.1-0.6-0.2-0.8c-0.4-0.9-0.9-1.4-1.7-1.5c-1.5-0.2-2.4-1.2-2.6-2.6
		c-0.2-0.7-0.5-1.2-1.2-1.5c-1.6-0.6-1.8-1.6-1.7-3c0-0.2,0.1-0.3,0.1-0.4c0-0.3,0.1-0.6,0.3-0.9v-0.1c1.2-3.1,2.5-6.3,3.8-9.5
		c0.6-1.4,1.1-2.9,1.5-4.3c0.7-2.8,1.7-5.7,2.6-8.4c0.7-2,1.5-3.6,2.6-5c0.4-0.5,0.6-1,0.6-1.6c0-0.2,0-0.3,0-0.4
		c0-0.6,0-1.2,0.2-1.9c0.2-0.3,0.4-0.8,0.8-1c0-0.4,0.1-0.7,0.1-1c0-0.1,0.1-0.3,0.1-0.4c0.7-2.9,1.8-5.5,3-8.2
		c1.1-2.6,2.1-5,2.8-7.4l1.7-5.2c0.1-0.3,0.2-0.4,0.3-0.6c0.2-0.4,0.4-0.8,0.6-1.2c0.7-0.9,1.4-1.3,2.2-1.3c0.4,0,0.8,0.1,1.2,0.3
		c0.3,0.1,0.5,0.2,0.7,0.3c0.8,0.6,1.7,0.7,2.8,0.7c0.2,0,0.4,0,0.7,0c2.8,0,5.5-0.4,8.2-0.7c1.6-0.2,3.2-0.4,4.8-0.6l0,0
		c0.3-0.1,0.7-0.2,0.8-0.3c-0.1-0.2-0.3-0.3-0.6-0.3c-0.5-0.1-1-0.3-1.6-0.4s-1.1-0.2-1.7-0.4c-1-0.2-1.8-0.3-2.7-0.3
		c-1.1,0-2,0.2-2.9,0.5c-0.6,0.2-1.1,0.3-1.6,0.3c-0.2,0-0.4,0-0.6,0l0,0c-0.2,0-0.4-0.2-0.6-0.4c-0.2-0.3-0.2-0.6-0.1-0.8
		c0.2-0.5,0.6-0.9,1-1.2c0.8-1.6,1.8-2.7,2.9-3.6l0.1-0.1c0.1,0,0.1-0.1,0.2-0.1c0.2-0.1,0.4-0.2,0.6-0.3c0.1-0.1,0.2-0.1,0.3-0.1
		c0.2,0,0.4,0.1,0.5,0.2s0.2,0.2,0.2,0.3c0.1,0.2,0.1,0.4,0,0.6s-0.2,0.3-0.2,0.3c-0.7,0.6-1.3,1.4-1.9,2.1
		c-0.4,0.4-0.7,0.9-1.1,1.3c1.3-0.4,2.4-0.5,3.5-0.5c0.6,0,1.2,0,1.7,0.1c1.6,0.3,3.1,0.7,4.7,1.1c0.5,0.1,1,0.2,1.5,0.7v-0.2v-0.2
		c-0.1-0.4-0.2-0.9-0.3-1.2c-0.5,0.2-1,0.4-1.6,0.4c-0.2,0-0.5,0-0.7-0.1c-0.9-0.2-1.2-0.7-1.4-1.1c-0.1-0.4-0.2-0.9,0.2-1.7
		c0.1-0.2,0.2-0.4,0.4-0.6c0.1-0.1,0.2-0.3,0.3-0.5c0.1-0.1,0.1-0.2,0.2-0.4c0.1-0.3,0.3-0.5,0.3-0.8c0.2-0.5,0.1-0.9-0.1-1.3
		c-0.2-0.3-0.6-0.6-1.1-0.6h-0.1c-0.3,0-0.8,0-1.1-0.3c-0.1-0.1-0.3-0.2-0.4-0.4c-0.1-0.1-0.2-0.2-0.2-0.2c-0.1,0.1-0.1,0.3-0.2,0.5
		c0,0.2-0.1,0.4-0.2,0.6c-0.1,0.3-0.3,0.6-0.4,0.8c-0.1,0.1-0.2,0.3-0.2,0.4l-0.1,0.1c-0.1,0.1-0.2,0.2-0.3,0.2
		c-0.1,0.1-0.2,0.1-0.4,0.1H117c-0.3,0-0.6-0.3-0.6-0.6c0-0.4,0.2-0.7,0.3-0.9c0-0.1,0.1-0.2,0.1-0.2c0-0.1,0.1-0.3,0.1-0.4
		c0.1-0.3,0.1-0.4,0.1-0.4c-0.1-0.1-0.1-0.1-0.2-0.1s-0.3,0-0.5,0.1h-0.2c-0.1,0.1-0.3,0.1-0.4,0.1s-0.2,0-0.2,0.1h-0.1
		c-0.7,0.2-1.4,0.4-2.1,0.6c-0.7,0.2-1.4,0.4-2.1,0.6l-0.6,0.2c-1.7,0.4-1.7,0.4-2.3,1.6c-0.1,0.2-0.2,0.4-0.4,0.7
		c-0.7,1.3-1.9,3.1-4.5,3.4c-0.5,0-0.9,0.3-1.1,1l-0.3,0.8c-0.6,1.6-1.1,3.2-1.7,4.8c-0.6,1.6-1.2,3.3-1.8,4.9
		c-0.5,1.2-0.9,2.4-1.3,3.6c-1.2,3.4-2.5,6.9-4,10.2c-1.2,2.7-2.3,5.7-3.4,9.3c-1.2,3.7-2.3,7.4-4.2,10.8c-1.2,2.1-1.9,4.3-2.3,6.6
		c-0.7,4.7-2.8,9-5,12.8c-0.2,0.4-0.5,0.7-0.8,0.9l0,0c0,0.3,0.2,0.5,0.5,0.8s0.5,0.5,0.8,0.7c0.4,0.3,0.8,0.7,1.2,1.1
		c1,1.1,1.9,1.8,3.2,2l0,0c0.6,0,1.1,0.3,1.3,0.9c1,0.2,1.4,0.7,1.7,1.8C87.1,94.9,87.5,95.4,87.6,96.1z M79.3,91.3
		c0.5,1.5,1.3,2.9,2,4.1c-0.2-0.6-0.3-1.2-0.4-2C80.6,92.5,80.1,91.9,79.3,91.3z M20.6,83.3c0.2,0,0.3,0,0.5,0
		c0.9,0.1,1.7,0.1,2.5,0.2c0.8,0,1.7,0.1,2.5,0.2c2,0.2,3.8,0.5,5.8,0.9l0.5,0.1c3.1,0.6,5.5,1.5,7.6,2.8c0.4,0.3,0.9,0.4,1.6,0.4
		c1.2,0,2.2,0,3.4,0.1c2.3,0.2,4.5,0.6,6.8,1.1l0.4,0.1c0.8,0.1,1.5,0.3,2.3,0.4c1.5,0.3,3.1,0.6,4.6,0.7c5.6,0.4,11.1,1.9,16.1,4.4
		c0.2,0.1,0.3,0.2,0.5,0.3c0.2,0.1,0.4,0.3,0.6,0.3c0-0.1-0.1-0.3-0.2-0.6c-0.1-0.2-0.2-0.4-0.3-0.6c-0.1-0.5-0.2-0.9-0.4-1.3
		c-0.1-0.2-0.1-0.4-0.2-0.5c-0.1-0.4-0.4-0.7-0.9-0.7c-1.8-0.3-3.5-0.7-5.3-1.1c-0.7-0.1-1.5-0.3-2.2-0.5s-1.4-0.3-2.2-0.5
		c-0.9-0.1-1.9-0.3-2.8-1.1c-0.2-0.2-0.3-0.2-0.4-0.2c0,0-0.1,0-0.2,0c-0.1,0.1-0.3,0.1-0.5,0.1c-0.3,0-0.5-0.1-0.7-0.1
		c-0.1,0-0.2,0-0.3-0.1L59.3,88c-0.6-0.1-1.1-0.3-1.6-0.4c-3.2-0.6-6.2-1.2-9.3-1.9l-1.6-0.3c-0.9-0.2-2.2-0.6-2.9-1.9
		c-0.2-0.5-0.5-0.7-0.9-0.7c-0.1,0-0.3,0-0.5,0.1C42,83,41.6,83,41.2,83c-0.5,0-1.1-0.1-1.6-0.3c-1.5-0.5-3-0.8-4.8-0.8
		c-0.3,0-0.6,0-0.9,0c-0.2,0-0.5,0-0.7,0c-1.7,0-3.3-0.3-4.8-1c-0.6-0.3-1.2-0.4-2.1-0.4c-1.1,0-1.9,0.2-2.7,0.7
		c-0.8,0.5-1.6,1-2.4,1.5c-0.2,0.2-0.5,0.3-0.7,0.5C20.5,83.3,20.5,83.3,20.6,83.3z M60.5,85.4c0.1,0.1,0.2,0.2,0.4,0.3l0.1,0.1
		c0.2,0.3,0.5,0.4,1,0.5s1,0.2,1.4,0.7h0.1c0.1,0.1,0.2,0.1,0.4,0.1c0.1,0,0.3-0.1,0.4-0.2s0.3-0.2,0.5-0.3c0,0,0,0,0.1,0
		c-0.3-0.1-0.6-0.2-1-0.3c-0.3-0.1-0.6-0.2-0.9-0.3C62,85.8,61.2,85.6,60.5,85.4z M69,84.5c1.5,0,3.7,0.1,5.6,1.4
		c0.7,0.4,1.5,0.7,2.2,0.8c0.1-0.4,0.2-0.6,0.3-0.9l0.1-0.2c0.6-1.1,1.2-2.1,1.6-3.2c1.3-2.8,2.9-6.6,3.3-10.8
		c0.1-1.3,0.5-2.6,1.2-3.7c1.3-2.2,2.3-4.5,3.2-7.1c0.4-1.1,0.7-2.2,1.1-3.4c0.4-1.1,0.7-2.3,1.1-3.4c0.9-2.4,1.7-4.8,2.7-7.2
		c1.2-2.7,2.5-6,3.8-9.5c0.4-1.1,0.8-2.2,1.2-3.2c0.4-1.1,0.8-2.2,1.2-3.2c0.4-1,0.8-2.1,1.1-3.2c0.6-1.7,1.3-3.4,1.8-5.1
		c0.5-1.4,1.4-2.3,2.7-2.5c1.3-0.2,2.4-1.1,3.2-2.6c0.4-0.8,0.6-1.4,0.1-2c-0.3-0.5-0.5-1.3,0.3-2.3c0.2-0.2,0.4-0.4,0.5-0.7
		c0.4-0.5,0.8-1.1,1.4-1.5c0.6-0.5,0.7-1.2,0.7-2l0,0l-0.1,0c-2.5,2.2-5,4.3-7.5,6.4l-0.9,0.9c-0.2,0.3-0.1,0.5-0.1,0.6
		c0.8,1.5,0.4,2.8-0.1,4c-1.1,2.8-2.1,5.6-3.2,8.3c-1.4,3.7-2.8,7.4-4.1,11c-0.9,2.7-1.9,5.4-3,8.1c-2.3,5.4-4.4,10.9-6.1,16.5
		c-0.5,1.5-1.3,2.7-2.4,3.5c-0.8,0.6-1.5,1.6-2,2.8c-0.2,0.4-0.4,0.9-0.5,1.3c-0.2,0.4-0.3,0.9-0.5,1.3s-0.4,0.7-0.5,1.1
		c-0.3,0.6-0.6,1.3-1,1.9c-1.4,2.4-3.2,3.8-5.6,4.4c-1,0.3-2,0.7-2.9,1c-0.8,0.4-1.6,0.7-2.3,1c-0.7,0.3-1.4,0.4-2.1,0.4
		c-1,0-1.9-0.3-2.7-0.9c-0.4-0.3-1.1-0.7-1.7-0.8c-0.6-0.1-1.2-0.2-1.8-0.3C57.2,81.3,56,81,54.9,81c-1.9-0.1-4.1-0.3-6-1.5
		c-0.2-0.1-0.4-0.1-0.6-0.2c-0.2-0.1-0.4-0.1-0.7-0.2c-2.2-0.9-4.6-1.2-6.9-1.5h-0.3c-0.7-0.1-1.5-0.2-2.2-0.4
		c-1.5-0.3-2.1-1.2-2-2.8c0.1-0.6,0.2-1.1,0.4-1.6l0.1-0.3c0.1-0.3,0.2-0.5,0.2-0.7l0,0h-0.1c-0.3,0.1-0.4,0.3-0.6,0.6
		c-0.2,0.3-0.4,0.6-0.5,0.9c-0.2,0.3-0.4,0.7-0.6,1c-0.9,1.2-2.1,1.9-3.5,1.9c-0.2,0-0.4,0-0.6,0l0,0c-0.1,0-0.3,0-0.4-0.1
		c-0.1,0-0.2,0-0.4,0c-2-0.2-3.9-0.5-5.8-0.8c-1.9-0.3-3.8-0.5-5.7-0.8c-1.4-0.2-2.8-0.5-4.2-1.3c-0.5-0.4-1-0.6-1.5-0.7h-0.2
		c-0.3,0-0.7,0.3-0.7,0.8c0,0,0,0.2,0.3,0.3c0.1,0,0.2,0.1,0.3,0.1c1.8,0.4,3.5,0.9,5.2,1.3s3.4,0.8,5.2,1.3h0.1
		c0.3,0.1,0.5,0.1,0.7,0.1c0.1,0,0.2,0,0.2,0c0.4-0.1,0.9-0.2,1.3-0.2c0.9,0,1.7,0.2,2.4,0.5c4.2,1.4,8.6,2.2,12.9,3
		c0.9,0.1,1.9,0.3,2.7,1.1c0.2,0.2,0.3,0.2,0.3,0.2s0.1,0,0.2,0c0.9-0.2,1.8-0.2,2.7-0.2c1.1,0,2.3,0.4,3.4,1.2
		c0.2,0.1,0.4,0.3,0.5,0.6c0,0,0,0,0.1,0c1,0.2,2.1,0.3,3.4,0.3c0.7,0,1.5,0.1,2.2,0.2c1.7,0.2,3.6,0.6,5.8,1.3
		c0.8,0.2,1.6,0.5,2.5,0.8c0.8,0.3,1.6,0.5,2.4,0.7c-0.2-0.2-0.2-0.4-0.2-0.6c0-0.1,0.1-0.3,0.1-0.4c0.1-0.1,0.3-0.3,0.6-0.3h0.4
		C68.2,84.5,68.6,84.5,69,84.5z M6,86.5C6.1,86.5,6.1,86.5,6,86.5c0.3-0.1,0.6-0.1,0.8-0.2c0.3-0.1,0.6-0.2,0.8-0.3
		c0.4-0.2,0.9-0.4,1.3-0.5c1.5-0.6,3-1.2,4.6-1.6c0.1,0,0.2-0.1,0.2-0.2c-0.2-0.2-0.3-0.4-0.4-0.5c-0.4-0.7-0.4-1.4-0.4-2
		c0-0.5,0-1,0-1.5c0-0.3,0-0.7,0-1c-0.4,0.1-0.8,0.3-1.2,0.5c-0.9,0.5-1.1,0.7-1,1.9c0.1,1.7,0,1.9-1.4,2.7c-0.1,0-0.2,0.1-0.2,0.1
		S9,83.9,9,84c0,0-0.1,0.1-0.2,0.1C7.6,84.6,6.7,85.4,6,86.5C6.1,86.4,6,86.4,6,86.5z M82.5,84c0,0.1,0,0.2,0,0.3c0,0.1,0,0.3,0,0.4
		c0.1,0.5,0.6,0.9,1.1,0.9h0.1c0.2,0,0.2-0.4,0.3-0.8c0.1-0.5,0.1-1,0.1-1.4v-1.6c0-0.8,0.2-1.6,0.6-2.3c0.1-0.3,0.4-0.6,0.8-0.8
		c0-0.2,0.1-0.3,0.2-0.5l0.1-0.1c0.4-0.4,0.6-0.9,0.7-1.5c0.1-0.3,0.2-0.6,0.3-0.9c0.3-0.9,0.5-1.8,1-2.6c1.5-5,3.1-10.4,5.4-15.7
		c0.3-0.7,0.5-1.5,0.8-2.3s0.5-1.6,0.8-2.3c0.3-1,0.2-1.2,0.2-1.3s-0.2-0.2-0.7-0.2c0,0,0,0-0.1,0C94.1,52,94,52.7,94,53.6
		c0,1-0.4,2-1,2.7c-0.9,1.2-1.7,2.6-2.1,4.1l-0.3,0.8c-0.9,2.5-1.7,5-2.3,7.5c-0.5,1.7-1,3.4-1.8,5.1c-0.7,1.8-1.4,3.5-2.1,5.3
		c-0.5,1.3-1,2.6-1.5,3.9C82.7,83.3,82.6,83.7,82.5,84z M50.7,84.5c0.9,0.2,1.8,0.4,2.7,0.6C52.5,84.9,51.6,84.6,50.7,84.5z
		 M46.2,82.1c-0.4,0-0.7,0-0.8,0.2c-0.1,0.1,0,0.3,0.3,0.6l0.1,0.2c0.1,0.2,0.3,0.3,0.4,0.3c0.1,0,0.2,0,0.3-0.1
		c0.6-0.5,1.2-0.7,1.8-0.7C47.7,82.3,47,82.1,46.2,82.1z M15,83c0.4,0.2,0.9,0.2,1.5,0.2c0.4,0,0.8,0,1.1,0.1v-0.1
		c0.1-0.3,0.1-0.8,0.1-1.1c0-0.2,0-0.4,0-0.6c0-0.4,0-0.8,0-1.3c0.2-1.8,1-2.8,2.6-3.1c-1-0.2-1.9-0.4-2.9-0.7
		c-1.2-0.3-2.5-0.6-3.7-0.9l-1.1-0.3c-0.2,0-0.4-0.1-0.6-0.1c-0.4,0-0.8,0.1-1.1,0.3c-0.8,0.4-1.8,0.7-3.1,0.8
		c-0.8,0.1-1.6,0.2-2.3,0.4L5,76.9H4.8C4.3,77,4.2,77,4.2,77.2c0,0.1,0.3,0.3,0.6,0.5L4.9,78c0.8,0.6,1,1.3,0.8,2.3
		c0,0.1,0,0.1-0.1,0.2c0,0,0,0,0,0.1c0.2,0,0.4-0.1,0.6-0.2c0.3-0.1,0.6-0.2,0.9-0.2c0.8,0,1.5,0.4,2,1.1l0,0l0.1,0.1l0,0
		c0-0.2-0.1-0.3-0.1-0.4c-0.2-1.4,0.4-2.7,1.8-3.3c0.3-0.1,0.5-0.2,0.7-0.3c0.3-0.1,0.5-0.3,0.8-0.4c0.2-0.1,0.3-0.1,0.4-0.2
		c0.3-0.2,0.6-0.4,1-0.4c0.3,0,0.5,0.1,0.7,0.3c0.6,0.5,0.4,1.3,0.3,1.7c0,0.1-0.1,0.2-0.1,0.3C14.6,80,14.4,81.5,15,83z M37.1,70.6
		c0.5,0,1,0.2,1.3,0.5c0.5,0.4,0.7,1.1,0.4,1.8V73c-0.1,0.3-0.2,0.6-0.4,0.9c-0.1,0.3-0.2,0.7-0.2,1.1c0,0.6,0.2,0.8,0.7,1
		c0.7,0.2,1.4,0.3,2.1,0.3h0.2c3.3,0.4,6.8,1,9.8,2.7c0.8,0.4,1.6,0.5,2.4,0.6c1.8,0.1,3.6,0.3,5.8,0.8c1.4,0.3,2.5,0.6,3.7,1.3
		c0.6,0.4,1.3,0.6,2,0.6c0.5,0,1-0.1,1.6-0.3c0.3-0.2,0.6-0.3,0.9-0.4l0.4-0.2c1.4-0.6,2.7-1.2,4.3-1.6c1.6-0.4,2.8-1.4,3.9-3.1
		c0.5-0.8,0.8-1.4,1.1-2.1c0.6-1.4,1.2-2.8,1.7-4.3c0.4-0.9,0.9-2,1.9-2.6c1.2-0.9,2-2.1,2.5-3.8c1.4-4.7,3-9,4.8-13.2
		c1.4-3.2,2.6-6.6,3.8-9.9l0.5-1.4c1.1-3.1,2-5.8,3-8.3c1.1-2.8,2.3-5.8,3.4-8.7l0.1-0.2c0.4-0.9,0.7-1.7,0.8-2.6
		c0.1-0.6,0.1-1-0.1-1.2S99,18,98.4,18c-0.1,0-0.1,0-0.2,0s-0.3,0-0.5,0l-9-0.9c-2.9-0.3-5.7-0.6-8.5-0.9c-1.7-0.1-3.4-0.3-5.1-0.5
		s-3.3-0.3-5-0.5c-2.9-0.2-5.9-0.5-8.7-0.8c-3.1-0.4-6.3-0.6-9.5-0.9l-0.8-0.1c-0.6-0.1-1.2-0.1-1.9-0.2c-1.4-0.2-2.8-0.3-4.2-0.3
		c-0.2,0-0.5,0-0.7,0l0,0c-1.4,0-2.7-0.1-3.8-1.2c-0.1-0.1-0.2-0.1-0.2-0.1c-0.1,0-0.2,0.1-0.4,0.2c-0.2,0.2-0.4,0.5-0.5,0.7
		c-0.1,0.1-0.2,0.3-0.3,0.4c-0.4,0.6-0.8,1.2-1.1,1.8c-0.7,1.1-1.3,2.3-2.3,3.2c-0.6,0.5-0.8,1.1-0.7,1.8c0.1,1.1-0.2,2.1-0.9,2.8
		c-0.3,0.3-0.5,0.8-0.7,1.4L32.5,27c-1,2.4-2,5-3,7.5c-0.2,0.4-0.3,0.8-0.5,1.1c-0.6,1.4-1.2,2.9-2,4.2c0,0,0,0.1-0.1,0.1l0,0
		c0,0.1,0,0.2,0,0.3l-1.5,4.4c0,0.1-0.1,0.2-0.1,0.2c-0.4,0.4-0.6,0.8-0.9,1.4c-0.1,0.2-0.2,0.4-0.3,0.6c-0.5,1-0.9,2-1.4,3
		s-0.9,2-1.4,3.1c-0.3,0.8-0.7,1.5-1.1,2.3s-0.7,1.5-1.1,2.3c-0.2,0.4-0.4,0.8-0.6,1.2c-0.6,1.2-1.1,2.3-1.5,3.5
		c-0.2,0.7-0.6,1.3-0.9,1.9c-0.5,0.9-0.9,1.8-1,2.8c0,0.3-0.2,0.6-0.3,0.7l-0.1,0.1c-0.1,0.2-0.2,0.5-0.4,0.8
		c-0.3,0.6-0.6,1.2-0.9,1.8c-0.3,0.6-0.3,0.8-0.3,0.8c0.1,0.1,0.4,0.2,0.7,0.3c0.5,0.2,1.1,0.5,1.7,0.8c0.8,0.6,1.8,0.9,3,1l0,0
		c0.6,0,1.2,0.1,1.7,0.2c1.8,0.3,3.6,0.5,5.4,0.8c1.8,0.2,3.6,0.5,5.4,0.8c0.2,0,0.3,0,0.5,0c1.1,0,2-0.5,2.6-1.5
		c0.1-0.2,0.2-0.4,0.3-0.5c0.2-0.4,0.4-0.7,0.7-1.1s0.7-0.8,1.3-1.1C36.7,70.6,36.9,70.6,37.1,70.6z M22,78.8c-0.4,0-0.8,0-1.2,0.1
		c-0.8,0.1-1.2,0.5-1.4,1.2c-0.1,0.3-0.1,0.5-0.1,0.8c0,0.1,0,0.3,0,0.5c0,0.4,0,0.5,0.1,0.5s0.3-0.2,0.5-0.3
		c0.1-0.1,0.2-0.1,0.3-0.2l0.1-0.1c1.2-0.8,2.4-1.6,3.9-2.1c-0.1,0-0.2,0-0.3-0.1C23.4,78.9,22.7,78.8,22,78.8z M85.9,80.6
		c-0.1,0.3-0.2,0.6-0.2,0.9c0.1-0.4,0.2-0.8,0.3-1.2C86,80.4,86,80.5,85.9,80.6z M39.7,81c0.3,0.1,0.5,0.2,0.8,0.3
		c0.3,0.1,0.5,0.2,0.7,0.2c0.1,0,0.3,0,0.4-0.1l-0.5-0.1L39.7,81z M26.2,77.8c1.3,0.3,2.2,0.7,3,1.5c0.2,0.2,0.7,0.4,1.2,0.5
		c0.7,0.3,1.4,0.4,2.3,0.4c1.2,0,2.4,0,3.5,0.1C33.1,79.7,30,79,27,78C26.8,78,26.5,77.9,26.2,77.8z M94.2,59.5
		c-1.2,2.9-2.3,5.8-3.2,8.8c0.4-1.1,0.9-2.3,1.4-3.5c0.9-2.1,1.6-4.2,2.1-6.1C94.4,59,94.3,59.2,94.2,59.5z M96.1,49.8
		c0.4,0.4,0.7,0.8,0.7,1.2c0.1-0.3,0.2-0.5,0.4-0.8c0.7-1.5,1.3-3.1,1.8-4.6c0,0,0.8-2.2,0.9-2.5c-0.5,1-1,2-1.5,3l-1,2
		c-0.2,0.3-0.4,0.7-0.8,1C96.4,49.5,96.3,49.7,96.1,49.8z M104.3,26.6c-0.3,0-0.5,0.1-0.7,0.2c-0.3,0.3-0.6,0.7-0.8,1.4
		c-0.7,1.9-1.2,3.4-1.6,4.8c-0.8,2.9-2,5.7-3,8c-0.7,1.8-1.5,3.7-2.3,5.5l-0.1,0.1c-0.1,0.3-0.2,0.7-0.3,1c0.1-0.3,0.3-0.6,0.4-0.9
		l2.6-5.2c1.8-3.5,2.8-6.6,3.3-9.5c0.3-2.1,1.3-3.8,2.9-5.1c0,0,0.1,0,0.1-0.1c0.1,0,0.1-0.1,0.2-0.1
		C104.8,26.7,104.5,26.6,104.3,26.6z M29.7,12.9c1.9,1.1,3.4,2.4,4.7,4c0,0,0.1,0,0.1-0.1c0.7-0.5,1.2-1.2,1.8-2.3l0.1-0.1h-0.1
		c-0.6-0.2-1-0.3-1.5-0.5c-0.5-0.1-1-0.3-1.5-0.5c-0.7-0.3-1.4-0.5-2.1-0.5c-0.2,0-0.5,0-0.7,0.1h-0.1L29.7,12.9L29.7,12.9z
		 M114,13.6c-0.2,0-0.3,0.1-0.5,0.2C113.7,13.7,113.8,13.7,114,13.6z M109.4,13.3c0.2,0,0.3-0.1,0.5-0.2L110,13
		c-0.1-0.2-0.2-0.3-0.2-0.3C109.7,12.9,109.5,13.1,109.4,13.3L109.4,13.3z M33.5,11.1c0.3,0.5,0.9,0.8,1.6,1
		c0.3,0.1,0.6,0.2,0.9,0.3c0.3,0.1,0.5,0.2,0.8,0.2c0.1,0,0.2,0,0.3,0c0.5,0,0.8-0.3,0.9-0.8l0,0c-0.1,0-0.3,0-0.5,0s-0.4,0-0.6,0
		C35.9,11.7,34.7,11.5,33.5,11.1z M112.9,12.1C112.9,12.1,112.9,12.1,112.9,12.1c0.2,0,0.4,0,0.6-0.1l5.2-1.7c0,0,0.2-0.1,0.3-0.2
		c0.1-0.1,0.1-0.1,0.1-0.1C119,9.7,119,9.7,119,9.7l0,0c-0.3,0-0.7,0.1-0.8,0.2c-0.8,0.8-1.8,1-2.7,1.1c-0.4,0-0.8,0.1-1.2,0.2
		c-0.2,0-0.5,0.1-0.7,0.1C113.3,11.4,113.1,11.5,112.9,12.1L112.9,12.1z M39.8,9.8c0.7,0,1.3,0.1,2,0.4c-0.2-0.4-0.5-0.9-0.8-1.3
		c-0.1-0.2-0.3-0.4-0.4-0.6C40,7.5,39.3,7,38.5,7c-0.2,0-0.4,0-0.6,0.1c-0.4,0.1-0.9,0.1-1.3,0.1c-0.4,0-0.7,0-1-0.1
		C35.2,7,35,6.9,34.8,6.9c-0.3,0-0.7,0.1-1,0.8c-0.2,0.3-0.4,0.5-0.6,0.7c-0.1,0.1-0.2,0.2-0.3,0.3S32.7,8.9,33,9.1
		c0.7,0.5,1.6,0.9,2.7,1h0.1c0.2,0,0.4,0,0.6,0c0.2,0,0.5,0,0.7,0c0.5,0,0.9,0,1.3-0.1C38.9,9.9,39.4,9.8,39.8,9.8z M113.4,9.6
		c0,0,0.1,0,0.2,0c0,0,0.1,0,0.2,0c0.2,0,0.4-0.1,0.5-0.2c0.1-0.2,0.2-0.3,0.3-0.5c0.3-0.4,0.5-0.7,0.7-1.1c0-0.1,0-0.1,0-0.2
		s-0.1-0.1-0.1-0.1h-0.1H115c-0.1,0-0.3,0.1-0.5,0.2c-0.4,0.4-0.8,0.9-1.1,1.5C113.4,9.4,113.4,9.5,113.4,9.6L113.4,9.6z M116.5,9.2
		L116.5,9.2C116.5,9.2,116.6,9.2,116.5,9.2C116.6,9.2,116.6,9.2,116.5,9.2L116.5,9.2z M35.1,4.1c-0.1,0.2-0.1,0.4,0,0.5
		c0.2,0.6,0.7,0.7,1.6,0.7c0.1,0,0.4,0,0.5,0c0.2,0,0.3,0,0.3-0.1c-0.5-0.6-1.2-1.1-1.9-1.3h-0.1C35.3,4,35.2,4,35.1,4.1z"/>
	<path class="st1" d="M26,38.3l0.4,1.5c0,0,0,0,0,0.1l0,0l0,0l0,0c0.1-0.1,0.1-0.2,0.2-0.3c1-1.6,1.6-3.5,2.4-5.3
		c1.5-3.5,2.8-7,4.2-10.3c0.2-0.6,0.4-1.2,0.8-1.5c0.7-0.7,0.9-1.5,0.8-2.4s0.2-1.6,0.9-2.2c1.5-1.5,2.2-3.4,3.4-5
		c0.3-0.4,0.5-0.8,0.9-1.2s0.9-0.5,1.3-0.1c1,1,2.1,1.1,3.5,1.1c2.3-0.1,4.6,0.3,6.9,0.5c3.4,0.3,6.9,0.6,10.3,1
		c2.9,0.3,5.8,0.6,8.7,0.8c3.4,0.3,6.7,0.7,10.1,1c2.8,0.3,5.6,0.6,8.5,0.9c3,0.3,6,0.6,9,0.9c0.2,0,0.5,0,0.7,0.1
		c1.4,0.2,1.8,0.8,1.5,2.2c-0.2,1-0.5,1.8-0.9,2.7c-1.2,3-2.3,6-3.5,8.9c-1.1,2.8-2,5.5-3,8.3c-1.4,3.8-2.7,7.6-4.3,11.3
		c-1.8,4.4-3.4,8.7-4.7,13.2c-0.5,1.6-1.3,3-2.7,4.1c-0.9,0.6-1.4,1.5-1.7,2.4c-0.6,1.5-1.2,2.9-1.7,4.3c-0.3,0.8-0.7,1.5-1.2,2.2
		c-1.1,1.6-2.3,2.8-4.3,3.3c-1.6,0.4-3.1,1.1-4.6,1.7c-0.3,0.1-0.6,0.2-0.8,0.4c-1.4,0.6-2.7,0.6-4.1-0.3c-1.1-0.7-2.2-1-3.5-1.3
		c-1.9-0.4-3.9-0.7-5.8-0.8c-0.9-0.1-1.7-0.2-2.6-0.7c-3-1.6-6.4-2.2-9.7-2.6c-0.8-0.1-1.6-0.2-2.4-0.4c-0.8-0.2-1.1-0.7-1.1-1.5
		c0-0.5,0.1-1,0.3-1.4c0.2-0.3,0.3-0.7,0.4-1c0.2-0.5,0.1-1-0.3-1.3c-0.4-0.4-1-0.5-1.5-0.3s-0.8,0.5-1.1,0.9
		c-0.4,0.6-0.7,1.2-1,1.6c-0.8,1.4-1.9,1.9-3.6,1.7c-3.6-0.6-7.2-1-10.7-1.5c-0.6-0.1-1.2-0.2-1.7-0.2c-1.2-0.1-2.2-0.4-3.2-1.1
		c-0.5-0.3-1.1-0.6-1.5-0.8c-1.1-0.4-1.4-0.5-0.7-1.8c0.5-0.9,0.9-1.7,1.3-2.5c0.1-0.2,0.3-0.4,0.3-0.7c0.2-1.7,1.4-3.1,1.9-4.7
		c0.6-1.6,1.4-3.1,2.1-4.7c0.7-1.5,1.5-3.1,2.1-4.6c1-2,1.8-4.1,2.8-6.1c0.4-0.8,0.6-1.5,1.3-2.1l1.5-4.4 M23.8,44.5
		c-0.4,0.8-0.8,1.6-1.2,2.4c-1.4,3-2.7,5.9-4.1,8.9c-1.5,2.9-2.4,6-4.1,8.8c-0.1,0.1-0.1,0.2-0.1,0.3c-0.1,1.6-1.1,2.9-1.6,4.3
		c-0.7,1.5-1.5,3-1.9,4.5c-0.1,0.4-0.4,0.7-0.8,1c-0.6,0.3-1.2,0.5-1.7,0.5c-0.9,0.1-1.6,0.2-2.4,0.3c-0.9,0.2-1.7,0.4-2.6,0.7
		c-0.4,0.1-0.5,0.5-0.5,0.9c0.1,0.8,0.6,1.3,1.2,1.6C4.5,79,4.6,79.4,4.5,80c-0.1,0.6-0.2,1.2-0.3,1.7c0,0.2,0,0.4,0.1,0.5
		c0.2,0.2,0.4,0.1,0.7,0c0.4-0.2,0.8-0.5,1.3-0.7c0.3-0.1,0.7-0.2,1.1-0.2c0.5,0,0.8,0.3,1,0.7c0.2,0.4,0.1,0.8-0.2,1.2
		c-0.2,0.2-0.5,0.4-0.7,0.5c-1.2,0.7-1.9,1.7-2.9,2.6C4.2,86.6,4,87,3.9,87.6c0,0.5,0.3,0.9,0.8,0.8c0.3,0,0.6-0.1,0.9-0.2
		c1.6-0.6,3.3-1.3,5-1.8c1.1-0.4,2.1-0.8,3.2-1.1c1.4-0.4,2.6-0.6,4.1-0.3c0.3,0.1,0.7,0,1.1,0c2.5-0.3,5.1-0.3,7.6,0.1
		c2,0.3,4,0.6,6,1c2.6,0.5,5.2,1.2,7.4,2.6c0.6,0.4,1.3,0.6,2,0.6c3-0.3,6,0.2,9,0.7c3.6,0.7,7.2,1.5,10.8,1.7
		c5.2,0.5,10,2.3,14.6,4.7c1,0.5,1.5,1.3,1.6,2.3c0.1,1.2,0.3,2.3,0.4,3.5s0.4,2.2,0.7,3.3c0.3,0.8,0.7,1.5,1.2,2.2
		c0.6,0.7,1.3,0.8,2,0.6c0.7-0.2,0.6-0.8,0.6-1.4c0-0.1,0-0.1,0-0.2c0.1-0.8,0.5-1.2,1.3-1.3c0.6-0.1,1.1,0.2,1.5,0.4
		c0.3,0.1,0.7,0.3,1,0c0.2-0.3,0-0.6-0.1-0.9c-0.3-0.5-0.5-1-0.8-1.4c-0.6-1.1-1.2-2-1.7-3.1c-0.1-0.3-0.3-0.6-0.1-0.8
		c0.3-0.3,0.5-0.1,0.8,0.1s0.5,0.4,0.8,0.3c0.1,1.2,1.1,1.7,1.8,2.4c0.3,0.3,0.8,0.1,0.9-0.3c0.3-0.6,0.4-1.3,0.3-1.9
		c-0.1-0.4-0.2-0.7-0.2-1.1c-0.1-0.7,0.3-1.1,0.9-1.1c0.4,0,0.9,0,1.3,0c1.6-0.2,1.8-0.7,1.1-2c-0.1-0.2-0.2-0.5-0.4-0.6
		c-1-0.8-1.4-1.7-1.5-2.9c0-0.3-0.1-0.6-0.3-0.9c-0.5-1.2-1.2-2.2-2.6-2.3c-0.1,0-0.2-0.1-0.4-0.1c-0.7-0.2-1.2-0.7-1.3-1.4
		c-0.3-1.3-0.3-2.5,0.5-3.6c1.2-1.6,1.8-3.5,1.9-5.4c0-0.5,0.2-1,0.6-1.3c1.1-0.9,1.6-2,1.9-3.3c0.9-3,1.8-6,3.1-8.9
		c1.4-3.2,2.5-6.4,3.2-9.8c0.3-1.5,0.8-2.9,1.4-4.3c1.5-3.3,2.8-6.8,4-10.3c1-3,1.9-6,3-8.9c0.5-1.5,1.2-2.8,1.7-4.3
		c0.3-0.8,1-1.2,1.8-1.2c0.2,0,0.4,0,0.6,0c1.9,0,3.9-0.3,5.8-0.5c2.9-0.3,5.9-0.9,8.8-0.9c1,0,1.7-0.7,2.4-1.4
		c0.4-0.4,0.4-0.9,0.3-1.4c-0.1-0.7-0.2-1.3-0.5-1.9c-0.3-0.9-0.7-1.1-1.5-0.8c-0.4,0.1-0.8,0.4-1.2,0.4s-0.7-0.1-0.9-0.4
		c-0.2-0.3,0-0.6,0.1-0.8c0.5-0.7,0.9-1.3,1.2-2c0.7-1.9-0.1-3.5-2.1-3.9c-0.6-0.1-1.1-0.2-1.4-0.7c-0.5-0.5-1-0.6-1.6-0.4
		c-0.5,0.1-1.1,0.4-1.5,0.2c-0.2,0-0.3-0.1-0.4-0.3s0-0.4,0.2-0.5c0.4-0.2,0.8-0.4,1.1-0.5c0.9-0.3,1.6-0.7,2.5-1
		c0.4-0.2,0.6-0.5,0.5-0.9c-0.2-0.5-0.4-1-0.6-1.5c-0.2-0.3-0.5-0.5-0.9-0.5c-0.3,0-0.6,0.1-0.9,0.1c-0.9,0.1-1,0-1.4-0.8
		c-0.7-1.5-1.9-1.7-3.1-0.6c-0.4,0.4-0.7,0.8-1,1.3c-0.3,0.4-0.6,0.7-1,0.7c-0.1-0.1-0.2-0.2-0.2-0.2c-0.1-0.4-0.1-0.8-0.4-1.2
		c-0.3-0.3-0.6-0.4-1-0.2c-0.3,0.2-0.5,0.4-0.7,0.6c-1,0.8-1.9,1.5-2.8,2.4c-2.2,1.9-4.5,3.6-6.6,5.7c-0.5,0.5-1.1,0.7-1.7,0.6
		c-1.1-0.1-2.1-0.2-3.2-0.3c-2.9-0.3-5.9-0.6-8.8-0.9c-4.4-0.4-8.7-0.9-13.1-1.3c-3.1-0.3-6.1-0.6-9.2-0.9c-3.4-0.3-6.9-0.7-10.3-1
		c-2.3-0.2-4.5-0.5-6.9-0.7c-0.7-0.1-1.3-0.3-1.6-1c0.1,0.9-0.2,0.6-0.3,0.2c-0.2-0.3-0.5-0.6-0.9-0.6c0.1-0.4-0.1-0.7-0.3-1
		c-0.5-0.6-1-1.1-1.6-1.4c-1.4-0.7-2.5-1.5-3.6-2.5c-0.4-0.4-0.9-0.7-1.3-1c-0.4-0.2-0.8-0.4-1.2-0.5c-1.1-0.2-1.9,0.6-1.8,1.6
		c0.1,0.8-0.1,1.3-0.6,1.7c-0.4,0.4-0.6,0.9-1,1.3c-0.6,0.7-0.8,1.5-0.7,2.3c0,0.4,0.1,0.7,0.1,1.1c0,0.3-0.2,0.6-0.5,0.7
		c-0.5,0.2-1.1,0.1-1.5,0.1c-0.5,0-1.1-0.1-1.5,0c-0.5,0-0.8,0.6-0.5,1.1c0.2,0.4,0.6,0.7,1.1,1c0.8,0.5,1.5,1,2.2,1.5
		c1.2,0.8,2,1.8,2.7,3c0.7,1.3,0.8,2.5-0.2,3.7c-0.5,0.6-0.7,1.3-1,1.8c-0.7,1.6-1.3,3.3-1.9,4.9c-1.2,2.8-2.3,5.7-3.6,8.5
		 M34.7,3.8c0.3-0.3,0.6-0.4,1-0.3c1,0.3,1.7,0.9,2.3,1.6c0.1,0.1,0,0.4-0.2,0.5c-0.4,0.3-0.8,0.2-1.2,0.2c-0.9,0-1.6-0.1-2-1.1
		C34.5,4.5,34.5,4.2,34.7,3.8z M36.7,14.7c-0.5,1-1.1,1.8-1.9,2.5c-0.3,0.2-0.6,0.3-0.8,0c-1.4-1.7-3-3.1-5-4.2
		c-0.1-0.1-0.2-0.2-0.2-0.3c-0.1-0.2,0-0.4,0.2-0.4c0.5,0,1,0,1.4,0c1.2-0.3,2.1,0.1,3.1,0.5s1.9,0.6,2.9,1
		C36.8,13.9,37,14.3,36.7,14.7z M36.7,13.1c-0.6-0.1-1.2-0.4-1.7-0.5c-1.2-0.2-2-0.9-2.3-2.1c0.2,0,0.5,0,0.7,0.1
		c1.4,0.5,2.7,0.8,4.2,0.7c0.2,0,0.5,0,0.7,0.1c0.2,0,0.3,0.2,0.3,0.4C38.4,12.7,37.6,13.3,36.7,13.1z M42.5,11.3
		c-1.2-1-2.4-1.3-4-0.9c-0.9,0.2-1.8,0.1-2.8,0.1c-1.1-0.1-2.1-0.4-3-1.1c-0.4-0.3-0.5-0.7-0.2-1.1c0.2-0.3,0.6-0.6,0.8-1
		c0.5-1.1,1.3-1.3,2.3-0.9c0.7,0.2,1.5,0.1,2.1,0C39.2,6.3,40.2,6.9,41,8c0.7,1.1,1.5,2,1.7,3.3C42.7,11.1,42.6,11.2,42.5,11.3z
		 M44.4,11.3c-0.1,0-0.4,0-0.5-0.1c-0.5-0.5-0.7-1.1-1-1.6c-0.1-0.2-0.3-0.5-0.1-0.7C43.1,8.7,43.3,9,43.6,9c0,0.8,0.7,1.2,0.9,1.8
		C44.6,11.1,44.6,11.3,44.4,11.3z M116.9,8.8c0.1,0.1,0.2,0.3,0.2,0.5c-0.1,0.4-0.5,0.5-0.9,0.5c-0.1-0.1-0.3-0.1-0.3-0.3
		c0-0.1,0-0.2,0.1-0.3C116.1,8.7,116.5,8.6,116.9,8.8z M113,9c0.3-0.7,0.7-1.3,1.3-1.7c0.3-0.2,0.6-0.4,1-0.3c0.3,0,0.5,0.2,0.6,0.6
		c0,0.1,0,0.3-0.1,0.5c-0.3,0.6-0.7,1.1-1.1,1.6c-0.2,0.3-0.6,0.4-0.9,0.4C112.9,10.2,112.7,9.7,113,9z M112.5,11.9
		c0.2-0.6,0.5-1,1.1-1.1c0.7-0.1,1.3-0.3,1.9-0.3c0.9-0.1,1.7-0.3,2.4-1c0.3-0.3,0.8-0.4,1.2-0.4c0.4,0,0.5,0.2,0.6,0.6
		c0.1,0.3,0,0.5-0.2,0.7c-0.1,0.1-0.3,0.2-0.5,0.3c-1.7,0.6-3.5,1.2-5.2,1.7c-0.3,0.1-0.6,0.1-0.7,0.1
		C112.6,12.6,112.4,12.2,112.5,11.9z M113.1,13.4c0.5-0.2,1-0.4,1.5-0.2c0.2,0.1,0.3,0.2,0.3,0.4c-0.1,0.1-0.1,0.2-0.2,0.3
		c-0.2,0.1-0.3,0.2-0.5,0.2c-1.5,0.5-3.2,0.9-4.7,1.4c-0.4,0.1-0.8,0.2-1.2,0c-0.1-0.1-0.2-0.2-0.2-0.3c0-0.2,0-0.4,0.2-0.4
		c0.1,0,0.2-0.1,0.3-0.1C110.3,14.4,111.8,14,113.1,13.4z M108.9,13.2c0.2-0.3,0.4-0.6,0.7-0.9c0.1-0.1,0.2-0.1,0.3-0.1
		c0.4,0.1,0.6,0.4,0.7,0.8c0.1,0.3-0.1,0.5-0.3,0.6c-0.3,0.2-0.6,0.3-1,0.3C109,13.7,108.8,13.5,108.9,13.2z M11.6,73.2
		c0.1-0.8,0.9-1.4,1.5-1.2c0.7,0.1,1.3,0.4,1.7,0.8c1.3,0.8,2.6,1.1,4,1.3c3.8,0.5,7.6,1.1,11.4,1.5c0.3,0,0.6,0.1,0.9,0.1
		c1.5,0.2,2.8-0.4,3.7-1.6c0.4-0.6,0.7-1.3,1.1-1.8c0.2-0.4,0.5-0.7,0.9-0.9c0.3-0.1,0.8,0.2,0.8,0.5s-0.1,0.6-0.2,0.9
		c-0.2,0.6-0.4,1.1-0.5,1.7c-0.1,1.4,0.3,2,1.6,2.3c0.8,0.2,1.6,0.3,2.4,0.4c2.4,0.3,4.8,0.7,7.1,1.5c0.5,0.2,1,0.3,1.4,0.5
		c1.7,1.1,3.8,1.4,5.8,1.5c1.7,0.1,3.5,0.6,5.2,0.9c0.7,0.1,1.4,0.5,1.9,0.9c1.4,1,2.9,1,4.4,0.4c0.8-0.3,1.5-0.6,2.3-1
		c1-0.4,1.9-0.8,3-1.1c2.4-0.6,4.1-2,5.3-4.2c0.6-1,1-2,1.5-3c0.4-0.9,0.7-1.7,1.1-2.6c0.5-1.2,1.2-2.2,2.1-3c1.2-0.9,1.8-2,2.2-3.3
		c1.7-5.6,3.8-11.1,6.1-16.5c1.1-2.7,2-5.4,3-8.1c1.3-3.7,2.6-7.3,4.1-11c1.1-2.7,2.1-5.5,3.2-8.3c0.5-1.2,0.8-2.3,0.1-3.6
		c-0.2-0.4-0.1-0.8,0.2-1.2c0.3-0.3,0.6-0.6,0.9-0.9c2.5-2.1,5-4.3,7.5-6.5c0.3-0.2,0.6-0.4,0.9-0.6c0.2-0.1,0.4,0.1,0.4,0.3
		c-0.1,1.1,0,2.1-1,2.9c-0.8,0.6-1.3,1.5-1.8,2.1s-0.7,1.2-0.3,1.7c0.6,0.9,0.3,1.6-0.1,2.5c-0.8,1.5-1.8,2.6-3.6,2.9
		c-1.3,0.2-1.9,1-2.3,2.1c-1,2.8-2,5.6-3,8.3c-0.8,2.1-1.5,4.4-2.3,6.5c-1.2,3.3-2.4,6.4-3.8,9.6c-1,2.3-1.8,4.7-2.7,7.2
		c-0.8,2.2-1.5,4.5-2.2,6.8c-0.9,2.5-1.9,4.9-3.3,7.3c-0.7,1.1-1.1,2.2-1.2,3.5c-0.4,3.9-1.7,7.4-3.4,10.9c-0.5,1.1-1.1,2.1-1.6,3.2
		c-0.2,0.4-0.5,0.8-0.4,1.4c-1.1,0-2-0.3-3-0.9c-1.9-1.3-4.3-1.4-6.5-1.3c-0.1,0-0.3,0-0.4,0s-0.2,0.1-0.3,0.2c0,0.1,0,0.2,0.1,0.3
		c0.2,0.2,0.5,0.4,0.7,0.6c0,0-0.1,0.2-0.1,0.3c-0.4,0.1-0.7,0-1.1-0.1c-1.6-0.5-3.3-1.1-4.9-1.5c-1.8-0.6-3.8-1.1-5.7-1.3
		c-0.7-0.1-1.5-0.2-2.1-0.2c-1.3,0-2.6-0.1-3.9-0.4c0-0.3-0.2-0.6-0.4-0.7c-1-0.7-2-1.1-3.1-1.1c-0.9,0-1.7,0-2.6,0.2
		c-0.4,0.1-0.7,0-1-0.3c-0.7-0.7-1.5-0.9-2.4-1c-4.4-0.8-8.7-1.5-13-3c-1.2-0.4-2.2-0.7-3.5-0.3c-0.4,0.1-0.8,0-1.3-0.1
		c-3.5-0.9-6.9-1.6-10.3-2.5c-0.1,0-0.2-0.1-0.4-0.1C11.9,73.9,11.5,73.6,11.6,73.2z M48.2,83.8c0.6,0.1,1.2,0.3,1.7,0.3
		c1.4-0.1,2.5,0.3,3.8,0.7c1.4,0.5,2.7,0.8,4.1,1.2c0.5,0.1,1.1,0.3,1.5,0.5c0.1,0,0.2,0.2,0.2,0.3s-0.2,0.1-0.2,0.2
		c0,0-0.1,0-0.2,0c-2.8-0.6-5.7-1.2-8.6-1.8c-0.8-0.2-1.6-0.4-2.4-0.6c-0.2,0-0.4-0.1-0.3-0.3C47.8,83.8,48.1,83.8,48.2,83.8z
		 M46.8,83.7c-0.5,0.4-1,0.3-1.4-0.3c-0.3-0.4-0.7-0.8-0.5-1.3s0.8-0.5,1.3-0.5c1,0,1.8,0.3,2.7,0.7c0.5,0.2,0.9,0.6,1.5,0.6
		c-0.4,0.3-0.9,0.4-1.4,0.3C48.2,83,47.6,83.1,46.8,83.7z M57.9,85.1c-0.9-0.2-1.7-0.5-2.6-0.7c-0.1,0-0.2-0.1-0.4-0.3
		c1.1-0.3,1.9,0.1,2.8,0.2c1,0.2,1.8,0.4,2.8,0.6c0.9,0.2,1.7,0.5,2.5,0.8c0.9,0.3,1.8,0.4,2.6,0.9c-0.3,0.6-0.9,0.6-1.2,0.9
		c-0.5,0.4-1,0.4-1.5,0l-0.1-0.1c-0.6-0.8-1.8-0.3-2.4-1.3C59.8,85.4,58.8,85.4,57.9,85.1z M65.7,87.7c0.2-0.1,0.5-0.1,0.8-0.1
		c0.5,0.1,1,0.2,1.5,0.3c2.2,0.4,4.4,1.4,6.6,1.9c0.2,0,0.3,0.2,0.3,0.4c0,0.1-0.2,0.1-0.3,0.1c-0.3,0-0.6,0-0.9-0.1
		c-2.5-0.6-5-1.2-7.5-1.7c-0.2,0-0.3-0.1-0.5-0.2c-0.1-0.1-0.2-0.2-0.2-0.3S65.6,87.8,65.7,87.7z M42.2,81.4c0,0.1-0.1,0.2-0.2,0.3
		c-0.6,0.3-1.2,0.3-1.7,0c-2.4-1-4.9-1-7.5-1c-0.9,0-1.6-0.1-2.4-0.4c-0.5-0.1-1.1-0.3-1.5-0.7c-0.9-0.9-1.9-1.3-3.2-1.5
		c-0.4,0-0.7-0.2-1-0.3c-0.1,0-0.1-0.2-0.1-0.3c0-0.1,0.1-0.2,0.2-0.3c0.2-0.1,0.5-0.1,0.5-0.1c0.8,0,1.4,0.1,1.9,0.3
		c4.5,1.5,9.3,2.3,14,3.2c0.3,0.1,0.6,0.2,0.9,0.3C42.2,81.1,42.2,81.3,42.2,81.4z M13.6,84.3c-2,0.5-3.9,1.4-5.8,2.1
		c-0.5,0.2-1,0.3-1.5,0.5c-0.2,0.1-0.5,0-0.7-0.2S5.5,86.2,5.7,86c0.8-1.2,1.7-2,3-2.6c0.2-0.1,0.3-0.2,0.5-0.2
		c1.3-0.7,1.3-0.7,1.2-2.2c-0.1-1.4,0.1-1.8,1.3-2.4c0.6-0.3,1.2-0.6,1.8-0.6l0.1,0.1l0,0c0,1-0.1,2-0.1,3c0,0.6,0,1.2,0.3,1.7
		c0.2,0.3,0.4,0.6,0.8,0.6C14.3,83.8,14.1,84.1,13.6,84.3z M18.2,80.4c-0.1,0.6,0,1.2,0,1.7c0,0.4,0,0.9-0.1,1.3
		c0,0.3-0.3,0.6-0.6,0.5c-1-0.2-2,0-2.9-0.5c-0.7-1.5-0.6-3.2-0.3-4.8c0.1-0.5,0.5-1.2,0-1.5c-0.6-0.5-1.1,0.2-1.6,0.4
		c-0.5,0.2-1,0.5-1.5,0.7C10,78.6,9.5,79.6,9.7,81c0,0.2,0.1,0.5,0.1,0.7s-0.1,0.4-0.2,0.5c-0.3,0.2-0.5,0-0.6-0.2
		c-0.1-0.1-0.2-0.3-0.3-0.4c-0.6-0.9-1.4-1.1-2.3-0.8C6.1,80.9,5.8,81,5.5,81s-0.4-0.2-0.4-0.4c0-0.2,0-0.4,0.1-0.5
		c0.2-0.8,0-1.3-0.6-1.7c-0.5-0.4-1-0.7-1-1.2c0.1-0.7,0.8-0.7,1.3-0.8c1-0.2,1.8-0.4,2.8-0.5s2-0.3,2.9-0.8c0.7-0.4,1.4-0.4,2-0.3
		c0.4,0.1,0.8,0.2,1.2,0.3c2.5,0.6,4.9,1.2,7.4,1.7c0.5,0.1,1,0.3,1.5,0.7c-0.6,0-1.2,0-1.7,0C19.2,77.8,18.4,78.5,18.2,80.4z
		 M19.2,82.3c-0.6-0.3-0.3-1-0.4-1.5c0-0.3,0-0.6,0.1-0.9c0.2-1,0.8-1.5,1.8-1.6c1.2-0.1,2.2-0.1,3.3,0.2c0.8,0.2,1.5,0.4,2.2,0.6
		c-2.2,0.2-4.1,1.5-5.8,2.6C20.1,82,19.7,82.5,19.2,82.3z M76.7,95.8c-0.7,0-1.1-0.4-1.6-0.7c-5-2.5-10.3-4-16-4.4
		c-2.3-0.2-4.6-0.8-7-1.2c-2.4-0.5-4.7-1-7.2-1.2c-1.2-0.1-2.2-0.1-3.4-0.1c-0.7,0-1.3-0.1-1.8-0.5c-2.3-1.5-4.8-2.2-7.4-2.7
		c-2.1-0.4-4.2-0.8-6.3-1c-1.6-0.2-3.3-0.2-4.9-0.4c-0.4,0-0.8-0.1-1.3-0.1c-0.2,0-0.3-0.2-0.2-0.4c0-0.1,0.1-0.2,0.2-0.3
		c1.2-0.8,2.2-1.5,3.4-2.2c1-0.6,1.9-0.8,3-0.8c0.9,0,1.6,0.1,2.3,0.5c1.7,0.8,3.5,1.1,5.3,1c2-0.1,4,0.1,5.9,0.8
		c0.9,0.3,1.7,0.3,2.6,0.1c0.9-0.3,1.6,0,2,0.9c0.5,1.1,1.5,1.5,2.5,1.6c3.7,0.8,7.3,1.5,10.9,2.2c0.7,0.1,1.4,0.3,2.1,0.5
		c0.5,0.1,0.9,0.3,1.4,0.1c0.4-0.1,0.7,0,1,0.3c0.8,0.7,1.6,0.9,2.6,1c1.5,0.3,2.9,0.7,4.4,1c1.7,0.4,3.5,0.8,5.2,1.1
		c0.7,0.1,1.1,0.5,1.3,1.1c0.2,0.6,0.5,1.3,0.6,1.8C76.6,94.7,77.2,95.2,76.7,95.8z M83.8,102.1c0.3,0.5,0.6,1.1,0.9,1.5
		c0.2,0.4-0.1,0.5-0.5,0.6c-0.1,0-0.2,0-0.4,0.1c-0.2-0.7-0.7-0.8-1.3-0.6c-0.5,0.1-0.8,0.6-0.8,1.1c0,0.4,0,0.7,0,1.1
		s-0.1,0.7-0.4,1c-0.4,0.6-0.9,0.6-1.3,0c-0.7-1.1-1-2.3-1.2-3.5c-0.2-1.3-0.3-2.4-0.4-3.7c-0.1-1-0.3-1.8-0.6-2.8
		c-0.6-1.9-1.3-4-1.8-5.9c-0.3-1.1-0.9-1.6-1.9-1.8c-1.5-0.4-2.8-0.8-4.2-1.4c0-0.2-0.1-0.4,0-0.5c0.4-0.4,0-1.1,0.4-1.3
		c0.6-0.3,1.2,0,1.7,0.2c0.8,0.2,1.5,0.6,2.1,1s1.3,0.7,1.9,0.9c0.6,0.1,0.8,0.4,1,1c0,0.2,0.1,0.4,0.1,0.5c0.5,2.2,1.5,4.4,2.7,6.4
		C81.3,97.8,82.6,100,83.8,102.1z M78.9,90.6c0.1,0,0.3,0,0.3,0c1,0.7,1.8,1.5,2.1,2.7c0.2,1.2,0.5,2.3,1,3.4c0.1,0.2,0,0.4-0.2,0.5
		c-0.1,0-0.3,0-0.3-0.1c-1.3-1.8-2.4-3.8-3.1-5.9C78.6,91,78.6,90.8,78.9,90.6z M83,99L83,99c0.1,0.1,0.2,0.1,0.3,0.2
		C83.2,99.1,83.1,99,83,99z M87.3,101.7c-0.2,0.1-0.3,0-0.5-0.1c-0.6-0.4-0.9-1.1-1.6-1.4c-0.1-0.7-0.6-1-0.9-1.5
		c-0.8-1.1-1.5-2.1-1.8-3.4c0-0.1,0-0.3,0.1-0.3c0.1-0.2,0.3-0.1,0.5,0c0.7,0.7,1.5,1.5,2.1,2.1l0,0c0.1,0.1,0.3,0.4,0.5,0.1
		c0,0-0.2-0.2-0.3-0.3c-0.5-1.3-1.5-2-2.4-2.9c-0.3-0.2-0.9-0.4-0.6-0.9c0.2-0.3,0.7,0,1,0c0.4,0.1,0.8,0.2,1.2,0.3
		c0.5,0.7,1.1,1.4,1.7,1.7c0.1,0.7,0.5,1.2,1.1,1.5c0,0.1,0,0.2,0.1,0.4c0.2,0.9,0.2,0.9-0.8,1c-0.1,0-0.1,0.1-0.2,0.2
		c0.3,0.7,0.9,1.3,1,2c0.1,0.4,0.2,0.7,0.2,1.1C87.6,101.5,87.5,101.7,87.3,101.7z M85.5,83.1c-0.3-1.2-0.3-1.7,0-2.7
		c0.2-0.5,0.3-0.9,0.5-1.4c0.3,0.2,0.6,0.4,0.6,0.8C86.6,80.8,86.2,82.1,85.5,83.1z M87,76.7c-0.2,0.7-0.4,1.3-0.9,1.7
		c-0.1,0.2-0.2,0.4-0.2,0.7c-0.4,0-0.7,0.3-0.8,0.6c-0.4,0.6-0.6,1.4-0.6,2c0,0.5,0,1.1,0,1.6s0,1-0.1,1.5s-0.2,1.2-0.8,1.3
		c-0.8,0.1-1.5-0.5-1.7-1.3c-0.1-0.3,0-0.6,0-0.9c0.1-0.4,0.2-0.8,0.4-1.2c1.3-3.1,2.4-6.2,3.7-9.2c0.7-1.6,1.3-3.3,1.7-5
		c0.7-2.8,1.6-5.5,2.6-8.3c0.5-1.5,1.3-3,2.2-4.3c0.6-0.7,0.9-1.5,0.9-2.4c0-1,0.1-1.8,0.4-2.8c1.5-0.1,2.1,0.2,1.5,2.1
		c-0.6,1.5-1.1,3.1-1.6,4.6c-2.2,5.1-3.9,10.3-5.4,15.7C87.7,74.3,87.4,75.5,87,76.7z M105.6,28.2c-0.1,0.4-0.2,0.8-0.3,1.2
		c-1.3,2.9-2.3,6-3.3,9c-0.8,2.5-1.6,4.9-2.5,7.4c-0.6,1.5-1.2,3.1-1.8,4.6c-0.9,1.8-1.5,3.7-2,5.7c-0.7,3-1.6,5.9-2.8,8.8
		c-1.4,3.1-2.5,6.3-3.4,9.5C89.2,75,89.2,75.5,89,76c-0.3,0.7-0.7,1.2-0.9,0.9c-0.3-0.4,0-0.8,0.1-1.2c1.6-5.5,3.2-11.1,5.5-16.4
		c0.9-2.1,1.6-4.3,2.4-6.5c0.3-1,0.6-1.9-0.5-2.7c-0.3-0.2-0.1-0.4,0.1-0.6s0.3-0.4,0.4-0.6c0.4-0.2,0.6-0.5,0.8-0.9
		c1.4-2.7,2.7-5.3,4-8c1.1-2.3,1.9-4.8,2.3-7.3c0.2-1,0.5-1.8,1-2.6C104.3,29.2,104.8,28.5,105.6,28.2
		C105.5,28.2,105.6,28.2,105.6,28.2L105.6,28.2z M105.6,27c-0.1,0.2-0.3,0.4-0.5,0.5c-1.5,1.3-2.4,2.9-2.7,4.8
		c-0.6,3.4-1.8,6.6-3.4,9.7c-0.9,1.7-1.7,3.5-2.6,5.2c-0.3,0.5-0.6,1-0.5,1.6c-0.2,0-0.3-0.1-0.5-0.1c-0.3-0.1-0.6-0.3-0.5-0.6
		c0.1-0.5,0.2-1.1,0.4-1.5c0.8-1.9,1.5-3.9,2.3-5.7c1.2-2.6,2.2-5.2,3-7.9c0.5-1.6,1.1-3.3,1.6-4.8c0.2-0.6,0.5-1.3,1-1.6
		c0.6-0.6,1.8-0.5,2.3,0.3C105.6,26.7,105.6,26.9,105.6,27z M125.1,24.2c-0.4,0.1-0.4-0.3-0.6-0.6c-0.4-0.4-0.8-0.5-1.3-0.6
		c-1.5-0.4-3.1-0.8-4.6-1.1c-1.7-0.3-3.4-0.1-5.1,0.4c-0.4,0.1-0.7,0-0.8-0.5l0,0c1.2-1.2,2.1-2.7,3.4-3.8c0,0,0.1-0.1,0.1-0.2
		c0.1-0.1,0-0.2-0.1-0.3c0,0-0.1-0.1-0.2,0c-0.3,0.1-0.6,0.3-0.8,0.4c-1.2,1.1-2.1,2.1-2.8,3.6c-0.4,0.3-0.8,0.6-1,1.1
		c-0.1,0.2,0.1,0.5,0.3,0.5c0.7,0.1,1.3,0,1.9-0.2c1.9-0.7,4-0.6,5.9-0.2c1.1,0.3,2.2,0.5,3.3,0.8c0.3,0.1,0.6,0.2,0.8,0.4
		c0.2,0.2,0.2,0.6,0,0.8c-0.3,0.3-0.8,0.4-1.2,0.5c-4.5,0.4-9.1,1.4-13.7,1.3c-1.1,0-2.1-0.1-3-0.8c-0.2-0.1-0.4-0.2-0.7-0.3
		c-1.2-0.5-2-0.2-2.8,0.9c-0.4,0.6-0.6,1.2-0.9,1.7c-0.6,1.7-1.2,3.5-1.7,5.2c-0.8,2.5-1.7,5-2.8,7.4c-1.2,2.6-2.3,5.3-3,8.1
		c-0.1,0.6-0.3,1.2-0.2,1.7c-0.5,0-0.7,0.4-0.9,0.8c-0.3,0.7-0.2,1.4-0.2,2.1c0,0.8-0.2,1.4-0.7,1.9c-1.2,1.5-1.9,3.1-2.5,4.8
		c-1,2.8-1.9,5.6-2.6,8.4c-0.4,1.5-1,2.9-1.5,4.4c-1.4,3.2-2.6,6.4-3.9,9.6c-0.2,0.4-0.2,0.8-0.3,1.2c-0.1,1.4,0.2,2,1.5,2.5
		c0.9,0.4,1.3,1,1.5,1.8c0.2,1.3,1,2,2.2,2.2c1.1,0.2,1.6,0.9,2,1.7c0.2,0.3,0.3,0.7,0.3,1c0.2,1.3,0.6,2.4,1.6,3.2
		c0.3,0.3,0.6,0.7,0.3,1.1c-0.2,0.3-0.8,0.5-1.3,0.3c-0.4-0.2-0.8-0.4-1.1-0.6s-0.6-0.5-1-0.4c0.1-0.8-0.3-1.3-1.1-1.5
		c-0.3-1.3-0.6-1.5-1.7-1.7c0-0.6-0.5-0.9-1-0.9c-1.5-0.2-2.5-1.1-3.5-2.1c-0.6-0.7-1.4-1.2-1.9-1.7c-0.5-0.4-0.8-0.9-0.7-1.5
		c0.4-0.1,0.7-0.5,0.9-0.9c2.2-4,4.3-8.1,4.9-12.7c0.4-2.4,1.2-4.6,2.3-6.8c1.8-3.4,3-7.1,4.2-10.7c1-3.2,2-6.3,3.4-9.4
		c2-4.4,3.6-9.1,5.3-13.7c1.2-3.2,2.3-6.5,3.5-9.7c0.1-0.3,0.2-0.6,0.3-0.9c0.3-0.7,0.8-1.3,1.5-1.3c2-0.2,3.2-1.5,4.1-3.1
		c1.2-2.2,0.7-1.9,3.6-2.7c1.5-0.4,2.8-0.8,4.3-1.2c0.2-0.1,0.5-0.1,0.7-0.2c0.5-0.1,1-0.3,1.4,0.1c0.4,0.4,0,0.9-0.1,1.4
		c-0.1,0.3-0.4,0.6-0.4,1c0,0.1,0.1,0.1,0.1,0.1s0.1,0,0.2,0c0.1-0.1,0.2-0.1,0.3-0.2c0.2-0.4,0.5-0.8,0.7-1.3
		c0.2-0.4,0.1-1.1,0.6-1.3c0.5-0.3,0.8,0.4,1.2,0.6c0.3,0.2,0.7,0.2,1.1,0.2c1.4,0.2,2,1.3,1.6,2.5c-0.1,0.5-0.4,0.9-0.6,1.3
		s-0.5,0.7-0.7,1.1c-0.6,1-0.2,1.7,0.9,2c0.7,0.2,1.3,0,1.9-0.3c0.3-0.1,0.6,0,0.7,0.3c0.2,0.5,0.3,1.1,0.4,1.5
		C125.4,23.6,125.5,24.1,125.1,24.2z"/>
</g>
</svg>
