<svg xmlns="http://www.w3.org/2000/svg" xmlns:xlink="http://www.w3.org/1999/xlink" viewBox="0 0 1292 1025"><defs><style>.cls-1{fill:none;}.cls-2{isolation:isolate;}.cls-3{fill:#a56f19;}.cls-4{opacity:0.08;}.cls-5{clip-path:url(#clip-path);}.cls-6{fill:#a2751f;}.cls-7{clip-path:url(#clip-path-2);}.cls-8{clip-path:url(#clip-path-3);}.cls-9{clip-path:url(#clip-path-4);}.cls-10{clip-path:url(#clip-path-5);}.cls-11{clip-path:url(#clip-path-6);}.cls-12{clip-path:url(#clip-path-7);}.cls-13{fill:#a1751f;}.cls-14{clip-path:url(#clip-path-8);}.cls-15{fill:#ebb127;}.cls-15,.cls-16{opacity:0.24;}.cls-16{mix-blend-mode:screen;}.cls-17{clip-path:url(#clip-path-9);}.cls-18{clip-path:url(#clip-path-10);}</style><clipPath id="clip-path"><rect id="SVGID" class="cls-1" x="649.54" y="287.1" width="536.04" height="409.5" transform="translate(-79.84 193.48) rotate(-11.54)"/></clipPath><clipPath id="clip-path-2"><rect id="SVGID-2" data-name="SVGID" class="cls-1" x="217.52" y="118.63" width="223.3" height="170.58" transform="translate(-57.18 178.08) rotate(-27.95)"/></clipPath><clipPath id="clip-path-3"><rect id="SVGID-3" data-name="SVGID" class="cls-1" x="225.51" y="173.2" width="170.59" height="223.3" transform="translate(-104.45 357.67) rotate(-52.45)"/></clipPath><clipPath id="clip-path-4"><rect id="SVGID-4" data-name="SVGID" class="cls-1" x="178.11" y="269.08" width="223.3" height="170.59" transform="translate(-120.7 151.72) rotate(-24.45)"/></clipPath><clipPath id="clip-path-5"><rect id="SVGID-5" data-name="SVGID" class="cls-1" x="234.74" y="311.53" width="170.59" height="223.3" transform="translate(-156.63 656.18) rotate(-78.95)"/></clipPath><clipPath id="clip-path-6"><rect id="SVGID-6" data-name="SVGID" class="cls-1" x="173.73" y="414" width="223.3" height="170.59" transform="translate(-29.54 18.09) rotate(-3.45)"/></clipPath><clipPath id="clip-path-7"><rect id="SVGID-7" data-name="SVGID" class="cls-1" x="2281.76" y="1367.68" width="103.56" height="135.56" transform="translate(259.05 3224.99) rotate(-72.38)"/></clipPath><clipPath id="clip-path-8"><rect class="cls-1" width="1292" height="1027"/></clipPath><clipPath id="clip-path-9"><rect id="SVGID-8" data-name="SVGID" class="cls-1" x="496.2" y="623.96" width="725.19" height="670.24"/></clipPath><clipPath id="clip-path-10"><rect id="SVGID-9" data-name="SVGID" class="cls-1" x="621.94" y="626.28" width="588.82" height="626.41" transform="translate(-4.11 4.03) rotate(-0.25)"/></clipPath></defs><title>bg-imprensa</title><g class="cls-2"><g id="Layer_1" data-name="Layer 1"><rect class="cls-3" width="1291.53" height="1024.94"/><g class="cls-4"><g class="cls-5"><path class="cls-6" d="M1094.13,1836.7q-181.41,7.86-274.49-219.15l-3.52-81.08Q808,1349.74,1028,1262.29a371.93,371.93,0,0,1,67.5-9.57q206.68-9,294.78,210.93a372.74,372.74,0,0,1,9.58,67.5l.61,14q8.77,202.68-225.21,288.08Zm251.2-303.19q-6.94-160.15-199.38-221.73-38.52,1.67-48.13-4.58-154.18,6.69-216,178.49-12.14,27.15-10,75.67,8.41,194.06,246.56,219.69,186.75-8.1,227.57-233.58ZM1238.12,934.25l-305,13.23q-49.85,2.14-54.72-18.27l-.87-19.94q-.62-13.95,12.69-14.53l311.69-13.51,40.25-8.41q41.14,12.21,41.72,25.5l.29,6.64q-9.45,27.69-46,29.29"/><path class="cls-6" d="M504,1460.66,443.34,1473q-28.66,5.85-230.73-448.5Q22,639.78,14.84,604.59l17.41-17.81,20.22-4.13Q77.88,577.46,213.38,892l14.37,3.85,7.17-1.47q44.79-216.21,64.43-229.72l20.22-4.13q13.68-2.79,150,186l13-2.66q8.52-350.7,32-355.48l20.22-4.13q9.76-2,24.33,16.08-33.87,928.2-43.44,951.21Zm-44.55-81.88q22.51-368.52,13.22-414.13Q348.09,780.29,330.49,783.88q-34.28,104.77-57.92,228.4,165.93,357.2,186.84,366.5"/><path class="cls-6" d="M122.56,1541.23.68,1566.12Q-116,1589.93-209.89,1432.59l-8.25-40.41q-15.57-76.26,48.33-178.92-189.12-61.87-226.13-243.06-40.44-198.12,173.39-324.61Q-142.4,622.42-102,614.18q54.9-7.12,58.22,9.17l182.42,893.56q2,9.78-16.08,24.32m-47.73-60.86-53.89-264q-10.62-18.89-44.53-12-165.73,52.85-137.66,190.37,55.11,143.54,212.83,111.34,25.38-15.35,23.25-25.79M3,1128.42-86.84,688.48q-8-19.41-51.7-10.49-243,86.94-200.51,294.86,32.73,160.33,228.13,186.29a232.89,232.89,0,0,0,55.43-4.52l47.58-9.71Q5.36,1140.16,3,1128.42"/></g></g><g class="cls-4"><g class="cls-7"><path class="cls-6" d="M490.91,549.27Q424.09,584.73,348.42,516l-15.85-29.87q-36.49-68.78,30.55-141.06a154.74,154.74,0,0,1,23.68-15.69Q462.93,289,535.45,355.93a155.42,155.42,0,0,1,15.69,23.67l2.73,5.14q39.61,74.65-33.09,148.69Zm40.16-159q-31.31-59-114.7-47.68-14.19,7.53-18.92,6.91-56.79,30.13-49.26,105.81.3,12.39,9.78,30.26Q395.91,557,490.05,524q68.79-36.5,43.75-128.61ZM383.4,184.08,271,243.7q-18.36,9.74-23.85,2.93l-3.9-7.35q-2.72-5.13,2.17-7.73l114.81-60.92,13.63-10.37q17.66-2.79,20.26,2.11l1.29,2.45q1.41,12.1-12.05,19.26"/><path class="cls-6" d="M279,658.9,256.22,671q-10.77,5.71-145-152.06Q-10.22,387.6-17.23,374.39l4.86-9.17,7.59-4q9.56-5.06,100.71,104.67l6.2-.15,2.69-1.43q-7.54-91.68-1.29-99.38l7.59-4q5.14-2.73,81.82,56.65l4.89-2.6Q160,273.78,168.77,269.1l7.59-4q3.67-1.95,11.62,3.56,95.72,374.9,94.6,385.22Zm-27.44-27.47q-34.36-149.91-43.46-167-71.46-59-78.08-55.51A776.32,776.32,0,0,0,133.74,507Q242.1,630.17,251.54,631.43"/><path class="cls-6" d="M136.06,736,90.28,760.28q-43.8,23.25-99.86-28.57l-8-15.18q-15.2-28.63-1.74-77.18-82.87-2.46-119-70.51-39.48-74.42,31.08-150.13Q-78,400-62.79,392q21.09-9.3,24.34-3.19l178.07,335.6q1.95,3.68-3.56,11.61m-26.23-18.7L57.22,618.15q-6.48-6.28-19.2.47-60,40.62-32.61,92.27,38.92,50.88,98.16,19.44,8.34-9.12,6.26-13M39.69,585.11-48,419.88q-5.49-6.81-21.89,1.89-86.86,63.35-45.42,141.43,32,60.21,113.09,47.59a96.72,96.72,0,0,0,21.62-8.33L37.27,593q4.75-3.47,2.42-7.87"/><path class="cls-6" d="M290.41-115.92,285-113.06q-14.19,7.53-136.41-140.62-77.94-86-82.35-83.67l-2.69,1.43q61.84,235.4,54.74,239.16l-2.69,1.43q-10.77,5.72-106-108.75Q5-206.94-55.85-276q-8.09,4.29,44,193.44Q17.24,29,8.66,33.58L.59,37.87q-3.91,2.07-12.24-3.55-97.41-378.09-95-386.57l8.08-4.29q11,.1,165.92,176.72l5.39-2.85Q15.1-407.76,18-421.84l2.7-1.43q12-6.36,87.9,87.63,3.6.27,184.33,204.91l1.43,2.69q1.95,3.67-3.92,12.12"/></g></g><g class="cls-4"><g class="cls-8"><path class="cls-6" d="M63.62,575.24q-60-46.1-28.84-143.45L55.39,405q47.44-61.73,141-30.69a154.48,154.48,0,0,1,24.1,15Q288.84,441.84,258,535.59a155.59,155.59,0,0,1-15,24.09l-3.55,4.62q-51.51,67-149,31.54ZM225,545.84q40.71-53-4.18-124.15-12.74-9.79-14.13-14.36-51-39.18-116.71-.94-11.14,5.42-23.48,21.45Q17.17,492,86.26,564,148,611.44,221.44,550.45ZM351.35,326,250.51,248.45Q234,235.78,238,228l5.07-6.59q3.54-4.62,7.94-1.24l103,79.21,15.09,8.1q9.86,14.93,6.48,19.31l-1.69,2.2q-10.44,6.3-22.53-3"/><path class="cls-6" d="M-124,427.86l-20.43-15.71q-9.66-7.42,78.24-195Q2.92,52.2,12,40.32L22.4,41l6.81,5.24q8.57,6.59-53.48,135l2.71,5.57,2.42,1.86q80.28-44.88,89.89-42.38l6.82,5.23q4.62,3.56-17.62,98l4.39,3.38q112.74-93,120.64-86.92l6.81,5.24q3.28,2.52,1.58,12Q-108.08,425.78-117.94,429Zm13.62-36.37q122.16-93.44,134-108.82,24.08-89.51,18.13-94.06A772.94,772.94,0,0,0-46,232.69q-67.18,149.69-64.41,158.8"/><path class="cls-6" d="M585.78,116.94l-4.84-3.72q-12.74-9.78,71.39-182.44,45.95-106.6,42-109.64l-2.41-1.85Q503.34-26.81,497-31.71l-2.41-1.86q-9.68-7.43,55-141.57.69-5.42,38.31-89.39-7.26-5.58-157.78,120.23Q340.59-71.53,332.9-77.44L325.65-83c-2.34-1.79-3-6-1.84-12.6Q627.45-341,636.17-342.38l7.25,5.57q4.49,10.08-92,224.27l4.83,3.71q180.93-145.79,194.92-149l2.42,1.86q10.77,8.28-43.28,116.32,1.25,3.41-110,252.72l-1.86,2.41q-2.53,3.3-12.65,1.46"/></g></g><g class="cls-4"><g class="cls-9"><path class="cls-6" d="M149.4-.21q68.86-31.3,140.2,41.89l14,30.77q32.24,70.89-39.1,138.94a155.85,155.85,0,0,1-24.59,14.22q-78.45,35.67-146.75-35.55a155.49,155.49,0,0,1-14.23-24.59l-2.41-5.3q-35-76.92,42.12-146.39ZM99.61,156.07q27.65,60.8,111.58,54.59,14.63-6.66,19.3-5.74Q289,178.31,286.12,102.31q.45-12.37-7.92-30.8Q244.72-2.14,148.71,25.07,77.83,57.31,97.2,150.77Zm134.81,214.8L350.2,318.22q18.92-8.6,24-1.47l3.44,7.57q2.42,5.3-2.64,7.59L256.69,385.7l-14.25,9.53q-17.79,1.69-20.09-3.35l-1.14-2.52q-.68-12.18,13.21-18.49"/><path class="cls-6" d="M367.62-96.69l23.46-10.67q11.1-5,135.44,160.63,113.21,138.49,119.4,152.11l-5.41,8.84-7.83,3.56q-9.82,4.47-94.13-110.62l-6.19-.22-2.78,1.26q1.95,92-4.77,99.28L517,211q-5.29,2.41-78.21-61.54l-5,2.3Q462.92,295,453.84,299.1L446,302.66q-3.76,1.72-11.37-4.26Q362-81.64,363.73-91.88Zm25.72,29.1Q418.5,84.14,426.52,101.79q67.73,63.27,74.54,60.17a773.69,773.69,0,0,0,2.26-98.14Q402.69-65.77,393.34-67.59"/><path class="cls-6" d="M515-164.91l47.17-21.46q45.15-20.52,97.93,34.62l7.11,15.64q13.42,29.52-3,77.15,82.56,7.51,114.45,77.64,34.86,76.68-40.19,148-30.37,16.86-46,24-21.63,8-24.49,1.7L510.72-153.54Q509-157.33,515-164.91m25,20.26L586.49-42.48q6.07,6.67,19.19.71,62.39-36.88,38.18-90.12Q608.12-185,547.07-157.28q-8.87,8.59-7,12.63M602-8.43,679.4,161.84q5.05,7.14,22-.55,90.55-57.91,54-138.39-28.22-62.05-110-54.41a97,97,0,0,0-22.08,7l-18.42,8.37c-3.3,2.11-4.26,4.69-2.89,7.71"/><path class="cls-6" d="M841.91-313.57l8.49,5.28,2.41,5.29q1.79,5.28-32.51,45.68t-41.92,94.25q-7.62,53.85,9.12,90.68Q831,23.22,956.46,33.43q45.57-8.25,49-.67l2.41,5.29q1.61,3.54-4.13,11-64.32,29.25-172.9-32.8-39.12-31.81-57.7-72.69l-5.86-12.86Q710.41-194.4,831.57-308.86Z"/><path class="cls-6" d="M888.76-336.39l139.5-63.43q3.78-1.73,11.38,4.26l1.26,2.78q1.71,3.78-4.27,11.37l-108,49.09q-20.94,9.52-13.83,25.17l71.8,157.9q7.13,15.66,22.75,8.54l79-35.91q3.78-1.71,11.38,4.27l1.26,2.77q2.4,5.29-2.89,7.71l-55,25Q1001-117.71,1010.5-96.78l37,81.48q7.23,15.9,22.86,8.78L1183.68-58q3.78-1.71,11.37,4.27l2.41,5.3q1.8,8.63-17.63,17.45l-113,51.39q-19.17,8.71-24.49,1.7L884.5-325q-1.72-3.78,4.26-11.37"/><path class="cls-6" d="M308.92,676l5.55-2.52q14.63-6.65,127.58,148.69,72.54,90.6,77.09,88.54l2.77-1.27q-47.37-238.73-40-242.06l2.78-1.26q11.1-5,99.18,115,4.47,3.15,60.94,75.79,8.32-3.78-32.08-195.76Q590.44,548,599.27,544l8.32-3.78q4-1.83,12,4.29,74.14,383.32,71.23,391.65l-8.32,3.78q-11-.76-154.83-186.52l-5.55,2.52q43.78,228.2,40,242.06l-2.77,1.27Q547,1004.84,477,906.4q-3.58-.49-171.48-215.79l-1.26-2.76q-1.72-3.79,4.65-11.87"/><path class="cls-6" d="M645,522.58l5.3-2.41q4-1.83,11.62,4.16L820.85,874q2.4,5.29-2.89,7.71l-10.6,4.82q-5.29,2.4-7.7-2.89L640.68,534Q639,530.18,645,522.58"/><path class="cls-6" d="M703.72,495.86l139.5-63.43q3.78-1.73,11.38,4.26l1.26,2.78q1.73,3.78-4.26,11.37l-108,49.09q-20.94,9.52-13.83,25.17L801.6,683q7.13,15.65,22.75,8.53l79-35.9q3.78-1.73,11.38,4.26l1.26,2.77c1.61,3.54.64,6.1-2.89,7.71l-55,25q-42.14,19.15-32.61,40.1l37,81.48q7.23,15.88,22.87,8.78l113.26-51.5q3.78-1.72,11.38,4.26l2.4,5.3q1.8,8.63-17.63,17.45l-113,51.39q-19.17,8.72-24.49,1.7L699.46,507.23q-1.73-3.78,4.26-11.37"/><path class="cls-6" d="M893.19,412.45l26.24-11.93q95.09-43.23,160.44,34.19,10.92,16.67,15.85,27.5,22.38,49.2-11.06,121.62l106,122q2.4,5.3-2.9,7.71l-7.82,3.55q-11.1,5.06-110.25-110.59-5.06,2.29-7.46-3-52.8,29.79-50.17,35.59l51,112.26q6.2,13.62-.71,19.19l-7.81,3.56q-7.83,3.55-20.9-25.2L897.07,448.43q-14.22-31.28-3.88-36M917,429.94,996.58,605q3.17,4.95,7.7,2.89l13.12-6q64.58-29.35,61.5-100.41.33-12.63-8-31l-2.4-5.3Q1033.12,387.49,929,421.45Z"/><path class="cls-6" d="M1074.1,329l5.3-2.41q9-1,14.93,12.08l85.8,188.69,14.26-3.44L1349,453.58q15.63-7.11,8.52-22.75l-83.38-183.39q-1.73-3.78,4.26-11.38l5.3-2.41q3.78-1.71,11.37,4.27L1451.1,581q2,4.29-5.78,15.41-12.18.68-13.9-3.12l-50-110q-9.53-20.94-27.93-12.57l-7.82,3.56-41.88,19-60.29,27.41q-55,25-51.43,32.83l51.15,112.5q6.19,13.63-.59,19.45l-7.82,3.56q-5.29,2.4-7.71-2.89L1069.84,340.34q-1.72-3.76,4.26-11.37"/></g></g><g class="cls-4"><g class="cls-10"><path class="cls-6" d="M411.67,53q74.25,14.49,89.82,115.51L495,201.69q-14.92,76.43-112.52,90.4a155.57,155.57,0,0,1-28.27-2.7q-84.59-16.51-98.83-114.16a154.6,154.6,0,0,1,2.7-28.27l1.11-5.72q16.2-82.93,119.29-94.72ZM280.38,151.31q-12.79,65.55,59.15,109.24,15.77,3.07,19,6.54,63.1,12.32,104.88-51.23Q471,206,474.88,186.18q15.51-79.41-78.44-113Q320,58.26,281.5,145.6Zm-15,253.16,124.84,24.37q20.38,4,20.38,12.73l-1.6,8.17q-1.11,5.7-6.55,4.64l-127.56-24.9L257.79,429q-15.48-9-14.41-14.39l.53-2.72q6.53-10.31,21.49-7.38"/><path class="cls-6" d="M645.36,101.17l25.3,4.94q12,2.34,17,209.42Q699.39,494,696.51,508.7L687,512.76l-8.44-1.65q-10.6-2.07-12.39-144.72l-4.91-3.78-3-.58q-51.83,76-61.54,78l-8.43-1.64q-5.71-1.11-27.93-95.52l-5.44-1.06q-59.4,133.53-69.18,131.61l-8.43-1.65q-4.08-.8-6.79-10.07Q632,110.14,639.39,102.83Zm4,38.62Q581.76,277.92,578.05,297q18.41,90.84,25.75,92.27a774.55,774.55,0,0,0,58.82-78.58q-6.68-163.93-13.22-170.86"/><path class="cls-6" d="M805,131.21l50.86,9.93q48.68,9.5,59.63,85.05l-3.3,16.86q-6.21,31.82-47.22,61.08Q927.77,358.19,913,433.8q-16.14,82.68-118.63,97.11Q759.85,527,743,523.7q-22.26-6-20.93-12.84L794.87,138q.79-4.08,10.08-6.78m8.62,31L792.06,272.4q1.07,9,15.22,11.72,72.19,6.19,83.4-51.19,1.77-64-64-76.88-12.23,1.84-13.07,6.2M784.89,309.11,749.05,492.7q0,8.74,18.2,12.31,107.36,5.43,124.3-81.33,13.07-66.92-57.93-108.16a97.34,97.34,0,0,0-22-7.13l-19.86-3.87q-5.87-.3-6.83,4.59"/><path class="cls-6" d="M1157.43,200l3.84,9.22-1.11,5.71q-1.62,5.34-53,18.31t-88.86,52.39q-37.48,39.42-45.24,79.12Q952.94,467.86,1049.18,549q41.89,19.76,40.29,27.92l-1.11,5.71q-.75,3.81-9.76,6.56-69.35-13.54-121.71-127.1-13.38-48.63-4.77-92.69l2.71-13.88q26.34-134.88,191.45-157.71Z"/><path class="cls-6" d="M1208.82,208.65,1359.22,238q4.08.79,6.79,10.08l-.59,3q-.8,4.08-10.07,6.78l-116.41-22.73q-22.57-4.39-25.86,12.46l-33.25,170.25q-3.28,16.88,13.57,20.16l85.13,16.62q4.08.8,6.78,10.08l-.58,3q-1.12,5.71-6.83,4.59l-59.29-11.57q-45.42-8.88-49.82,13.7l-17.16,87.85q-3.35,17.13,13.52,20.43l122.11,23.84q4.08.8,6.79,10.08l-1.12,5.71q-3.54,8.07-24.49,4L1146.6,602.51q-20.67-4-20.93-12.84l73.08-374.23q.8-4.08,10.07-6.79"/><path class="cls-6" d="M148.87,696.13l6,1.17q15.76,3.08,17.52,195.13,6.45,115.89,11.34,116.85l3,.58Q286.79,788,294.68,789.54l3,.59q12,2.32,13.95,151.23,1.8,5.16,5.6,97.09,9,1.75,87.56-178,47.61-105,57.13-103.2l9,1.76q4.35.84,7.27,10.45Q315.92,1124.6,308.72,1129.68l-9-1.75q-8.5-7-17.73-241.76L276,885q-96.87,211.2-108,220.32l-3-.58q-13.32-2.61-13.17-123.42-2.62-2.48-14.29-275.25l.58-3q.8-4.08,10.67-7"/><path class="cls-6" d="M511.52,766.38l5.71,1.11q4.35.85,7.06,10.13l-73.61,377c-.74,3.8-3,5.34-6.82,4.59l-11.43-2.23q-5.71-1.11-4.59-6.83l73.6-376.95q.8-4.08,10.08-6.78"/><path class="cls-6" d="M574.89,778.75l150.4,29.37q4.08.79,6.78,10.07l-.58,3q-.79,4.08-10.08,6.78L605,805.24q-22.57-4.41-25.87,12.46L545.9,988q-3.3,16.88,13.56,20.16l85.13,16.62q4.08.8,6.79,10.08l-.59,3c-.74,3.8-3,5.34-6.82,4.59l-59.29-11.57q-45.42-8.88-49.83,13.7l-17.15,87.85q-3.35,17.13,13.51,20.42l122.12,23.85q4.08.79,6.79,10.08l-1.12,5.71q-3.56,8.05-24.49,4l-121.85-23.79q-20.67-4-20.92-12.84l73.07-374.24c.53-2.71,3.89-5,10.08-6.78"/><path class="cls-6" d="M777.57,820.87l28.29,5.52q102.52,20,110.76,121-.78,19.9-3.06,31.59-10.35,53-79.63,92.59l15.46,160.85q-1.11,5.71-6.83,4.6l-8.43-1.65q-12-2.34-25.53-154.06-5.45-1.07-4.33-6.78-60.3-6.4-61.52-.15l-23.63,121q-2.86,14.68-11.72,15.21L699,1209q-8.44-1.65-2.38-32.66l63.25-323.91q6.58-33.72,17.73-31.55m9.21,28-36.86,188.75q-.3,5.88,4.6,6.83l14.14,2.76q69.62,13.6,108.38-46,7.61-10.08,11.49-29.94l1.11-5.71Q906,881.81,801.45,849Z"/><path class="cls-6" d="M973.33,858l5.72,1.12q7.89,4.36,5.14,18.51L944.46,1081l13.61,5.49,166.72,32.55q16.86,3.29,20.15-13.57l38.61-197.73c.53-2.71,3.89-5,10.08-6.78l5.71,1.12q4.08.79,6.79,10.07l-72.23,369.89q-.9,4.62-13.65,9.19-10.3-6.52-9.51-10.61l23.16-118.58q4.41-22.57-15.45-26.45L1110,1134l-45.14-8.82-65-12.69q-59.29-11.58-60.93-3.14l-23.69,121.3q-2.87,14.69-11.77,15.49l-8.44-1.65q-5.71-1.12-4.59-6.83l72.81-372.87q.79-4.08,10.07-6.79"/><path class="cls-6" d="M1254,911.36l5.72,1.11c2.89.57,5.25,3.95,7,10.13l-73.6,377c-.75,3.8-3,5.34-6.83,4.59l-11.43-2.23q-5.7-1.11-4.59-6.82l73.6-377q.8-4.08,10.08-6.78"/><path class="cls-6" d="M1385.16,939.51l24.48,4.78q32.63,6.38,52.35,52.85l-1.59,8.17q-1.07,5.43-6.5,4.37l-8.16-1.59Q1420.62,969,1395,961.2q-65.26.25-75.15,50.83-10.46,53.58,86.87,136.4,44.63,49.08,33.53,105.93-13.23,67.71-95.39,80.75l-41.07-8q-49.5-9.67-63.31-83.52,1.35.27,9.22-3.84l5.44,1.06q30.33,63,68.68,70.44l2.73.53q61.73,12.06,92.2-64.44,11.42-58.47-82-132.61-45.91-57-39.43-90.14l5.84-29.92q31-65.08,81.92-55.15"/></g></g><g class="cls-4"><g class="cls-11"><path class="cls-6" d="M274.44,135.83q75.49-4.54,115.87,89.35l2,33.74q4.68,77.73-86.3,115.7A155.64,155.64,0,0,1,278,379.08q-86,5.19-124.27-85.78a154.49,154.49,0,0,1-4.46-28.05l-.36-5.81q-5.08-84.36,91.78-121.57ZM172,263.89q4,66.66,84.6,90.94,16-1,20.08,1.57,64.17-3.87,88.7-75.86,4.86-11.4,3.65-31.59-4.87-80.77-104.24-89.77Q187,163.88,171.6,258.07Zm48.87,248.84,127-7.66q20.76-1.24,22.93,7.23l.5,8.3q.35,5.8-5.19,6.14L236.3,534.56l-16.71,3.78Q202.37,533.55,202,528l-.17-2.76q3.75-11.61,19-12.53"/><path class="cls-6" d="M512.74,124l25.73-1.55q12.16-.73,68.88,198.5Q663.41,490.77,664.3,505.7L656.07,512l-8.57.52q-10.79.65-48.24-137l-5.7-2.43-3,.18q-31.15,86.57-40,91l-8.58.52q-5.8.36-51-85.48l-5.53.33q-24.07,144.15-34,144.74l-8.58.52c-2.76.17-5.8-2.51-9.09-8Q502.08,136,507.38,127.06Zm13.58,36.38Q495.44,311,496.6,330.37q40.56,83.34,48,82.88a772.72,772.72,0,0,0,37.28-90.81q-47.5-157-55.58-162.1"/><path class="cls-6" d="M674.77,113.08,726.49,110q49.51-3,79,67.41l1,17.15q2,32.35-30.42,71,74.37,36.6,79,113.5,5.07,84.09-90.54,123.72-34.41,4.86-51.55,5.89-23.07-.29-23.48-7.2L666.71,122.17c-.17-2.77,2.52-5.79,8.06-9.09M690.88,141l6.76,112q3.29,8.42,17.67,7.55,71.45-12.09,67.93-70.45Q768.92,127.67,702,131.7q-11.36,4.85-11.1,9.28m9,149.36,11.26,186.72q2.18,8.47,20.71,7.35,105.3-21.62,100-109.86-4.11-68-83.17-90.2A96.52,96.52,0,0,0,725.54,283l-20.19,1.21q-5.76,1.19-5.46,6.16"/><path class="cls-6" d="M1033.25,91.46l6,8,.35,5.8q-.23,5.56-46.71,31T920,209.2q-26.41,47.54-24,87.92Q902.34,402,1015.84,456.46q45.5,8.64,46,16.94l.35,5.8q.24,3.89-7.8,8.8-70.53,4.26-149.66-92.58-25.12-43.73-27.82-88.54l-.85-14.11q-8.28-137.19,145.86-200.63Z"/><path class="cls-6" d="M1085.17,86.94l153-9.23q4.14-.24,9.09,8.06l.18,3q.25,4.16-8.05,9.1L1121,105q-23,1.39-21.92,18.54l10.44,173.15q1,17.16,18.18,16.12l86.58-5.22c2.76-.16,5.8,2.52,9.09,8.06l.18,3q.36,5.81-5.46,6.16l-60.3,3.64q-46.18,2.78-44.8,25.74l5.39,89.34q1,17.43,18.2,16.4l124.19-7.49c2.77-.17,5.79,2.52,9.1,8.05l.35,5.81q-1.42,8.7-22.72,10l-123.92,7.47q-21,1.28-23.48-7.19L1077.11,96c-.17-2.76,2.52-5.8,8.06-9.09"/><path class="cls-6" d="M181,824.28l6.09-.37q16-1,65.82,184.53,35.25,110.6,40.24,110.28l3-.18q41.34-239.85,49.36-240.33l3-.19Q360.8,877.3,400,1021q3,4.54,29.74,92.59,9.13-.54,40.2-194.25,19.8-113.62,29.48-114.21l9.13-.55q4.41-.27,9.65,8.3Q450,1197.26,444.35,1204l-9.13.56q-10-4.66-77.7-229.62l-6.08.37q-40.9,228.72-49.36,240.33l-3.05.18q-13.54.82-43.64-116.18-3.16-1.76-82.77-262.91l-.18-3q-.25-4.15,8.59-9.4"/><path class="cls-6" d="M549.72,801.49l5.81-.35c2.94-.18,6.07,2.51,9.36,8L588,1192.55q.36,5.82-5.45,6.17l-11.62.7q-5.82.35-6.16-5.47L541.66,810.58c-.17-2.76,2.52-5.8,8.06-9.09"/><path class="cls-6" d="M614.17,797.6l153-9.22q4.14-.25,9.09,8.06l.19,3q.24,4.15-8.06,9.09L650,815.71q-23,1.38-21.93,18.54l10.45,173.15q1,17.16,18.18,16.11l86.58-5.22c2.76-.16,5.8,2.53,9.09,8.06l.18,3c.24,3.88-1.59,5.93-5.45,6.16l-60.31,3.64q-46.18,2.79-44.8,25.74l5.38,89.34q1.06,17.43,18.21,16.4l124.19-7.49q4.15-.26,9.1,8l.35,5.82q-1.42,8.68-22.72,10l-123.92,7.48q-21,1.26-23.48-7.19L606.11,806.69q-.25-4.14,8.06-9.09"/><path class="cls-6" d="M820.94,787.63l28.77-1.73Q954,779.6,987.24,875.32q4.23,19.45,5,31.35,3.25,53.94-53.92,109.58l55.25,151.85q.35,5.82-5.46,6.16l-8.58.52q-12.16.73-63.29-142.77c-3.7.23-5.65-1.6-5.89-5.47q-60,8.89-59.59,15.26l7.42,123.08q.9,14.94-7.54,17.67l-8.58.52q-8.57.51-10.47-31L811.67,822.61q-2.07-34.29,9.27-35m15.93,24.86,11.58,192q1.18,5.76,6.16,5.46L869,1009q70.82-4.26,93.4-71.7,4.85-11.67,3.63-31.87l-.35-5.8q-5.14-85.2-114.58-90.82Z"/><path class="cls-6" d="M1019.75,774.53l5.81-.35q8.75,2.25,9.61,16.63l12.48,206.9,14.55,1.9,169.56-10.22q17.15-1,16.11-18.19l-12.12-201.09c-.17-2.76,2.51-5.8,8-9.09l5.81-.35q4.16-.25,9.1,8.06l22.68,376.18q.28,4.71-10.92,12.32-11.61-3.74-11.85-7.89l-7.28-120.6q-1.38-23-21.57-21.74l-8.58.51-45.92,2.77-66.11,4q-60.3,3.63-59.78,12.21l7.44,123.37q.9,14.94-7.52,17.94l-8.58.52q-5.81.35-6.15-5.46L1011.7,783.62q-.26-4.14,8-9.09"/></g></g><path class="cls-1" d="M978.18,418.32,855.54,365.09q-15.42,88-38.59,249.3Q833.08,610.85,978.18,418.32Z"/><path class="cls-1" d="M1213.09,633.53q-27.27-11.68-39.49,2.32l-91.09,212.4q-3.6,8.4,15.06,25.71,126.9,54.42,198.13-56.6Q1343.16,706.71,1213.09,633.53Z"/><rect class="cls-1" width="1291.53" height="1031"/><g class="cls-4"><g class="cls-12"><path class="cls-13" d="M996.44,1241.43l-90.59-28.77q-2.4-.77-3.55-6.61l.56-1.76c.51-1.6,2.75-2.72,6.71-3.34l68.78,21.85q13.32,4.21,16.52-5.88l32-100.69q3.15-9.95-6.79-13.1l-50.34-16q-3.16-1.71-2.3-4.44l1.07-3.37c.71-2.24,2.19-3,4.44-2.29l43.61,13.85,3.36,1.07q13.32,4.21,16.52-5.88l23.42-73.75c.72-2.25,2.2-3,4.44-2.3l5.13,1.63c1.6.51,2.74,2.69,3.39,6.55L1003,1238q-.76,2.42-6.55,3.4"/><path class="cls-13" d="M785.44,1174.41l-1.68-5.82,1.07-3.37q1.35-3.1,33.23-7.36a110.6,110.6,0,0,0,57.23-25.42q25.35-21.17,32.78-44.58,19.29-60.77-33.1-116.41-23.9-14.82-22.36-19.64l1.07-3.36q.72-2.25,6.34-3.28,40.88,13,64.57,85.11,4.7,30.26-3.56,56.23l-2.6,8.18Q893.19,1174.21,792,1176.5Z"/><path class="cls-13" d="M756.65,1166.15l-13.47-4.28q-2.08-.66-52.77-134.49l-1.77-.56-4.25,7.83-29.74,93.64q-.76,2.4-8.31,2.83-5.93-4.71-5.15-7.11l70.57-222.22c.72-2.24,2.19-3,4.44-2.3l6.73,2.14c2.25.71,3,2.19,2.3,4.44l-27,85.13q-4.12,13,22.73,79.06,24.17,68.92,30.42,77.61l4.4-7.77,64.73-203.79c.71-2.24,2.14-3,4.27-2.35l6.74,2.14c2.24.72,3,2.2,2.29,4.44L763.2,1162.76q-.76,2.4-6.55,3.39"/><path class="cls-13" d="M1272.36,896.16l-3.2-1q-7.54-2.39,5.43-148.83-1.59-.51,4.34-76.46l-3.21-1Q1163.05,852.45,1157.59,858l-3.71.58-5-1.58q-2.42-.76-3.4-6.55,84-138.89,127.1-206.21l3.87-.53,14.75,4.68q7.55,2.4-1,77.69-7.07,153.44-11.81,168.34Z"/><path class="cls-13" d="M1119.73,847.68l-9.94-3.15q-6.35-4.49-22.24-115.62l-3.2-1q-3.61,1.32-82.76,80.5l-8.85-1-1.6-.51q-9.75-4.33-8.52-8.18l70.57-222.22c.72-2.25,2.2-3,4.44-2.3l6.73,2.14c2.25.71,3,2.19,2.3,4.43L1005.1,774.57,1003,786.78q5-.18,85.43-83.36l5,1.58q5.2,2.52,21.52,117.32l3.36,1.07,60.5-190.47q5.85-18.45,10.82-16.86l5.13,1.63q5,1.57-.88,20l-61,192.08q-6.36,20-13.09,17.9"/><path class="cls-13" d="M956.92,795.1,857,763.37q-2.4-.76-3.39-6.55,149-180.72,149.87-183.45l.51-1.6-85-27q-9.63-4.12-8.36-8.13l1.07-3.37c.51-1.6,2.7-2.73,6.55-3.39L1020,562.18q2.25.72,3.39,6.55L876.15,749.32l-1.07,3.37,7.83,4.25,78.24,24.85q2.4.76,3.39,6.55l-1.07,3.36q-.76,2.41-6.55,3.4"/></g></g><g class="cls-14"><path class="cls-15" d="M854.31,191.65Q669.65,226.24,668.9,242l-.7,14.83q-.33,7.17,13.74,15.49,92.43-17.59,171.44-32.79l2.47-48.11Z"/><path class="cls-15" d="M-254.27.88l1.93,15.35,8.49,9.64Q-233.18,38-47.23-66.72l8.59,3.49,3,3.42Q-94.94,64-90.29,78.08l8.49,9.64q5.74,6.52,144.65-35.65l5.47,6.21Q-59.75,235-49.9,246.2l8.48,9.64q4.1,4.65,18.15,1.18Q102.55,78.88,181.43-34.17l-26.26-30.1q-35.59,49.76-46.2,59-131.41,44.42-138.8,36Q-7.33-33.94,27.56-104,62-122.16,91.39-137.36L65.6-166.91Q36-151,2.39-132.6-237.41-13.83-254.27.88Z"/><path class="cls-15" d="M1266.22,131q9.45-11.93,42.3.13c3,1.58,6,3.16,8.88,4.76L1335,101.28q-27.2-11.64-44.77-18.1-41.94-12.42-47.2-1.93L1100.2,366.4l40.6,15.1Z"/><g class="cls-16"><g class="cls-17"><g class="cls-18"><path class="cls-6" d="M919.48,1252.68q155.78-.67,226.25-198.23l-.3-69.35q-.71-159.74-192.73-225.41a321.41,321.41,0,0,0-58.24-5.42Q717,755,650.5,946.32a317.28,317.28,0,0,0-5.45,58l.05,11.94q.76,173.36,204.76,236.71ZM691.84,1004.12q-.6-137,161.77-197.38,33.09-.13,41.06-5.86,132.39-.58,192.37,143.54,11.51,22.7,11.69,64.19.74,166-202.29,197.55-160.35.71-204.55-190.1ZM759.2,488.25l261.92-1.13q42.81-.19,46.15-17.83l-.08-17.05q0-11.94-11.46-11.88L788.1,441.52,753.26,436q-34.75,12.09-34.71,23.46l0,5.68q9.23,23.26,40.62,23.13"/><path class="cls-6" d="M1410.78,1245.42l53.07-.23q25.11-.11,115.16-415.45,92.61-355.12,92.47-385.81l-17.74-11.86-17.69.08q-22.26.09-80.92,286.84l-11.39,5.73-6.28,0q-75.51-173.06-94.37-180.92l-17.7.08q-12,.06-93.36,181.73l-11.41.05Q1252,433.82,1231.47,433.91l-17.7.07q-8.55,0-17.61,17.7,191.11,770.54,203.18,788.12Zm23.06-76.27q-83.5-304.32-83.68-344.11,72.27-176,87.68-176,47.15,81.66,88.67,181-76.76,327.76-92.67,339.19"/></g></g></g></g></g></g></svg>