<svg xmlns="http://www.w3.org/2000/svg" viewBox="0 0 44.57 44.69"><defs><style>.cls-1{fill:#7f4f0f;}</style></defs><title>Asset 3</title><g id="Layer_2" data-name="Layer 2"><g id="Layer_1-2" data-name="Layer 1"><path class="cls-1" d="M22.39,18.18a4.13,4.13,0,1,0,4.12,4.13,4.13,4.13,0,0,0-4.12-4.13"/><path class="cls-1" d="M27.5,11.68H17.07a5.4,5.4,0,0,0-5.39,5.4V27.54a5.4,5.4,0,0,0,5.39,5.4H27.5a5.4,5.4,0,0,0,5.39-5.4V17.08a5.4,5.4,0,0,0-5.39-5.4M22.39,28.76a6.45,6.45,0,1,1,6.44-6.45,6.44,6.44,0,0,1-6.44,6.45M29.2,17a1.54,1.54,0,1,1,1.53-1.53A1.53,1.53,0,0,1,29.2,17"/><path class="cls-1" d="M22.28,0A22.35,22.35,0,1,0,44.57,22.34,22.31,22.31,0,0,0,22.28,0M35.35,27.54a7.87,7.87,0,0,1-7.85,7.87H17.07a7.87,7.87,0,0,1-7.85-7.87V17.08a7.87,7.87,0,0,1,7.85-7.87H27.5a7.87,7.87,0,0,1,7.85,7.87Z"/></g></g></svg>