<?xml version="1.0" encoding="utf-8"?>
<!-- Generator: Adobe Illustrator 22.1.0, SVG Export Plug-In . SVG Version: 6.00 Build 0)  -->
<svg version="1.1" id="Layer_1" xmlns="http://www.w3.org/2000/svg" xmlns:xlink="http://www.w3.org/1999/xlink" x="0px" y="0px"
	 viewBox="0 0 919.1 367.7" style="enable-background:new 0 0 919.1 367.7;" xml:space="preserve">
<style type="text/css">
	.st0{fill:#FFFFFF;}
	.st1{fill:#D2A461;}
	.st2{fill:none;}
</style>
<path class="st0" d="M629.8,156.5c1.1,1.5,1.9,2.2,2.8,2.4c0.5,0.1,1.1,0,1.8-0.3c1.3-0.5,2.1-1.5,1.8-2.9
	c-0.7-3.7-1.5-7.5-2.2-11.2l-1.2-4l0,0l-0.1-0.2c-0.1,0.4,0,0.8,0.1,1.1c-0.1-0.4-0.1-0.7-0.1-1.1c-4.8-18.4-9.5-36.8-13.7-55.3
	c-1.9-8.6-4-17.1-6.9-25.4c-1.4-3.9-1.8-5-3.4-5.3c-1-0.2-2.5-0.1-4.9-0.1c-1.8,0-3,0.9-3.5,2.7c-0.8,2.8-1.6,5.5-2.3,8.3
	c-6.4,25.7-12.8,51.4-19.2,77.2c-1,4-2,8.1-2.9,12.1c-0.6,2.6,0,3.9,1.7,4.3c0,0,0,0,0,0c2,0.5,3.2-0.2,4.2-2.7
	c0.7-1.8,1.3-3.6,1.9-5.4c2.6-8.2,4.5-16.7,6.5-25c0.2-0.9,0.4-1.9,0.7-2.8c0.1-0.4,0.5-0.9,0.9-0.9c0.1,0,0.2,0,0.3,0
	c0.3,0.1,0.7,0.3,0.8,0.5c0.7,1.2,1.3,2.6,1.9,3.9c2.2,4.6,4.4,9.2,6.7,13.8c0.6,1.3,1.4,2.5,2.3,3.6c0.3,0.4,0.8,0.7,1.4,0.8
	c0.9,0.2,1.8-0.1,2.5-0.7c0.6-0.6,1.1-1.2,1.4-1.9c1.2-2.1,2.3-4.2,3.4-6.4c1.9-4,3.7-8.1,5.6-12.2c0.4-0.9,0.7-1.9,1.9-1.7
	c0,0,0,0,0.1,0c1.1,0.2,1.3,1.3,1.5,2.2c0.1,0.5,0.2,0.9,0.3,1.4c1.6,7.6,3.3,15.3,5.3,22.8l1.2,3.8L629.8,156.5
	C629.8,156.5,629.8,156.5,629.8,156.5z M603.9,128.2c-3.2-5.9-5.8-12.1-8.4-18.2c-0.9-2-0.4-4.1,0-6.1c1.5-6.7,3.1-13.4,4.7-20
	c1.4-5.6,2.9-11.1,4.4-16.6c0.1-0.5,0.3-0.9,0.6-1.3c0.1-0.1,0.5-0.1,0.7,0c0.1,0,0.1,0,0.1,0.1c0.5,1.1,1.1,2.3,1.5,3.5
	c3.7,11.9,6.4,24,9.4,36.1c0.4,1.4,0.4,2.8-0.3,4.2c-3,6.9-6.1,13.7-9.9,20.2c-0.2,0.3-0.4,0.4-0.7,0.7c0,0,0,0,0,0
	C604.9,130.2,604.4,129.1,603.9,128.2z"/>
<path class="st0" d="M373.8,107.2c0-15.5,0-31,0-46.5c0-1.4,0-2.9-0.1-4.3c-0.1-0.8-0.5-1.5-1.3-1.9c-2.1-1-4.4-0.8-6.6-0.3
	c-1.7,0.3-2,1.9-2.7,3.1c-0.6,1.1-1.2,2.3-1.8,3.4c-6.1,11.4-12.1,22.9-18.2,34.3c-0.7,1.3-1.1,3.4-3.1,3.2
	c-1.6-0.1-1.8-2.1-2.4-3.3c-4.8-9.4-9.5-18.9-14.3-28.2c-1.8-3.4-3.9-6.6-5.7-10c-1.3-2.4-3.3-3.2-6-3c-2.4,0.2-3.1,0.7-3.7,2.9
	c-0.7,2.5-0.7,5.1-0.7,7.6c0,28.3,0,56.6,0,84.9c0,1.3,0,2.6,0.1,3.8c0.2,1.4,0.5,2.8,0.8,4.2c0.2,1.1,1,1.5,2.1,1.6
	c2.2,0.2,3.4-0.5,3.6-2.8c0.3-2.5,0.4-5.1,0.4-7.7c0-26.1,0-52.1,0-78.2c0-1.6,0-3.2,0.1-4.8c0-0.4,0.2-0.9,0.7-1.1
	c0.6-0.2,1,0.2,1.2,0.5c0.8,1.4,1.5,2.8,2.2,4.3c4.5,9,9,18,13.5,27c1.7,3.4,3.7,6.7,5.6,10c0.6,1,1.3,1.9,2,2.7
	c1,1,2.5,0.8,3.3-0.4c0.7-1.1,1.2-2.2,1.8-3.4c5.9-11.7,11.7-23.5,18-34.9c0.8-1.5,1.8-3,2.8-4.4c0.1-0.2,0.5-0.3,0.8-0.2
	c0.3,0.1,0.6,0.3,0.7,0.5c0.8,2,0.6,4.1,0.6,6.1c0,26.6,0,53.1,0,79.7c0,1.4,0,2.9,0,4.3c0.1,2.5,0.4,2.8,2.8,2.9
	c2.8,0.1,3.3-0.4,3.4-3.3c0-1.1,0-2.2,0-3.4C373.8,137.3,373.8,122.2,373.8,107.2z"/>
<path class="st0" d="M495.7,144.5c-4.8-19.6-10.1-39-14.4-58.7c-1.7-7.8-3.7-15.6-6.1-23.2c-0.7-2.3-1.6-4.5-2.5-6.7
	c-0.5-1.1-1.3-1.8-2.6-1.8c-0.6,0-1.3,0-1.9,0c0,0,0,0,0,0c-0.6,0-1.3,0-1.9,0c-2.6,0.2-3.2,0.6-4,3.2c-0.5,1.7-1,3.4-1.4,5.1
	c-7.9,30.1-15.2,60.5-22.5,90.7c-0.3,1.1-0.4,2.2-0.5,3.3c-0.1,0.9,0.4,1.5,1.2,2c1.7,0.9,3.7,0.4,4.5-1.3c0.7-1.4,1.3-2.9,1.8-4.5
	c1.1-3.7,2.2-7.3,3.2-11.1c1.6-6,3-12.1,4.5-18.1c0.2-0.7,0.2-1.7,1.3-1.7c0.7,0,1,0.7,1.3,1.2c0.6,1.1,1.1,2.3,1.6,3.5
	c2.2,4.5,4.3,8.9,6.5,13.4c0.6,1.3,1.4,2.5,2.2,3.7c1,1.4,3.1,1.5,4.2,0.2c1-1.2,1.9-2.6,2.6-4c2.4-5,4.8-10.1,7.2-15.2
	c0.5-1.1,0.7-2.9,2.2-2.8c1.9,0.1,1.7,2,2,3.3c1.9,7.9,3.7,15.9,5.7,23.8c0.7,2.8,1.7,5.5,2.8,8.1c0.7,1.8,2,2.2,3.9,1.6
	c1.6-0.5,2.2-1.5,1.8-3.4C497.4,151.7,496.6,148.1,495.7,144.5z M478,111.5c-2.7,5.3-5.1,10.6-7.7,15.9c-0.5,1.1-1,2.4-2.2,3.1
	c-1.3-0.3-1.7-1.4-2.2-2.4c-3.2-5.9-5.8-12.1-8.4-18.3c-0.7-1.6-0.5-3.1-0.2-4.7c1.9-8.1,3.7-16.2,5.7-24.2
	c1.1-4.5,2.3-8.9,3.5-13.4c0.2-0.8,0.4-1.6,1.4-2c1.4,1.8,1.8,4,2.3,6.1c2.3,8.6,4.5,17.3,6.8,25.9c0.5,2,0.9,4.1,1.5,6
	C479.4,106.4,479.3,108.9,478,111.5z"/>
<path class="st0" d="M262.6,152.5c-1-4.2-1.9-8.4-3-12.6c-3.9-15.7-8.2-31.2-11.7-46.9c-2.3-10.3-4.7-20.5-7.9-30.6
	c-0.7-2.1-1.5-4.2-2.3-6.3c-0.5-1.3-1.6-2-3-1.9c-0.6,0-1.3,0-1.9,0c0,0,0,0,0,0c-0.5,0-1,0-1.4,0c-2.8,0.1-3.3,0.5-4.1,3.1
	c-0.6,2-1.2,4-1.7,6c-7.8,30-15.1,60.1-22.4,90.2c-0.2,0.8-0.5,1.5-0.6,2.3c-0.2,1.6,0.7,2.8,2.3,3.1c1.7,0.3,2.7-0.1,3.5-1.8
	c1.6-3.3,2.6-6.9,3.5-10.4c1.8-6.6,3.4-13.3,5-20c0.4-1.5,0.8-3.1,1.4-4.6c0.1-0.3,0.7-0.5,1.2-0.1c0.9,0.7,1.2,1.9,1.7,2.9
	c2.4,4.9,4.7,9.8,7.1,14.7c0.7,1.4,1.5,2.8,2.4,4.1c1,1.4,3.1,1.5,4.2,0.1c1-1.2,1.9-2.6,2.6-4c2.3-4.7,4.5-9.5,6.8-14.3
	c0.7-1.3,0.7-3.7,2.6-3.6c2.4,0.1,1.8,2.7,2.2,4.2c1.9,7.4,3.5,14.9,5.3,22.4c0.7,2.9,1.8,5.8,2.9,8.6c0.7,1.7,2.1,2.2,3.9,1.6
	c1.5-0.4,2.1-1.4,1.8-3.3C263,154.4,262.9,153.4,262.6,152.5z M244,109c-1.4,4.2-7.9,17.3-10.6,21.3c-1.3,0.2-1.6-0.8-2-1.6
	c-2.5-4.1-4.3-8.5-6.2-12.9c-3.4-7.8-3.5-7.8-1.6-16c2.5-10.7,5.3-21.3,8-32c0.2-0.9,0.7-1.7,1.1-2.6c1.5,1.2,1.7,2.9,2.1,4.4
	c3.6,11.9,6.5,24,9.3,36.1C244.3,106.9,244.4,107.9,244,109z"/>
<path class="st0" d="M565.2,84.2c-3.6-6.6-8.1-12.7-13.6-17.8c-5.7-5.3-12.3-9.2-19.9-11.1c-4.8-1.2-9.8-1.4-14.2-1.3
	c-3.3,0-6-0.1-8.7,0c-2.8,0.1-3.3,0.6-3.9,3.2c-0.6,2.8-0.9,5.7-0.6,8.6c0.2,3.2,0.5,6.4,0.5,9.6c-0.1,25.7,0.9,51.5-0.5,77.2
	c-0.2,4.2,1.6,6.3,5.9,6.3c4.6,0,9.3-0.1,13.9-0.6c4.3-0.4,8.6-1.1,12.5-3c8.2-4,15.8-9.2,21.9-16.1c5.6-6.2,9.3-13.4,10.5-21.7
	c1-6.8,0.9-13.7,0.1-20.6C568.5,92.5,567.3,88.1,565.2,84.2z M561.8,118.5c-2.5,7.7-6.4,14.6-11.9,20.6c-8,8.7-18.1,12.8-29.7,13.7
	c-1.9,0.1-3.8,0.2-5.8,0.1c-2.6-0.1-3.8-1.3-4.1-3.8c-0.2-1.4-0.1-2.9-0.1-4.3c0-12.8,0-25.6,0-38.4c0-13.1,0-26.2,0-39.3
	c0-1.4,0-2.9,0.2-4.3c0.3-1.9,1.3-2.8,3.1-3.1c0.5-0.1,1-0.1,1.4-0.1c6.4,0.3,12.7,0.9,18.6,3.8c6.5,3.2,12.7,6.7,17.9,11.9
	c8.3,8.2,12.2,18.2,12.5,29.7C564.3,109.5,563.2,114.1,561.8,118.5z"/>
<path class="st0" d="M427.8,152.9c-1.3-0.1-2.6-0.1-3.8-0.1c-8.6,0-17.3,0-25.9,0c-1.1,0-2.2,0-3.4-0.1c-2.4-0.2-3.7-1.5-4-4
	c-0.1-0.6-0.1-1.3-0.1-1.9c0-6.9,0-13.8,0-20.6c0-4.4,1.4-6.1,5.7-7c2.2-0.5,4.4-0.7,6.7-0.7c4.2-0.1,8.3,0,12.5-0.1
	c1.3,0,2.5-0.1,3.8-0.3c0.8-0.1,1.2-1.1,1-1.9c-0.4-1.3-1.3-2.2-2.7-2.4c-1.3-0.1-2.6-0.1-3.8-0.1c-5.9,0-11.8,0.1-17.7,0
	c-4-0.1-5.1-1.2-5.3-5.1c0-0.6,0-1.3,0-1.9c0-13.4,0-26.9,0-40.3c0-1.1,0-2.2,0.1-3.4c0.2-1.7,1.2-2.9,2.8-3.5
	c1.7-0.7,3.4-0.6,5.2-0.6c8.5,0,16.9,0,25.4,0c1.3,0,2.6,0,3.8-0.2c1.3-0.2,2.1-1.1,2.1-2.2c0.1-1.3-0.8-2.5-2.2-2.7
	c-1.1-0.1-2.2-0.1-3.3-0.1c-11,0-22.1,0.1-33.1,0c-6-0.1-6.3,1-6.3,6.2c0.1,15.5,0,31,0,46.5c0,15.2,0,30.4,0,45.6
	c0,1.3,0,2.6,0.1,3.8c0.1,1.5,0.9,2.4,2.3,2.7c0.8,0.2,1.6,0.3,2.4,0.3c12,0,24,0,36,0c0.8,0,1.6-0.2,2.4-0.4c1.2-0.3,2-1.3,1.9-2.4
	C430.2,154.5,429.2,153.1,427.8,152.9z"/>
<path class="st0" d="M158.4,80.5c0-1.1-0.2-2.2-0.6-3.3c-1.8-4.6-4-9-7.1-13c-3.5-4.5-7.9-7.9-13.5-9.5c-5.8-1.7-11.7-1.1-17.6-0.8
	c-0.5,0-0.9,0.2-1.4,0.4c-5,1.8-9.7,4.1-13.8,7.5c-5.1,4.2-8.3,9.6-9.6,16.1c-1.9,9.4-0.1,18.1,5.3,26c6.9,10.3,16.6,14.6,28.7,13.8
	c8.5-0.6,15.5-4.6,21.7-10.2c4.3-3.9,6.7-8.9,7.7-14.6c0.4-2.4,0.3-4.8,0.5-7.2c0,0-0.1,0-0.1,0C158.4,84.1,158.4,82.3,158.4,80.5z
	 M133.2,111c-4.6,1.3-9.2,0.9-13.7-0.6c-4.1-1.3-7.8-3.6-11.1-6.5c-6.9-5.9-10.1-16.1-6.7-24.8c1.3-3.4,2.6-6.9,4.9-9.8
	c6-7.8,13.8-11,23.6-8.9c2.7,0.6,5.3,1.3,7.8,2.4c9.6,4.2,14.5,11.7,14.5,22.2C152.4,96.4,143.7,108,133.2,111z"/>
<path class="st0" d="M67.4,54.1C66.2,54,65.1,54,64,54c-11.3,0-22.7,0-34,0c-5.9,0-6.1,0.2-6.1,6.3c0,15.3,0,30.7,0,46
	c0,15.3,0,30.7,0,46c0,1.3-0.1,2.6,0.1,3.8c0.2,2,1.5,2.8,3.8,2.7c1.7-0.1,2.2-0.7,2.2-2.9c0-1.1,0-2.2,0-3.4c0-8.5,0-16.9,0-25.4
	c0-1.1-0.1-2.2,0.1-3.4c0.3-2.9,1.7-4.2,4.6-4.6c1.1-0.1,2.2-0.1,3.4-0.1c5.3,0,10.5,0,15.8,0c1.1,0,2.2,0,3.4-0.1
	c1.2-0.1,2-1,1.9-2.3c0-1.2-0.8-2.2-2-2.3c-1.3-0.1-2.6-0.1-3.8-0.1c-6.1,0-12.1,0.1-18.2,0c-3.7-0.1-4.8-1.3-5.1-4.9
	c0-0.5,0-1,0-1.4c0-14.1,0-28.1,0-42.2c0-5,1.2-6.2,6.2-6.5c1,0,1.9,0,2.9,0c6.1,0,12.1,0,18.2,0c2.6,0,5.1,0,7.7,0
	c0.9,0,1.9-0.1,2.8-0.3c1.2-0.3,2.1-1.5,2-2.4C69.7,55.6,68.6,54.2,67.4,54.1z"/>
<path class="st0" d="M84.5,55.9c-0.2-1.3-1.4-2.2-2.8-2.2c-1.6,0-2.9,0.9-3.1,2.4c-0.1,1.3-0.1,2.6-0.1,3.8c0,15.5,0,31,0,46.5
	c0,15.5,0,31,0,46.5c0,1.3,0,2.6,0.1,3.8c0.1,1.4,0.6,1.9,2.1,2c3.3,0.2,3.8-0.2,3.9-3.7c0-0.8,0-1.6,0-2.4c0-7.7,0-15.4,0-23
	c0-23.2,0-46.4,0-69.6C84.7,58.8,84.7,57.3,84.5,55.9z"/>
<path class="st0" d="M146.1,152.6c-1.5-0.3-3.2-0.5-4.7-0.5c-10.1,0-20.1,0-30.2,0c-1,0-1.9,0-2.9,0.1c-1.1,0.1-2.2,0.5-3.1,1.3
	c-1.5,1.2-1.5,2.8,0.1,4c1.4,1,2.8,1.4,4.5,1.2c5.7-0.7,11.5-0.2,16.3-0.4c6.4,0,11.8,0,17.2,0c1.1,0,2.2,0,3.4-0.1
	c1.1-0.1,1.7-0.7,1.9-1.8C148.9,154.3,148.2,153.1,146.1,152.6z"/>
<path class="st0" d="M212.6,54.4c0.4,0.9,0.9,1.7,1.5,2.4c0.7,0.9,2,1,3,0.2c1.1-0.9,1.4-1.8,0.8-3.4c-2.4-6.2-4.8-12.5-7.2-18.7
	c-0.2-0.6-0.5-1.2-1-1.6c-0.8-0.7-1.7-0.7-2.7-0.4c-0.7,0.3-0.9,0.8-0.8,1.7c0,0.2,0,0.5,0.1,0.8C208,41.8,209.8,48.3,212.6,54.4z"
	/>
<path class="st1" d="M634.8,182.5c0.2,0,0.3,0,0.5,0c0,0,0,0,0,0c0.3,0,0.6,0,1,0c8.9-0.4,13.3-5.4,12.9-14.2
	c-0.1-1.4,0-2.9,0.2-4.3c0.8-5.2,4-8.6,8.2-11.2c2.4-1.5,5.1-2.7,7.6-4c2.2-1.1,4.1-2.4,5.8-4.2c1.7-1.8,2.8-3.9,2.3-6.5
	c-0.8-4,0.3-7.6,2.2-11c2.6-4.9,5.1-10,7.2-15.2c2.9-7.4,5.9-14.9,8.8-22.3c0.4-0.9,0.8-1.8,1-2.7c0.7-3.1-1.4-5.4-4.5-5.1
	c-2.1,0.3-3.9,1.3-5.5,2.7c-3.3,3.1-5.2,6.8-5.6,11.3c-0.2,2.1-0.1,4.1,0.3,6.2c0.7,3.3,0.6,3.5-2.3,4.7c-2,0.8-3.6,2.1-4.8,3.8
	c-2.6,3.8-5.8,6.7-9.4,9.5c-2.4,1.9-4.8,3.9-6.4,6.5c-1.9,3.2-4.1,5.6-8.1,5.8c-0.3,0-0.6,0.2-0.9,0.3c-4.8,1.9-6.9,6.4-5.3,11.3
	c0.4,1.2,1,2.4,1.6,3.5c0.9,1.9,0.9,3.7,0,5.5c-0.9,1.7-1.7,3.4-2.6,5.1c-2.8,5.4-4.7,11.2-5.9,17.2c-0.3,1.6-0.6,3.2-0.7,4.7
	C632.1,181.8,632.9,182.4,634.8,182.5z M634.5,177c0.1-0.7,0.3-1.8,0.6-2.9c1.4-6.1,3.6-11.9,6.6-17.5c0.5-1,1-2,1.6-3
	c1.4-2.3,1.5-4.5,0.1-6.8c-0.6-1-1.1-2-1.5-3c-1.7-4.4,0-8,4.4-9.6c0.5-0.2,0.9-0.4,1.4-0.4c3.4-0.1,5.5-1.9,7.1-4.8
	c1.5-2.9,3.9-5,6.5-7c3.9-3.1,7.6-6.4,10.4-10.6c1.1-1.7,2.7-2.7,4.7-2.9c0.6-0.1,1.3-0.2,1.9-0.4c1.3-0.5,2-1.6,1.7-3
	c-0.1-0.8-0.4-1.5-0.7-2.3c-1.6-5.3-0.6-10.1,2.4-14.6c1.2-1.8,2.7-3.1,4.7-3.9c1.1-0.4,2.2-0.7,3.1,0.2c0.8,0.7,0.8,1.7,0.6,2.7
	c-0.2,0.9-0.5,1.9-0.9,2.7c-3.4,8.5-6.7,17-10.2,25.4c-1.4,3.4-3.1,6.7-4.8,9.9c-2.2,4.2-3.9,8.4-2.8,13.3c0.4,1.9-0.5,3.4-1.7,4.8
	c-1.3,1.4-2.9,2.5-4.6,3.4c-1.9,0.9-3.7,1.8-5.6,2.8c-1.5,0.8-3.1,1.7-4.5,2.7c-5.5,3.9-8.2,9.2-8,16c0,1.3,0.1,2.6,0,3.8
	c-0.1,3-1.6,5.1-4.2,6.5c-1.8,1-3.8,1.7-5.9,1.9c-1.6,0.2-2.5-0.6-2.5-2.1C634.5,178,634.5,177.7,634.5,177z"/>
<path class="st1" d="M747.4,154.2c2.9,1.9,6.1,2,9.1,0.3c4.9-2.7,8.7-6.4,11.3-11.3c1.2-2.3,1.6-4.8,1.8-7.2c0-1.9-0.3-3.3-0.9-4.4
	c-0.7-1.2-2-1.7-3.3-1.2c-1,0.4-2,1-2.9,1.5c-5.4,3.3-10.9,6.7-16.3,10c-0.9,0.6-1.9,1.1-2.8,1.8c-2.8,2.2-2.9,4.9-0.3,7.3
	C744.4,152.3,745.9,153.3,747.4,154.2z M744.1,145.8c0.8-0.7,1.7-1.4,2.7-2c5.5-3.4,11.1-6.8,16.7-10.2c0.5-0.3,1.1-0.7,1.7-0.9
	c1.1-0.5,2.2,0.1,2.4,1.4c0.1,0.6,0.1,1.3,0.2,1.8c-0.3,2.6-0.8,5.2-2.1,7.4c-2.3,3.9-5.5,7-9.4,9.3c-2.7,1.6-5.4,1.6-8.1-0.1
	c-1.5-0.9-3-1.8-4.1-3.2C743,148.1,743,146.8,744.1,145.8z"/>
<path class="st1" d="M672.5,203c-2.4,2.5-3.6,5.6-3.5,9.1c0.1,2,1.5,3.2,3.5,3c3.3-0.3,4.9-2.4,4.8-7.2c-0.1-0.7-0.2-2.3-0.6-3.8
	C676.2,202.2,673.8,201.6,672.5,203z M674.6,212.1c-0.7,0.7-1.6,1.1-2.6,0.7c-0.9-0.3-1-1.2-1-2c0.1-2.1,0.8-4,2.1-5.7
	c0.4-0.5,1.5-0.4,1.6,0.2c0.3,1.4,0.6,2.8,0.8,3.5C675.5,210.5,675.3,211.4,674.6,212.1z"/>
<path class="st1" d="M607,255.3c-1.1,0-2.1,1-2.2,2.2c-0.1,1.7,0.8,3.2,2,3.4c1.1,0.1,2.3-1.4,2.4-3.1
	C609.5,256.4,608.3,255.3,607,255.3z"/>
<path class="st2" d="M868,71.1c0.3,0,1.1-0.1,1.8-0.3c4.7-1.6,9.4-3.2,14-4.8c0.4-0.2,0.9-0.4,1.2-0.7c0.5-0.4,0.8-1,0.6-1.7
	c-0.2-0.8-0.7-1.5-1.6-1.4c-1.1,0-2.3,0.2-3.1,1c-1.8,1.9-4.1,2.3-6.5,2.6c-1.7,0.2-3.4,0.6-5.2,0.8c-1.6,0.2-2.5,1.3-2.9,2.8
	C866.1,70.1,866.7,71,868,71.1z"/>
<path class="st2" d="M855.5,76.5c-0.5,0.2-0.7,0.7-0.6,1.1c0.1,0.3,0.3,0.6,0.5,0.8c1,0.7,2.2,0.3,3.2,0c4.3-1.2,8.6-2.4,12.9-3.6
	c0.5-0.1,0.9-0.3,1.3-0.6c0.2-0.2,0.4-0.5,0.5-0.7c-0.1-0.6-0.4-0.8-0.9-1c-1.5-0.5-2.9,0-4.1,0.6c-3.8,1.9-7.7,3-11.9,3.1
	C856.1,76.3,855.8,76.4,855.5,76.5z"/>
<path class="st2" d="M869.8,64.5c1,0,1.9-0.2,2.5-1.1c0.9-1.5,1.9-2.9,2.8-4.4c0.2-0.4,0.2-0.9,0.3-1.2c-0.2-1-0.8-1.5-1.6-1.7
	c-1-0.1-1.9,0.2-2.7,0.8c-1.6,1.2-2.5,2.9-3.3,4.6C866.9,63.4,867.7,64.5,869.8,64.5z"/>
<path class="st2" d="M875.5,62.8c0.2,0.3,0.7,0.5,0.9,0.7c1.2,0,2.1-0.3,2.3-1.4c0.1-0.3-0.1-1-0.4-1.2c-0.8-0.6-1.9-0.2-2.7,1
	C875.4,62.2,875.3,62.6,875.5,62.8z"/>
<path class="st2" d="M860.5,73.8c0.5-0.4,1-0.9,0.7-1.6c-0.4-0.9-0.9-1.7-1.8-2c-0.3,0.1-0.7,0.1-0.9,0.4c-0.6,0.7-1.2,1.4-1.7,2.2
	c-0.4,0.7,0.3,1.6,1.1,1.7C858.8,74.6,859.7,74.4,860.5,73.8z"/>
<path class="st2" d="M695.2,262c1.3,0.4,2.5,0.2,3.6-0.7c-1.5-0.1-2.6-1-3.9-1.6c-2.3-1.1-4.8-1.8-7.4-1.9c-1.3-0.1-2.8,0-3.4,1.3
	c-0.6,1.3,0.4,2.4,1.2,3.4c1.1,1.4,2.4,1.8,3.7,0.7C690.9,261.6,692.9,261.4,695.2,262z"/>
<path class="st2" d="M596.3,237.4c0.3,0.1,0.6,0.2,0.9,0.3c9.3,2.3,18.6,4.5,28,6.8c1.1,0.3,2.2,0.5,3.3,0.2c3.3-1,6.4-0.2,9.4,0.9
	c11.4,3.9,23.2,5.9,35,8c2.4,0.4,4.7,0.8,6.5,2.7c0.7,0.8,1.6,0.9,2.6,0.7c2.4-0.6,4.7-0.6,7.2-0.5c3.1,0.1,5.9,1.1,8.5,3
	c0.7,0.5,1.1,1.1,1.1,2c3.4,0.7,6.8,1.2,10.4,1c1.9-0.1,3.8,0.2,5.7,0.5c5.2,0.6,10.3,1.9,15.4,3.4c4.4,1.3,8.8,2.7,13.3,4.1
	c0.9,0.3,1.8,0.7,2.8,0.3c0.2-0.1,0.4-0.6,0.3-0.7c-0.6-0.5-1.2-1-1.8-1.5c-0.2-0.2-0.4-0.6-0.3-0.8c0.1-0.2,0.4-0.4,0.7-0.5
	c0.3-0.1,0.6-0.1,0.9-0.1c6.1-0.2,12.2,0.1,17.5,3.5c2.5,1.6,5.1,2.4,8.1,2.3c-0.3-1.4,0.6-2.4,1.1-3.5c1.5-2.8,3-5.6,4.4-8.5
	c4.5-9.4,8.2-19.1,9.2-29.6c0.3-3.4,1.5-6.5,3.2-9.5c3.6-6.2,6.5-12.9,8.8-19.7c2.1-6,4.1-12.1,6.1-18.2c2.1-6.5,4.5-13,7.2-19.3
	c3.6-8.5,7.2-17.1,10.3-25.8c2.1-5.9,4.2-11.7,6.3-17.6c2.7-7.5,5.5-15,8.1-22.6c1.1-3.1,2.9-5.3,6.3-5.8c4.8-0.7,7.6-3.7,9.7-7.7
	c1.2-2.2,2-4.2,0.3-6.7c-1.1-1.6-0.6-3.3,0.8-4.8c1.7-1.9,3.1-4.2,5.1-5.7c2.8-2.1,2.5-5,2.7-7.8c0-0.5-0.6-0.9-1-0.7
	c-0.9,0.4-1.7,0.9-2.4,1.5c-6.8,5.8-13.7,11.6-20.5,17.4c-0.8,0.7-1.6,1.5-2.3,2.4c-0.8,0.9-1.2,2-0.6,3.1c1.8,3.3,1,6.5-0.2,9.7
	c-2.9,7.5-5.6,15-8.5,22.4c-3.9,9.8-7.6,19.7-11,29.7c-2.6,7.4-5.1,14.8-8.1,22.1c-6,14.6-11.7,29.4-16.3,44.6c-1.1,3.6-3,6.7-6,9
	c-2.8,2.1-4.6,4.8-5.8,8c-0.9,2.4-1.8,4.8-2.9,7.1c-1.2,2.8-2.4,5.6-3.9,8.2c-3.2,5.7-7.8,9.7-14.2,11.3c-2.8,0.7-5.5,1.7-8.1,2.8
	c-2.1,0.9-4.1,1.7-6.2,2.5c-4.1,1.7-8.1,1.6-11.9-1c-1.6-1.1-3.3-2-5.2-2.3c-4.7-0.9-9.4-2.1-14.2-2.4c-5.4-0.3-10.8-1-15.7-3.9
	c-1.1-0.7-2.4-1-3.6-1.4c-6.2-2.3-12.7-3.3-19.2-4.1c-2.2-0.3-4.5-0.5-6.6-1.1c-3.5-0.9-4.6-2.7-4.4-6.4c0.1-1.6,0.7-3.1,1.3-4.6
	c0.3-0.7,0.4-1.5,0.5-2.3c0.1-0.9-1.3-1.6-2.1-1.3c-1.1,0.4-1.8,1.3-2.4,2.3c-1,1.6-1.8,3.4-2.9,5c-2.4,3.5-5.7,5.1-9.9,4.5
	c-0.8-0.1-1.6-0.3-2.4-0.4c-10.3-1.4-20.6-2.9-30.9-4.2c-3.9-0.5-7.5-1.3-10.8-3.5c-1.5-1-3-1.8-4.8-2.1c-1.8-0.3-3.7,1.2-4,3.2
	C593.6,236,594.5,236.9,596.3,237.4z"/>
<path class="st2" d="M692.5,265.2c2.2,0.5,4.3,1,6.5,1.5c7.8,1.6,15.6,3.2,23.3,4.9c0.3,0,0.4,0.1,0.6,0c0.2-0.1,0.6-0.3,0.7-0.5
	c0-0.2-0.2-0.7-0.4-0.7c-1.4-0.5-2.7-0.9-4.1-1.2c-3.7-1-7.4-1.8-11.1-3c-3.3-1.1-6.6-2.2-10.2-1.9c-1.5,0.1-3.1-0.5-4.7-0.7
	c-0.6-0.1-1.3,0-1.4,0.8C691.5,264.9,692,265.1,692.5,265.2z"/>
<path class="st2" d="M661.7,52.9c1.1-0.1,2.2,0.1,3.1-0.6c0.3-0.2,0.6-1,0.4-1.2c-1.6-2.3-3.6-3.9-6.3-4.6c-1-0.2-1.9,0.1-2.5,0.9
	c-0.7,0.8-0.5,1.8-0.2,2.7C657.2,52.6,659.4,52.9,661.7,52.9z"/>
<path class="st2" d="M725.9,270c1.7,2.5,5,1.2,6.6,3.3c0.1,0.1,0.2,0.2,0.3,0.3c1.3,1.2,2.6,1.2,3.9,0.1c0.9-0.8,2.4-1,3.2-2.5
	c-2.2-1.3-4.7-1.8-7.1-2.5c-2.3-0.7-4.6-1.4-6.9-2c-2.5-0.6-5-1.2-7.5-1.7c-2.4-0.4-4.7-1.3-7.5-0.6c0.6,0.4,0.8,0.7,1.1,0.8
	c2.3,0.6,4.6,1.2,6.9,1.8C721.3,267.9,724.3,267.8,725.9,270z"/>
<path class="st2" d="M660.8,74.2c-2.6-0.9-5.2-1.5-7.7-2.5c-2.7-1.1-5.4-1.9-8.5-1.2c-1.2,0-2.4-0.1-3.7,0c-0.5,0-0.7,0.6-0.4,1.1
	c0.1,0.3,0.3,0.6,0.6,0.7c5.2,2.9,9.8,6.5,13.5,11.4c0.6,0.8,1.4,0.6,2.1,0c2.3-1.8,4-4.2,5.3-6.8C662.5,75.8,662.1,74.7,660.8,74.2
	z"/>
<path class="st2" d="M680.6,61.7c-0.7,0-1.4-0.8-2.1-0.2c-0.5,0.5-0.1,1.2,0.2,1.7c0.8,1.5,1.3,3.2,2.5,4.4c0.3,0.3,0.9,0.3,1.3,0.2
	c0.5-0.1,0.6-0.7,0.4-1.2C682.4,64.9,680.7,63.6,680.6,61.7z"/>
<path class="st2" d="M678.1,67.7c0,0,0.1-0.1,0.1-0.2C678.2,67.6,678.1,67.6,678.1,67.7z"/>
<path class="st2" d="M664.9,54.4c-1.9,0.4-3.8,0.7-5.7,0.1c-2.9-1-4.9-0.3-6.4,2.4c-0.5,1-1.4,1.7-2.1,2.6c-0.7,1-0.6,2.1,0.5,2.9
	c2.3,1.8,5,2.8,8,2.9c2.5,0.1,5.2,0.5,7.6-0.2c4.1-1.1,7.5-0.1,10.6,2.4c0.2-0.2,0.4-0.4,0.6-0.6c-0.6-3.4-2.8-6-4.6-8.9
	C671.5,55.1,668.7,53.6,664.9,54.4z"/>
<path class="st2" d="M665.7,67.7c-0.6-0.1-1.3-0.3-1.9-0.2c-3.9,0.2-7.6-0.4-11.2-1.8c-0.5-0.2-1.2-0.1-1.8-0.2c0.9,3.2,3,5,6.3,5.6
	c1.5,0.3,3,0.9,4.6,1.3c2.5,0.6,4.6-1,4.8-3.7C666.6,68.3,666.3,67.8,665.7,67.7z"/>
<path class="st2" d="M843.4,117.9c-1.3,2.2-2.2,4.6-2.6,7.1c-1.1,6.9-3.3,13.6-6.2,20c-3.4,7.3-7.1,14.5-10.7,21.8
	c-0.5,1-1,2-2.2,2.4c-0.4,0.5-0.7,1-1.1,1.5c-0.4,0.5-1,1.1-0.3,1.6c3,2,2.3,4.5,1.4,7.2c-2,5.9-4,11.8-6.5,17.5
	c-6.2,14.4-10.3,29.5-14.9,44.5c-0.3,1-1,2.1-0.2,3.2c0.4,0.6,1.7-0.6,2.4-2.4c0.5-1.3,1-2.7,1.4-4.1c2.5-8.8,5.7-17.3,9.3-25.7
	c3.3-7.7,5.9-15.5,7.7-23.7c1.2-5.3,3-10.4,5.4-15.3c1.9-4,3.6-8.2,5.1-12.4c2.4-6.6,4.5-13.3,6.7-20c2.7-8.2,5.4-16.4,8.9-24.3
	c0.4-1,0.6-2.1,0.9-3.2l0,0c0,0-0.1-0.1-0.1-0.1C845.6,114.4,844.4,116.1,843.4,117.9z"/>
<path class="st2" d="M786.7,304.6c0.2,0.1,0.4,0.3,0.7,0.4C787.1,304.9,786.9,304.8,786.7,304.6
	C786.7,304.6,786.7,304.6,786.7,304.6z"/>
<path class="st2" d="M815.3,192.4c1.8-4.1,3.1-8.4,4.6-12.6c1.9-5.4,0.1-6.1-3.9-5.8c-0.7,2.5-1,5-0.9,7.6c0.1,2.5-0.7,4.7-2.3,6.6
	c-2.8,3.4-4.6,7.3-6,11.4c-2.6,7.4-5.3,14.7-7.1,22.4c-1.1,4.7-2.7,9.2-4.6,13.6c-3.5,8.2-6.7,16.6-10,24.9c-0.4,1-0.8,2.1-1,3.2
	c-0.2,0.8-0.2,1.6,0,2.4c0.4,2,2.7,3.7,4.7,3.3c1.7-0.3,1.9-2,2.2-3.4c0.2-1.3,0.2-2.5,0.2-3.8c0-1.4,0-2.9,0.1-4.3
	c0.1-1.9,0.6-3.8,1.6-5.5c0.5-0.8,1.1-1.5,2.2-1.6c0.2-0.6,0.2-1.3,0.6-1.7c1.1-1.4,1.8-3,2.3-4.7c0.9-3.2,1.9-6.4,2.9-9.6
	C804.8,220.4,809.2,206.1,815.3,192.4z"/>
<path class="st2" d="M794.8,250.8c-0.4,1.2-0.8,2.4-1.2,3.6c-0.8,2.5-0.8,4.1-0.1,7.3c1.9-2.7,3.1-6.3,3-8.8
	C796.5,251.7,795.7,251.2,794.8,250.8z"/>
<path class="st2" d="M841.4,108.3c-1.3,1.3-2,2.9-2.6,4.5c-1.5,4.4-3.1,8.7-4.4,13.1c-2.1,7.4-5,14.5-8,21.5
	c-2.2,5.1-4.3,10.3-6.3,15.5c-0.5,1.3-0.8,2.7-1.1,4.1c-0.2,0.9,0.4,1.5,1.3,1.7c0.5,0.1,0.9,0.2,1.4,0.3c-0.3-1.7,0.7-3.1,1.3-4.4
	c2.3-4.7,4.7-9.4,7.1-14.1c4.1-8.3,7.5-16.9,9.1-26.1c0.9-5.2,3.2-9.7,7.3-13.1c0.5-0.4,0.9-0.9,1.2-1.4c0.1-0.2,0.1-0.7-0.1-0.9
	C846.4,107,843,106.6,841.4,108.3z"/>
<path class="st2" d="M900.3,95.9c-0.3-0.9-1.1-1.2-1.9-0.8c-1.7,0.7-3.3,1.2-5.1,0.7c-2.9-0.9-3.7-2.8-2.3-5.5
	c0.5-1,1.3-1.8,1.8-2.8c0.6-1.1,1.2-2.3,1.6-3.5c1-3.6-0.8-6.3-4.5-6.9c-0.9-0.2-1.9-0.1-2.8-0.5c-1.1-0.6-1.8-2.3-3.2-1.5
	c-1.1,0.6-0.9,2.3-1.5,3.4c-0.6,1.1-1.2,2.2-1.9,3.3c-0.1,0.2-0.5,0.4-0.8,0.5c-0.1,0.1-0.3,0.1-0.5,0c-0.1-0.1-0.3-0.2-0.3-0.4
	c-0.1-1,0.7-1.8,1-2.6c0.5-1.2,1.4-2.4,0.4-3.5c-1-1.1-2.4-0.6-3.6-0.4c-0.6,0.1-1.2,0.3-1.9,0.5c-3.9,1.1-7.7,2.1-11.6,3.2
	c-7.8,2.2-6.4,1.3-9.6,7.4c-2.3,4.5-5.6,7.7-11,8.3c-2,0.2-3.5,1.6-4.2,3.5c-0.3,0.7-0.6,1.5-0.8,2.2c-3.1,8.7-6.2,17.5-9.4,26.2
	c-4.5,12.5-8.9,25-14.3,37.2c-3.6,8.2-6.6,16.6-9.2,25.2c-3.1,9.9-6.2,19.9-11.2,29.1c-3.2,5.9-5.3,11.8-6.2,18.4
	c-1.8,12.4-7.4,23.4-13.3,34.2c-0.5,1-1.2,1.9-2.3,2.2c-0.3,1.8,0.7,3.1,1.9,4.2c1.8,1.6,3.7,3,5.3,4.8c2.6,2.9,5.3,5.4,9.5,5.9
	c1.2,0.1,2.4,0.9,2.5,2.5c3.3,0.6,4.1,1.4,4.8,4.8c2.2,0.4,3.1,1.7,2.9,3.8c1-0.1,1.7,0.6,2.5,1.1c0.9,0.6,1.9,1.2,2.9,1.6
	c1.4,0.5,3.1,0.2,3.5-0.7c0.6-1.2,0-2.3-0.9-3c-2.8-2.3-3.9-5.4-4.5-8.7c-0.2-0.9-0.5-1.9-0.9-2.7c-1.1-2.4-2.6-4.3-5.5-4.7
	c-3.4-0.5-5.4-2.6-5.9-6c-0.4-2.4-1.4-3.9-3.8-4.9c-3.3-1.3-4.2-3.3-3.9-6.8c0.1-1.1,0.3-2.2,0.7-3.2c3.4-8.6,6.8-17.2,10.4-25.8
	c1.6-3.8,3.1-7.7,4.1-11.7c1.8-7.8,4.6-15.3,7.1-22.8c1.6-4.7,3.5-9.3,6.7-13.2c1.3-1.6,1.8-3.3,1.8-5.3c0-1.9-0.1-3.8,0.6-5.7
	c0.4-1.1,0.9-2,2.2-2.1c-0.4-1.6,0.2-3.1,0.5-4.7c1.7-7.7,4.9-14.8,8.1-22c2.9-6.6,5.6-13.2,7.6-20.1c1.4-4.8,3-9.4,4.6-14.1
	c0.6-1.6,1.3-3.3,2.3-4.7c1.9-2.9,4.3-3.6,7.5-2.3c0.6,0.2,1.2,0.5,1.7,0.9c2.4,1.8,5.2,2.1,8.2,2.1c12.5,0.2,24.8-2.3,37.2-3.4
	c1.1-0.1,2.2-0.5,3.1-1.2c0.6-0.5,0.7-1.7,0.1-2.1c-0.7-0.4-1.3-0.9-2.1-1.1c-2.9-0.8-5.9-1.5-8.8-2.2c-5.4-1.2-10.8-1.4-16.1,0.4
	c-1.7,0.6-3.4,0.8-5.2,0.6c-0.7-0.1-1.1-0.9-0.8-1.4c0.6-1.2,1.4-2.1,2.5-2.8c1.8-3.8,4.5-6.8,7.5-9.6c0.6-0.5,1.3-0.8,2-1.2
	c0.1-0.1,0.3,0,0.4,0.1c0.3,0.2,0.4,0.5,0.2,0.8c-0.1,0.1-0.1,0.3-0.3,0.4c-3.5,3-5.9,7-9.1,10.2c0,0,0,0,0,0c0.2,1.2,1,1.5,2.1,1.2
	c4.5-1.4,9.1-1.9,13.7-1c4.2,0.8,8.4,1.9,12.6,2.9c1.2,0.3,2.5,0.7,3.4,1.7c0.5,0.5,0.6,1.8,1.6,1.4c1.1-0.4,1-1.6,0.8-2.5
	C901.1,98.7,900.7,97.3,900.3,95.9z"/>
<path class="st2" d="M739.8,275.9c0.4,0.2,0.8,0.4,1.3,0.5c6.8,1.6,13.6,3.1,20.4,4.7c0.8,0.2,1.6,0.2,2.4,0.2
	c0.3,0,0.7-0.2,0.8-0.4c0.2-0.5-0.2-0.9-0.7-1.1c-6-1.7-11.7-4.1-17.8-5.3c-1.4-0.3-2.8-0.5-4.1-0.8c-0.8,0.1-1.4,0.1-2,0.4
	c-0.4,0.2-0.7,0.6-0.9,1C739.2,275.3,739.5,275.7,739.8,275.9z"/>
<path class="st2" d="M796.1,302.8c0.3-0.3,0.5-0.4,0.6-0.4c2.7-0.4,2.7-0.4,2.2-2.7c-0.1-0.3-0.1-0.6-0.2-0.9
	c-1.6-0.8-2.6-2.1-2.9-3.8c-2-1.2-3.6-2.8-4.8-4.8c-1-0.3-2.1-0.6-3.1-0.9c-0.9-0.2-2.1-1-2.6-0.1c-0.9,1.4,0.8,1.7,1.5,2.3
	c2.5,2.3,5.4,4.4,6.6,7.8c0.2,0.3,0.7,0.8,0.7,0.9c-0.5,0.7-0.9,0.1-1.3-0.2c0,0,0,0,0,0c-1.9-1.9-3.8-3.8-5.8-5.7
	c-0.3-0.3-0.9-0.4-1.2,0c-0.2,0.2-0.3,0.6-0.2,0.9c0.9,3.5,2.9,6.4,4.9,9.2c0.9,1.3,2.3,2.3,2.5,4c1.9,0.7,2.8,2.5,4.3,3.6
	c0.4,0.3,0.9,0.5,1.3,0.2c0.3-0.3,0.7-0.8,0.7-1.2c0-0.9-0.3-1.9-0.5-2.8C798.4,306.2,796.9,304.6,796.1,302.8z"/>
<path class="st2" d="M619.4,246.9c1.5-0.1,3.1-0.1,4.6-0.1c-1.2-1-2.6-1.4-3.9-1.7c-6.7-1.6-13.3-3.2-20-4.8
	c-1.1-0.3-2.2-0.5-3.3-0.8c-1.9-0.4-3.8-0.3-5.6,0.7c-2.4,1.4-5,1.9-7.8,2.2c-2.5,0.3-5.1,0.6-7.6,1.2c-1.3,0.3-3.1,0.2-3.4,2
	c-0.2,1.5,1.2,2.1,2.2,2.9c1.5,1.2,2.3,2.6,1.6,4.6c-0.1,0.4-0.2,0.9-0.2,1.4c0,0.7,0.3,1.3,1.1,1.2c0.8-0.1,1.5-0.4,2.3-0.6
	c2.6-0.8,4.7-0.1,6.3,2.2c0.3,0.4,0.5,0.8,0.8,1.2c0.4,0.5,1,1,1.6,0.5c0.3-0.2,0.5-0.8,0.5-1.2c0-0.6-0.2-1.3-0.3-1.9
	c-0.5-3.7,1.1-6.2,4.3-7.7c1.3-0.6,2.6-1.3,3.9-1.8c1.4-0.5,2.8-2.3,4.3-1.1c1.2,1,0.2,2.7,0,4.1c-0.7,4.4-1.1,8.8,0.8,13.1
	c2.5,1.4,5.3,0.8,7.9,1.3c0.9,0.2,1.5-0.4,1.7-1.3c0.2-1.1,0.2-2.2,0.2-3.3c0-1.6-0.1-3.2,0-4.8
	C612.2,249.3,614.5,247.2,619.4,246.9z"/>
<path class="st2" d="M599.7,260.7c-0.8-1.5-0.9-3-0.9-4.6c0.1-2.7,0.2-5.4,0.3-8.1l0,0c0,0-0.1-0.1-0.1-0.1c-1.8,0-3.4,0.8-5,1.6
	c-3.2,1.6-3.8,2.9-3.5,6.5c0.4,4.1,0.4,4.1-3.1,5.9c-0.4,0.2-0.8,0.4-1.3,0.6c-3.5,1.5-6.1,4.1-8.2,7.1c-0.4,0.5-0.7,1.2-0.2,1.7
	c0.4,0.6,1.1,0.6,1.8,0.5c1.4-0.4,2.8-0.8,4.1-1.2c5.3-1.9,10.3-4.4,15.8-5.7c1.4-0.3,2-1.5,2.6-2.6
	C600.8,262.3,600.2,261.6,599.7,260.7z"/>
<path class="st2" d="M633.6,251c-2-0.5-4-0.9-6-1.5c-3-0.8-6-0.8-9-0.6c-2.8,0.2-4.3,1.6-4.9,4.3c-0.2,0.8-0.3,1.6-0.2,2.4
	c0.1,1.4-0.6,3.1,0.9,3.9c1.3,0.6,2.3-0.7,3.3-1.4C622.6,254.8,627.5,251.6,633.6,251z"/>
<path class="st2" d="M674.1,255.6c-12.7-2.4-25.5-4.5-37.8-8.7c-1.5-0.5-3.1-0.9-5.2-0.8c-0.1,0-0.7,0.1-1.3,0.3
	c-0.2,0.1-0.5,0.4-0.6,0.7c0,0.2,0.1,0.7,0.3,0.8c0.9,0.3,1.8,0.7,2.7,0.8c3.3,0.4,6.2,1.4,8.5,3.9c1,1.1,2.4,1.6,3.8,1.9
	c2.2,0.6,4.4,1,6.6,1c6.9-0.1,13.7,0,20.3,2.5c1.5,0.6,3.1,0.7,4.7-0.1c0.2-0.1,0.5-0.5,0.5-0.7c0-0.3-0.1-0.7-0.3-0.8
	C675.6,256.1,674.9,255.8,674.1,255.6z"/>
<path class="st2" d="M767.5,286.2c-0.5-1.7-1.6-2.6-3.4-2.9c-4.7-0.9-9.4-1.9-14.1-2.9c-3.9-0.8-7.8-1.9-11.7-2.6
	c-2.5-0.5-5-0.9-7-2.7c-0.7-0.7-1.6-1-2.6-0.7c-1.3,0.4-2.5-0.1-3.8-0.4c-1.9-0.4-3.7-0.8-5.6-1.2c-9.9-2.1-19.7-4.1-29.6-6.1
	c-3-0.6-5.5-1.6-6.9-4.5c-1.2-2.5-3.1-3.1-5.5-2.4c-2.4,0.7-4.8,0.7-7.1-0.2c-5.2-1.9-10.6-2.4-16-2.2c-5,0.2-9.9-0.6-14.5-2.7
	c-1.9-0.9-4-1.2-6.3-1.2c-2.7-0.1-5.6,0.5-8.1,2c-3.2,1.9-6.2,3.9-9.3,6c-0.2,0.2-0.5,0.4-0.6,0.7c-0.2,0.5-0.1,1,0.5,1.1
	c1.1,0.2,2.2,0.3,3.3,0.3c4.5,0.3,9,0.4,13.4,0.9c5.7,0.7,11.4,1.8,17,2.7c7.1,1.2,14,3.2,20.2,7.2c1.5,1,3.2,1.3,5,1.4
	c3,0,6.1,0,9.1,0.3c6.5,0.6,13,1.9,19.4,3.1c6.3,1.2,12.5,2.8,18.9,3.2c15.2,1,29.5,5.2,43.2,11.9c1.4,0.7,2.6,1.9,4.3,1.8
	c1.2-1.8-0.3-3.3-0.7-4.9C768.7,289.5,768.1,287.9,767.5,286.2z"/>
<path class="st2" d="M784.4,300c0.5-0.2,0.6-0.8,0.4-1.2c-1.2-3-1.9-6.1-2.5-9.2c-0.7-3.4-3.1-5.5-5.7-7.4c-0.2-0.2-0.6-0.1-0.9-0.1
	c-0.6,0.4-0.7,1-0.5,1.7c2,5.8,4.9,11.1,8.4,16C783.6,300,784.1,300.1,784.4,300z"/>
<path class="st2" d="M771.5,278.6c-0.1-0.5-0.3-0.9-0.4-1.4c-0.4-1.3-1.1-2.3-2.5-2.5c-1.9-0.3-3.6-1.3-5.2-2.3
	c-1.8-1.1-3.7-2-5.7-2.5c-1.5-0.4-3.1-1.3-4.6-0.4c-1.1,0.6-0.1,2.5-1.1,3.4c-0.1,0.1,0,0.6,0,1.2c3.6,1.4,7.4,2.6,11.2,3.6
	c2.7,0.7,4.4,2.2,5.2,5c1.5,5.4,3.4,10.7,4.9,16c0.7,2.4,1.3,4.9,1.4,7.5c0.2,3.3,0.6,6.7,1.1,10c0.5,3.3,1.3,6.6,3.1,9.5
	c1,1.6,2.3,1.6,3.4,0c0.6-0.8,0.9-1.7,1-2.7c0.1-1,0-1.9,0.1-2.9c0.1-1.4,0.7-2.5,2.2-2.8c1.5-0.4,2.9-0.2,3.4,1.6
	c0.3-0.1,0.6-0.2,0.9-0.2c0.9-0.1,1.7-0.5,1.2-1.5c-0.6-1.5-1.4-2.8-2.3-4.2c-3.4-5.8-6.8-11.6-10.2-17.3
	C775.6,290.3,772.9,284.7,771.5,278.6z"/>
<path class="st1" d="M903.3,100.2c-0.3-1.7-0.6-3.5-1.2-5.1c-0.7-2.2-1.8-2.7-4-2c-1,0.4-2,1.1-3.2,1c-1,0-1.9-0.2-2.5-1.1
	c-0.5-0.8-0.1-1.6,0.3-2.2c1.2-1.7,2.4-3.4,3.1-5.4c1.9-5.2-0.4-9.4-5.8-10.4c-1.5-0.3-2.8-0.6-3.8-1.8c-1.2-1.4-2.7-1.4-4.4-1
	c-1.4,0.3-2.7,0.9-4.2,0.6c-0.5-0.1-0.9-0.4-1-0.9c-0.1-0.5-0.1-1,0.4-1.3c1-0.5,2-1,3-1.4c2.2-0.9,4.5-1.7,6.7-2.6
	c1-0.4,1.5-1.2,1.2-2.3c-0.4-1.4-1-2.7-1.6-4c-0.5-0.9-1.3-1.4-2.4-1.3c-0.8,0.1-1.6,0.3-2.4,0.4c-2.4,0.2-2.6,0.1-3.6-2
	c-1.9-3.9-5.2-4.6-8.4-1.6c-1,1-1.9,2.2-2.7,3.3c-0.7,0.9-1.4,1.7-2.6,1.9c-0.2-0.2-0.4-0.4-0.6-0.6c-0.3-1.1-0.3-2.2-1-3.2
	c-0.7-0.9-1.6-1.1-2.5-0.5c-0.7,0.4-1.3,0.9-1.9,1.5c-2.6,2.2-5.2,4.3-7.7,6.5c-5.9,5.2-12.2,9.8-17.7,15.5c-1.4,1.4-3,1.8-4.8,1.6
	c-2.9-0.3-5.7-0.6-8.6-0.9c-8-0.8-15.9-1.5-23.9-2.3c-11.8-1.1-23.6-2.3-35.3-3.4c-8.3-0.8-16.6-1.5-24.8-2.3
	c-9.2-0.9-18.5-1.7-27.7-2.6c-6.2-0.6-12.4-1.3-18.6-1.8c-1.9-0.2-3.3-0.9-4.3-2.6c-0.6-1-1.2-1.9-1.9-2.8c-0.6-0.8-1.2-1.5-2.3-1.5
	c0.2-1-0.3-1.8-0.9-2.6c-1.2-1.6-2.7-2.8-4.4-3.6c-3.6-1.8-6.8-4.1-9.8-6.9c-1-1-2.2-1.8-3.5-2.6c-0.9-0.6-2-1-3.1-1.2
	c-2.8-0.4-5.2,1.6-4.8,4.4c0.3,2-0.2,3.4-1.5,4.8c-0.9,1.1-1.6,2.4-2.6,3.5c-1.6,1.8-2.1,3.9-1.9,6.2c0.1,1,0.3,1.9,0.3,2.8
	c0,0.9-0.5,1.5-1.4,1.7c-1.4,0.4-2.8,0.4-4.3,0.3c-1.4-0.1-2.9-0.2-4.3-0.1c-1.4,0.1-2,1.6-1.3,2.9c0.6,1.2,1.7,1.9,2.8,2.6
	c2,1.3,4.1,2.5,6,3.9c3.1,2.1,5.6,4.8,7.3,8.1c1.7,3.3,2.1,6.7-0.5,9.8c-1.3,1.5-1.9,3.3-2.6,5.1c-1.7,4.5-3.4,9-5.2,13.4
	c-3.1,7.7-6.4,15.3-9.6,23c-0.6,1.3-1,2.7-2.8,3c0,0.1,0,0.1,0,0.2l1.2,4c0,0,0,0.1,0,0.1l0.1,0c0,0,0,0,0-0.1v0
	c0.2-0.3,0.4-0.6,0.6-0.9c2.7-4.5,4.5-9.5,6.5-14.3c3.9-9.3,7.5-18.7,11.2-28.1c0.6-1.5,1-3.1,2.1-4.3c1.7-1.9,2.4-4.1,2.2-6.6
	c-0.2-2.4,0.5-4.3,2.2-6c3.9-3.9,5.9-9.1,9.1-13.5c0.7-1,1.4-2.1,2.3-3.1c1-1.1,2.2-1.4,3.4-0.3c2.7,2.5,5.9,2.9,9.4,2.8
	c6.3-0.3,12.4,0.9,18.6,1.3c9.2,0.7,18.5,1.7,27.7,2.6c7.8,0.7,15.6,1.5,23.4,2.2c9.1,0.9,18.1,1.7,27.2,2.6
	c7.6,0.7,15.3,1.5,22.9,2.3c8.1,0.8,16.2,1.6,24.3,2.4c0.6,0.1,1.3,0.1,1.9,0.1c3.7,0.5,5.1,2.1,4.3,5.9c-0.5,2.5-1.4,4.9-2.3,7.3
	c-3.1,8.1-6.3,16.1-9.4,24.1c-2.8,7.5-5.6,15-8.2,22.5c-3.6,10.3-7.2,20.5-11.5,30.5c-5,11.6-9.1,23.6-12.9,35.6
	c-1.4,4.4-3.4,8.2-7.3,11c-2.3,1.6-3.6,4-4.7,6.6c-1.6,3.9-3.1,7.7-4.8,11.5c-0.9,2-1.9,4-3.1,5.9c-2.7,4.3-6.4,7.6-11.5,8.8
	c-4.4,1-8.4,2.9-12.6,4.6c-0.7,0.3-1.5,0.6-2.2,0.9c-3.8,1.6-7.4,1.7-11-0.7c-2.8-1.9-6.1-2.7-9.4-3.4c-5.2-1-10.4-1.7-15.7-2.1
	c-2.4-0.2-4.8-0.6-6.9-1.7c-8.2-4.4-17.1-6-26.2-7.1c-2.2-0.3-4.4-0.6-6.6-1.1c-2.1-0.5-2.9-1.8-2.8-3.9c0-1.3,0.3-2.5,0.8-3.7
	c0.4-0.9,0.9-1.7,1.2-2.6c0.5-1.3,0.3-2.5-0.8-3.5c-1.2-1-2.5-1.3-4-0.8c-1.3,0.4-2.2,1.3-2.9,2.4c-0.9,1.5-1.8,3-2.7,4.5
	c-2.2,3.7-5.2,5.3-9.6,4.7c-9.6-1.5-19.3-2.7-29-4.1c-1.6-0.2-3.2-0.4-4.8-0.6c-3.1-0.3-5.9-1.1-8.6-2.8c-1.3-0.9-2.8-1.7-4.3-2.2
	c-2.9-1-3.6-1.2-1.7-4.9c1.2-2.3,2.3-4.6,3.4-6.9c0.3-0.6,0.8-1.1,0.9-1.7c0.6-4.7,3.5-8.5,5.1-12.8c1.6-4.3,3.8-8.5,5.7-12.7
	c1.9-4.2,3.9-8.4,5.8-12.6c2.5-5.5,5-11.1,7.5-16.6c0.9-2,1.5-4.2,3.3-5.7c0,0,0,0,0,0l-1.4-4.5c0.2,0.9,0.2,1.8,0.3,2.7
	c-1.1,0.6-1.5,1.6-2,2.6c-1,2.2-2.1,4.3-3.1,6.5c-3.7,8-7.2,16-11,24c-3.8,7.9-6.6,16.3-11.1,23.9c-0.2,0.3-0.3,0.6-0.3,0.9
	c-0.2,4.3-2.9,7.7-4.5,11.5c-1.8,4.1-3.9,8-5.1,12.3c-0.3,1.2-1,2-2,2.5c-1.4,0.8-2.9,1.2-4.6,1.4c-2.2,0.2-4.5,0.4-6.7,0.9
	c-2.3,0.5-4.7,1.1-7,1.7c-1.1,0.3-1.4,1.2-1.2,2.3c0.3,2,1.5,3.5,3.2,4.6c1.2,0.8,1.6,1.9,1.2,3.3c-0.4,1.5-0.6,3.1-0.9,4.7
	c-0.1,0.4,0.1,1,0.3,1.3c0.5,0.5,1.2,0.2,1.7-0.1c1.1-0.6,2.2-1.3,3.4-1.8c0.9-0.3,1.8-0.5,2.8-0.6c1.2,0,2.1,0.7,2.5,1.8
	c0.5,1.2,0.3,2.2-0.6,3.1c-0.6,0.5-1.3,1-1.9,1.4c-3,1.9-5.1,4.7-7.8,7c-1,0.8-1.7,1.9-1.8,3.3c-0.1,1.2,0.9,2.3,2,2.1
	c0.8-0.1,1.6-0.3,2.3-0.6c4.5-1.6,9-3.3,13.5-4.9c2.9-1,5.7-2.1,8.6-2.9c3.6-1,7.2-1.6,10.9-0.7c0.9,0.2,1.9,0.1,2.8,0
	c6.9-0.9,13.7-0.7,20.6,0.2c5.4,0.7,10.7,1.7,16.1,2.5c7.1,1.2,14.1,3,20.2,7.1c1.7,1.1,3.4,1.6,5.4,1.5c8.4-0.2,16.6,1.1,24.7,2.7
	c9.7,2,19.4,3.8,29.3,4.8c14.1,1.4,27,6.2,39.4,12.8c2.7,1.4,4.1,3.4,4.4,6.4c0.3,3.2,0.7,6.4,1.1,9.5c0.3,3,1,6,1.9,8.9
	c0.7,2.2,1.8,4.1,3.1,5.9c1.5,1.9,3.5,2.2,5.6,1.6c1.8-0.5,1.6-2.1,1.6-3.6c0-0.2,0-0.3,0-0.5c0.3-2,1.4-3,3.4-3.3
	c1.5-0.2,2.8,0.5,4.1,1c0.9,0.4,1.9,0.8,2.6-0.1c0.6-0.7,0.1-1.5-0.3-2.2c-0.7-1.3-1.4-2.5-2.1-3.8c-1.6-2.8-3.2-5.5-4.8-8.3
	c-0.4-0.7-0.9-1.5-0.3-2.2c0.7-0.9,1.4-0.2,2.1,0.3c0.7,0.4,1.3,0.9,2.1,0.9c0.2,3.3,2.9,4.8,4.9,6.7c0.7,0.7,2,0.2,2.4-0.7
	c0.7-1.6,1.1-3.3,0.7-5.1c-0.2-0.9-0.4-1.9-0.5-2.8c-0.2-1.7,0.8-2.8,2.4-2.9c1.1-0.1,2.2,0.1,3.4,0c4.3-0.4,5-1.7,2.9-5.5
	c-0.3-0.6-0.6-1.2-1.1-1.6c-2.6-2-3.6-4.8-4-7.9c-0.1-0.8-0.4-1.6-0.7-2.3c-1.3-3.2-3.1-6-7.1-6.4c-0.3,0-0.6-0.1-0.9-0.2
	c-1.9-0.5-3.1-1.7-3.4-3.6c-0.7-3.4-0.7-6.7,1.4-9.7c3.1-4.4,4.9-9.3,5.2-14.7c0.1-1.3,0.5-2.5,1.6-3.3c3-2.2,4.3-5.4,5.3-8.9
	c2.3-8.2,5.1-16.2,8.4-24c3.7-8.5,6.7-17.3,8.7-26.4c0.9-3.9,2-7.7,3.7-11.4c4.2-9,7.6-18.3,10.7-27.7c2.6-8,5.3-16.1,8.1-24.1
	c1.4-3.9,3.2-7.7,4.8-11.5c0.9-2.2,2.5-3.2,4.9-3.1c0.5,0,1,0,1.4,0c5.3,0,10.5-0.8,15.8-1.2c8-0.8,15.8-2.3,23.8-2.5
	c2.7-0.1,4.7-1.8,6.5-3.6C903.3,102.9,903.5,101.5,903.3,100.2z M656.4,47.5c0.7-0.8,1.6-1.1,2.5-0.9c2.7,0.7,4.8,2.3,6.3,4.6
	c0.1,0.2-0.1,1-0.4,1.2c-0.9,0.7-2.1,0.5-3.1,0.6c-2.3,0-4.5-0.3-5.5-2.8C655.9,49.2,655.7,48.3,656.4,47.5z M661.9,77
	c-1.3,2.6-3,4.9-5.3,6.8c-0.7,0.6-1.6,0.7-2.1,0c-3.6-4.8-8.2-8.5-13.5-11.4c-0.3-0.1-0.5-0.4-0.6-0.7c-0.2-0.5-0.1-1.1,0.4-1.1
	c1.3-0.1,2.5,0,3.7,0c3.1-0.7,5.8,0.1,8.5,1.2c2.5,1,5.2,1.6,7.7,2.5C662.1,74.7,662.5,75.8,661.9,77z M661.7,72.4
	c-1.5-0.4-3-1-4.6-1.3c-3.2-0.6-5.4-2.4-6.3-5.6c0.6,0,1.2,0,1.8,0.2c3.6,1.3,7.3,2,11.2,1.8c0.6,0,1.3,0.1,1.9,0.2
	c0.5,0.1,0.8,0.6,0.8,1C666.3,71.4,664.2,73.1,661.7,72.4z M677.5,67.6c-3.2-2.5-6.5-3.5-10.6-2.4c-2.4,0.6-5.1,0.3-7.6,0.2
	c-2.9-0.1-5.6-1.1-8-2.9c-1-0.8-1.2-1.9-0.5-2.9c0.6-0.9,1.6-1.6,2.1-2.6c1.4-2.8,3.5-3.4,6.4-2.4c1.9,0.6,3.8,0.3,5.7-0.1
	c3.8-0.8,6.6,0.7,8.5,3.8c1.8,2.8,4,5.4,4.6,8.9C677.9,67.3,677.7,67.5,677.5,67.6z M682.4,67.8c-0.4,0.1-1,0-1.3-0.2
	c-1.3-1.2-1.7-2.9-2.5-4.4c-0.3-0.5-0.7-1.2-0.2-1.7c0.7-0.7,1.4,0.2,2.1,0.2c0.1,2,1.8,3.2,2.3,5C683,67.1,682.9,67.7,682.4,67.8z
	 M878.3,60.9c0.3,0.2,0.5,0.8,0.4,1.2c-0.3,1.1-1.2,1.3-2.3,1.4c-0.2-0.2-0.7-0.4-0.9-0.7c-0.1-0.2,0-0.6,0.1-0.9
	C876.4,60.8,877.5,60.3,878.3,60.9z M867.8,61.5c0.8-1.7,1.7-3.4,3.3-4.6c0.8-0.6,1.7-1,2.7-0.8c0.9,0.1,1.4,0.6,1.6,1.7
	c-0.1,0.3-0.1,0.8-0.3,1.2c-0.9,1.5-1.9,3-2.8,4.4c-0.6,0.9-1.5,1.1-2.5,1.1C867.7,64.5,866.9,63.4,867.8,61.5z M866.3,69.4
	c0.5-1.5,1.3-2.5,2.9-2.8c1.7-0.2,3.4-0.7,5.2-0.8c2.4-0.3,4.7-0.7,6.5-2.6c0.8-0.8,2-1,3.1-1c0.9,0,1.4,0.6,1.6,1.4
	c0.2,0.7,0,1.3-0.6,1.7c-0.4,0.3-0.8,0.6-1.2,0.7c-4.7,1.6-9.3,3.2-14,4.8c-0.7,0.2-1.6,0.3-1.8,0.3C866.7,71,866.1,70.1,866.3,69.4
	z M868.3,73.2c1.2-0.6,2.7-1.1,4.1-0.6c0.5,0.2,0.8,0.4,0.9,1c-0.2,0.2-0.3,0.6-0.5,0.7c-0.4,0.3-0.8,0.5-1.3,0.6
	c-4.3,1.2-8.6,2.4-12.9,3.6c-1.1,0.3-2.2,0.6-3.2,0c-0.2-0.2-0.4-0.5-0.5-0.8c-0.1-0.5,0-0.9,0.6-1.1c0.3-0.1,0.6-0.2,0.9-0.2
	C860.6,76.2,864.6,75.1,868.3,73.2z M856.8,72.7c0.5-0.8,1.1-1.5,1.7-2.2c0.2-0.2,0.6-0.2,0.9-0.4c0.9,0.4,1.4,1.2,1.8,2
	c0.3,0.7-0.1,1.2-0.7,1.6c-0.8,0.6-1.7,0.8-2.7,0.7C857.1,74.4,856.4,73.4,856.8,72.7z M593.8,235.1c0.4-2.1,2.2-3.6,4-3.2
	c1.8,0.3,3.3,1.2,4.8,2.1c3.3,2.2,7,3,10.8,3.5c10.3,1.3,20.6,2.8,30.9,4.2c0.8,0.1,1.6,0.3,2.4,0.4c4.2,0.6,7.5-1,9.9-4.5
	c1.1-1.6,1.9-3.3,2.9-5c0.6-1,1.3-1.8,2.4-2.3c0.8-0.3,2.2,0.4,2.1,1.3c-0.1,0.8-0.2,1.6-0.5,2.3c-0.6,1.5-1.1,3-1.3,4.6
	c-0.3,3.6,0.9,5.5,4.4,6.4c2.2,0.6,4.4,0.8,6.6,1.1c6.5,0.8,13,1.8,19.2,4.1c1.2,0.4,2.5,0.8,3.6,1.4c4.8,2.9,10.2,3.6,15.7,3.9
	c4.8,0.3,9.5,1.5,14.2,2.4c1.9,0.4,3.6,1.2,5.2,2.3c3.8,2.6,7.8,2.7,11.9,1c2.1-0.8,4.2-1.7,6.2-2.5c2.6-1.1,5.3-2.1,8.1-2.8
	c6.4-1.6,11.1-5.6,14.2-11.3c1.5-2.6,2.7-5.4,3.9-8.2c1-2.3,2-4.7,2.9-7.1c1.2-3.2,3-6,5.8-8c3.1-2.3,4.9-5.4,6-9
	c4.7-15.1,10.3-29.9,16.3-44.6c3-7.2,5.5-14.7,8.1-22.1c3.5-10,7.1-19.9,11-29.7c3-7.4,5.7-14.9,8.5-22.4c1.2-3.2,2.1-6.4,0.2-9.7
	c-0.6-1.1-0.2-2.2,0.6-3.1c0.7-0.9,1.5-1.7,2.3-2.4c6.8-5.8,13.6-11.6,20.5-17.4c0.7-0.6,1.6-1.1,2.4-1.5c0.4-0.2,1.1,0.2,1,0.7
	c-0.3,2.8,0,5.6-2.7,7.8c-2,1.5-3.3,3.9-5.1,5.7c-1.4,1.5-1.8,3.3-0.8,4.8c1.7,2.5,0.8,4.5-0.3,6.7c-2.1,4-4.9,7.1-9.7,7.7
	c-3.4,0.5-5.2,2.7-6.3,5.8c-2.7,7.5-5.4,15-8.1,22.6c-2.1,5.9-4.2,11.7-6.3,17.6c-3.1,8.8-6.6,17.3-10.3,25.8
	c-2.7,6.3-5.1,12.8-7.2,19.3c-2,6.1-4,12.2-6.1,18.2c-2.3,6.8-5.2,13.4-8.8,19.7c-1.7,3-2.9,6.1-3.2,9.5c-1,10.5-4.7,20.2-9.2,29.6
	c-1.4,2.9-2.9,5.7-4.4,8.5c-0.6,1.1-1.4,2.1-1.1,3.5c-2.9,0-5.5-0.7-8.1-2.3c-5.3-3.4-11.4-3.8-17.5-3.5c-0.3,0-0.7,0-0.9,0.1
	c-0.3,0.1-0.6,0.3-0.7,0.5c-0.1,0.2,0.1,0.6,0.3,0.8c0.6,0.5,1.2,1,1.8,1.5c0.1,0.1-0.1,0.6-0.3,0.7c-1,0.4-1.9,0-2.8-0.3
	c-4.4-1.4-8.8-2.7-13.3-4.1c-5-1.5-10.1-2.8-15.4-3.4c-1.9-0.2-3.8-0.5-5.7-0.5c-3.5,0.1-6.9-0.3-10.4-1c0-0.9-0.5-1.5-1.1-2
	c-2.5-1.8-5.4-2.8-8.5-3c-2.4-0.1-4.8,0-7.2,0.5c-1,0.2-1.9,0.1-2.6-0.7c-1.7-1.9-4.1-2.3-6.5-2.7c-11.8-2.2-23.6-4.1-35-8
	c-3-1-6.1-1.9-9.4-0.9c-1.1,0.3-2.2,0.1-3.3-0.2c-9.3-2.3-18.6-4.5-28-6.8c-0.3-0.1-0.6-0.2-0.9-0.3
	C594.5,236.9,593.6,236,593.8,235.1z M693,263.5c1.6,0.2,3.2,0.8,4.7,0.7c3.6-0.3,6.9,0.8,10.2,1.9c3.6,1.2,7.4,2,11.1,3
	c1.4,0.4,2.8,0.8,4.1,1.2c0.2,0.1,0.4,0.5,0.4,0.7c0,0.2-0.4,0.4-0.7,0.5c-0.1,0.1-0.3,0-0.6,0c-7.7-1.6-15.5-3.2-23.3-4.9
	c-2.2-0.5-4.3-1-6.5-1.5c-0.5-0.1-1-0.3-0.9-0.9C691.6,263.5,692.4,263.4,693,263.5z M689,263.3c-1.2,1.1-2.6,0.7-3.7-0.7
	c-0.8-1-1.8-2.2-1.2-3.4c0.6-1.3,2.1-1.3,3.4-1.3c2.6,0.1,5,0.8,7.4,1.9c1.3,0.6,2.4,1.5,3.9,1.6c-1.1,0.9-2.3,1-3.6,0.7
	C692.9,261.4,690.9,261.6,689,263.3z M718.9,267.2c-2.3-0.6-4.6-1.2-6.9-1.8c-0.3-0.1-0.5-0.4-1.1-0.8c2.8-0.7,5.1,0.1,7.5,0.6
	c2.5,0.5,5,1.1,7.5,1.7c2.3,0.6,4.6,1.3,6.9,2c2.4,0.7,4.9,1.2,7.1,2.5c-0.8,1.5-2.2,1.7-3.2,2.5c-1.3,1.1-2.6,1-3.9-0.1
	c-0.1-0.1-0.2-0.2-0.3-0.3c-1.7-2.2-4.9-0.9-6.6-3.3C724.3,267.8,721.3,267.9,718.9,267.2z M740.1,274.2c0.6-0.2,1.2-0.2,2-0.4
	c1.3,0.2,2.7,0.5,4.1,0.8c6.1,1.2,11.8,3.6,17.8,5.3c0.5,0.1,0.8,0.6,0.7,1.1c-0.1,0.2-0.5,0.4-0.8,0.4c-0.8,0-1.6,0-2.4-0.2
	c-6.8-1.5-13.6-3.1-20.4-4.7c-0.5-0.1-0.9-0.3-1.3-0.5c-0.2-0.2-0.6-0.6-0.5-0.7C739.4,274.8,739.7,274.3,740.1,274.2z M676.7,257.2
	c0,0.3-0.3,0.6-0.5,0.7c-1.5,0.8-3.2,0.7-4.7,0.1c-6.6-2.5-13.4-2.7-20.3-2.5c-2.3,0-4.5-0.4-6.6-1c-1.4-0.4-2.8-0.9-3.8-1.9
	c-2.3-2.5-5.3-3.5-8.5-3.9c-0.9-0.1-1.8-0.5-2.7-0.8c-0.2-0.1-0.4-0.5-0.3-0.8c0-0.3,0.3-0.6,0.6-0.7c0.6-0.2,1.2-0.3,1.3-0.3
	c2.2-0.1,3.7,0.3,5.2,0.8c12.3,4.2,25.1,6.3,37.8,8.7c0.8,0.1,1.5,0.4,2.2,0.8C676.5,256.5,676.7,256.9,676.7,257.2z M599.3,264.9
	c-5.5,1.3-10.5,3.8-15.8,5.7c-1.3,0.5-2.7,0.9-4.1,1.2c-0.6,0.2-1.3,0.1-1.8-0.5c-0.4-0.6-0.2-1.2,0.2-1.7c2.2-3,4.8-5.6,8.2-7.1
	c0.4-0.2,0.9-0.4,1.3-0.6c3.4-1.8,3.4-1.8,3.1-5.9c-0.3-3.7,0.3-4.9,3.5-6.5c1.6-0.8,3.1-1.6,5-1.6c0,0,0.1,0.1,0.1,0.1l0,0
	c-0.1,2.7-0.2,5.4-0.3,8.1c0,1.6,0.1,3.2,0.9,4.6c0.5,0.9,1.1,1.6,2.2,1.6C601.2,263.4,600.7,264.6,599.3,264.9z M611.7,254.2
	c-0.2,1.6,0,3.2,0,4.8c0,1.1,0,2.2-0.2,3.3c-0.1,0.9-0.7,1.5-1.7,1.3c-2.6-0.6-5.4,0.1-7.9-1.3c-1.9-4.3-1.5-8.7-0.8-13.1
	c0.2-1.4,1.2-3.1,0-4.1c-1.5-1.2-2.9,0.6-4.3,1.1c-1.3,0.5-2.6,1.2-3.9,1.8c-3.3,1.6-4.8,4.1-4.3,7.7c0.1,0.6,0.3,1.3,0.3,1.9
	c0,0.4-0.2,1-0.5,1.2c-0.7,0.5-1.2,0-1.6-0.5c-0.3-0.4-0.6-0.8-0.8-1.2c-1.6-2.2-3.7-2.9-6.3-2.2c-0.8,0.2-1.5,0.5-2.3,0.6
	c-0.8,0.1-1.1-0.5-1.1-1.2c0-0.5,0.1-1,0.2-1.4c0.7-2-0.1-3.4-1.6-4.6c-1-0.8-2.4-1.4-2.2-2.9c0.3-1.8,2.1-1.7,3.4-2
	c2.5-0.6,5-0.9,7.6-1.2c2.7-0.3,5.4-0.8,7.8-2.2c1.8-1,3.6-1.1,5.6-0.7c1.1,0.2,2.2,0.5,3.3,0.8c6.7,1.6,13.3,3.2,20,4.8
	c1.3,0.3,2.7,0.8,3.9,1.7c-1.5,0-3.1,0.1-4.6,0.1C614.5,247.2,612.2,249.3,611.7,254.2z M614.5,259.4c-1.5-0.7-0.9-2.5-0.9-3.9
	c0-0.8,0.1-1.6,0.2-2.4c0.6-2.7,2.1-4.1,4.9-4.3c3-0.2,6-0.2,9,0.6c2,0.5,4,1,6,1.5c-6.1,0.6-11,3.8-15.8,7.1
	C616.8,258.7,615.7,260.1,614.5,259.4z M769.8,296.1c-1.7,0.1-2.9-1.1-4.3-1.8c-13.6-6.7-28-10.8-43.2-11.9
	c-6.4-0.4-12.6-2-18.9-3.2c-6.4-1.3-12.9-2.5-19.4-3.1c-3-0.3-6.1-0.3-9.1-0.3c-1.8,0-3.4-0.4-5-1.4c-6.2-4-13-6-20.2-7.2
	c-5.7-1-11.3-2-17-2.7c-4.4-0.6-8.9-0.6-13.4-0.9c-1.1-0.1-2.2-0.2-3.3-0.3c-0.6-0.1-0.7-0.6-0.5-1.1c0.1-0.3,0.3-0.6,0.6-0.7
	c3.1-2,6.1-4.1,9.3-6c2.5-1.5,5.4-2.1,8.1-2c2.3,0,4.3,0.3,6.3,1.2c4.6,2.1,9.5,2.9,14.5,2.7c5.5-0.2,10.8,0.3,16,2.2
	c2.3,0.8,4.7,0.9,7.1,0.2c2.5-0.7,4.4-0.1,5.5,2.4c1.4,2.9,4,3.9,6.9,4.5c9.9,2,19.7,4.1,29.6,6.1c1.9,0.4,3.8,0.8,5.6,1.2
	c1.2,0.3,2.4,0.8,3.8,0.4c1-0.3,1.9,0,2.6,0.7c2,1.8,4.5,2.2,7,2.7c3.9,0.7,7.8,1.7,11.7,2.6c4.7,1,9.4,2.1,14.1,2.9
	c1.8,0.3,2.8,1.2,3.4,2.9c0.5,1.7,1.2,3.3,1.6,5C769.5,292.8,771,294.3,769.8,296.1z M788.9,313c0.8,1.4,1.6,2.8,2.3,4.2
	c0.5,1-0.3,1.4-1.2,1.5c-0.3,0-0.6,0.1-0.9,0.2c-0.6-1.8-1.9-2-3.4-1.6c-1.4,0.3-2,1.4-2.2,2.8c-0.1,1,0,1.9-0.1,2.9
	c-0.1,1-0.4,1.8-1,2.7c-1.1,1.5-2.4,1.6-3.4,0c-1.8-2.9-2.6-6.2-3.1-9.5c-0.5-3.3-0.8-6.6-1.1-10c-0.2-2.6-0.7-5.1-1.4-7.5
	c-1.6-5.4-3.4-10.6-4.9-16c-0.8-2.8-2.5-4.3-5.2-5c-3.8-1-7.6-2.2-11.2-3.6c0-0.6-0.2-1.1,0-1.2c1-1,0-2.8,1.1-3.4
	c1.5-0.9,3.1,0,4.6,0.4c2,0.5,3.9,1.5,5.7,2.5c1.7,1,3.3,2,5.2,2.3c1.5,0.3,2.2,1.2,2.5,2.5c0.1,0.5,0.3,0.9,0.4,1.4
	c1.4,6.1,4,11.7,7.2,17.1C782.2,301.5,785.6,307.2,788.9,313z M775.6,282.1c0.3,0,0.7-0.1,0.9,0.1c2.6,1.9,5,4,5.7,7.4
	c0.7,3.1,1.4,6.2,2.5,9.2c0.2,0.4,0.1,1-0.4,1.2c-0.2,0.1-0.7,0-0.8-0.2c-3.5-5-6.4-10.3-8.4-16C774.9,283.1,775,282.5,775.6,282.1z
	 M786.7,304.6C786.7,304.6,786.7,304.6,786.7,304.6c0.2,0.1,0.4,0.3,0.7,0.4C787.1,304.9,786.9,304.8,786.7,304.6z M798.6,312.2
	c-0.4,0.4-0.9,0.1-1.3-0.2c-1.5-1.1-2.4-3-4.3-3.6c-0.2-1.7-1.6-2.7-2.5-4c-2-2.9-4.1-5.8-4.9-9.2c-0.1-0.3,0-0.7,0.2-0.9
	c0.4-0.4,0.9-0.3,1.2,0c2,1.9,3.9,3.8,5.8,5.7c0,0,0,0,0,0c0.4,0.4,0.8,0.9,1.3,0.2c0.1-0.1-0.4-0.6-0.7-0.9
	c-1.3-3.4-4.1-5.5-6.6-7.8c-0.7-0.6-2.4-0.9-1.5-2.3c0.6-0.9,1.7-0.1,2.6,0.1c1.1,0.3,2.1,0.6,3.1,0.9c1.2,2,2.8,3.6,4.8,4.8
	c0.3,1.8,1.3,3,2.9,3.8c0.1,0.3,0.1,0.6,0.2,0.9c0.5,2.3,0.5,2.3-2.2,2.7c-0.1,0-0.2,0.2-0.6,0.4c0.8,1.8,2.3,3.3,2.7,5.4
	c0.2,0.9,0.4,1.9,0.5,2.8C799.2,311.4,798.9,311.9,798.6,312.2z M793.5,261.6c-0.8-3.2-0.8-4.8,0.1-7.3c0.4-1.2,0.8-2.4,1.2-3.6
	c0.9,0.4,1.6,0.9,1.7,2.1C796.6,255.4,795.4,259,793.5,261.6z M797.7,244.3c-0.5,1.7-1.1,3.3-2.3,4.7c-0.4,0.4-0.4,1.1-0.6,1.7
	c-1.1,0-1.7,0.7-2.2,1.6c-1,1.7-1.5,3.5-1.6,5.5c-0.1,1.4,0,2.9-0.1,4.3c0,1.3,0,2.6-0.2,3.8c-0.2,1.4-0.4,3.1-2.2,3.4
	c-2,0.4-4.3-1.4-4.7-3.3c-0.2-0.8-0.1-1.6,0-2.4c0.2-1.1,0.6-2.2,1-3.2c3.3-8.3,6.5-16.7,10-24.9c1.9-4.4,3.5-8.9,4.6-13.6
	c1.8-7.6,4.6-15,7.1-22.4c1.4-4.1,3.3-8,6-11.4c1.6-2,2.4-4.1,2.3-6.6c-0.1-2.6,0.2-5.1,0.9-7.6c4-0.3,5.8,0.5,3.9,5.8
	c-1.5,4.2-2.8,8.5-4.6,12.6c-6,13.7-10.4,28-14.7,42.4C799.6,237.9,798.6,241.1,797.7,244.3z M847.7,113.5c-0.3,1.1-0.4,2.2-0.9,3.2
	c-3.4,7.9-6.2,16.1-8.9,24.3c-2.2,6.7-4.3,13.4-6.7,20c-1.5,4.2-3.1,8.4-5.1,12.4c-2.3,4.9-4.2,10-5.4,15.3
	c-1.8,8.1-4.4,16-7.7,23.7c-3.6,8.4-6.7,16.9-9.3,25.7c-0.4,1.4-0.8,2.8-1.4,4.1c-0.7,1.8-2,3-2.4,2.4c-0.8-1.1-0.1-2.1,0.2-3.2
	c4.5-15,8.6-30.1,14.9-44.5c2.5-5.7,4.5-11.6,6.5-17.5c0.9-2.7,1.6-5.3-1.4-7.2c-0.7-0.5-0.2-1.1,0.3-1.6c0.4-0.5,0.7-1,1.1-1.5
	c1.1-0.4,1.7-1.4,2.2-2.4c3.6-7.3,7.3-14.5,10.7-21.8c3-6.4,5.1-13,6.2-20c0.4-2.5,1.3-4.9,2.6-7.1c1-1.8,2.2-3.5,4.1-4.5
	C847.6,113.4,847.7,113.5,847.7,113.5L847.7,113.5z M847.7,110c-0.3,0.5-0.8,1-1.2,1.4c-4.1,3.4-6.4,7.9-7.3,13.1
	c-1.6,9.2-5,17.8-9.1,26.1c-2.3,4.7-4.7,9.4-7.1,14.1c-0.7,1.4-1.7,2.7-1.3,4.4c-0.5-0.1-0.9-0.2-1.4-0.3c-0.9-0.2-1.4-0.8-1.3-1.7
	c0.2-1.4,0.5-2.8,1.1-4.1c2-5.2,4.1-10.4,6.3-15.5c3-7,5.9-14.1,8-21.5c1.3-4.4,2.9-8.8,4.4-13.1c0.6-1.7,1.3-3.3,2.6-4.5
	c1.6-1.6,5-1.2,6.3,0.8C847.8,109.3,847.9,109.7,847.7,110z M900.5,102.6c-1,0.3-1.1-0.9-1.6-1.4c-0.9-1-2.2-1.4-3.4-1.7
	c-4.2-1-8.4-2.1-12.6-2.9c-4.6-0.9-9.2-0.4-13.7,1c-1.1,0.3-1.9,0.1-2.1-1.2c0,0,0,0,0,0c3.2-3.3,5.6-7.2,9.1-10.2
	c0.1-0.1,0.2-0.3,0.3-0.4c0.2-0.3,0.1-0.6-0.2-0.8c-0.1-0.1-0.3-0.1-0.4-0.1c-0.7,0.4-1.4,0.7-2,1.2c-3,2.8-5.7,5.9-7.5,9.6
	c-1.1,0.7-2,1.6-2.5,2.8c-0.3,0.6,0.2,1.3,0.8,1.4c1.8,0.3,3.5,0,5.2-0.6c5.3-1.8,10.7-1.7,16.1-0.4c3,0.7,5.9,1.4,8.8,2.2
	c0.7,0.2,1.4,0.7,2.1,1.1c0.6,0.4,0.5,1.6-0.1,2.1c-0.9,0.7-2,1.1-3.1,1.2c-12.4,1.2-24.7,3.6-37.2,3.4c-2.9,0-5.7-0.2-8.2-2.1
	c-0.5-0.4-1.1-0.6-1.7-0.9c-3.2-1.3-5.6-0.6-7.5,2.3c-0.9,1.5-1.7,3.1-2.3,4.7c-1.6,4.7-3.3,9.4-4.6,14.1c-2,6.9-4.7,13.6-7.6,20.1
	c-3.2,7.2-6.4,14.3-8.1,22c-0.3,1.5-0.9,3.1-0.5,4.7c-1.3,0.1-1.8,1-2.2,2.1c-0.7,1.8-0.6,3.8-0.6,5.7c0,2-0.6,3.7-1.8,5.3
	c-3.2,3.9-5.1,8.5-6.7,13.2c-2.5,7.6-5.3,15.1-7.1,22.8c-1,4-2.5,7.9-4.1,11.7c-3.6,8.5-7,17.2-10.4,25.8c-0.4,1-0.6,2.1-0.7,3.2
	c-0.3,3.6,0.6,5.5,3.9,6.8c2.4,1,3.5,2.5,3.8,4.9c0.5,3.4,2.5,5.5,5.9,6c2.9,0.4,4.4,2.3,5.5,4.7c0.4,0.9,0.7,1.8,0.9,2.7
	c0.6,3.4,1.7,6.5,4.5,8.7c0.9,0.7,1.5,1.8,0.9,3c-0.4,0.8-2.1,1.2-3.5,0.7c-1-0.4-2-1-2.9-1.6c-0.8-0.5-1.5-1.2-2.5-1.1
	c0.2-2.1-0.7-3.5-2.9-3.8c-0.7-3.4-1.5-4.2-4.8-4.8c-0.1-1.6-1.3-2.3-2.5-2.5c-4.2-0.4-6.8-3-9.5-5.9c-1.6-1.8-3.6-3.2-5.3-4.8
	c-1.2-1.1-2.2-2.4-1.9-4.2c1.2-0.4,1.8-1.3,2.3-2.2c5.9-10.8,11.6-21.8,13.3-34.2c0.9-6.6,3-12.5,6.2-18.4
	c4.9-9.2,8.1-19.1,11.2-29.1c2.6-8.6,5.6-17,9.2-25.2c5.4-12.1,9.7-24.7,14.3-37.2c3.2-8.7,6.3-17.5,9.4-26.2
	c0.3-0.8,0.5-1.5,0.8-2.2c0.8-1.9,2.2-3.3,4.2-3.5c5.4-0.6,8.7-3.8,11-8.3c3.2-6.1,1.7-5.2,9.6-7.4c3.8-1.1,7.7-2.1,11.6-3.2
	c0.6-0.2,1.2-0.4,1.9-0.5c1.2-0.2,2.7-0.7,3.6,0.4c1.1,1.2,0.1,2.4-0.4,3.5c-0.4,0.9-1.1,1.6-1,2.6c0,0.1,0.2,0.3,0.3,0.4
	c0.1,0.1,0.3,0.1,0.5,0c0.3-0.1,0.6-0.3,0.8-0.5c0.7-1.1,1.3-2.2,1.9-3.3c0.6-1.1,0.4-2.8,1.5-3.4c1.4-0.8,2.1,1,3.2,1.5
	c0.9,0.5,1.8,0.4,2.8,0.5c3.7,0.6,5.5,3.3,4.5,6.9c-0.3,1.2-1,2.4-1.6,3.5c-0.5,1-1.3,1.8-1.8,2.8c-1.5,2.7-0.6,4.6,2.3,5.5
	c1.8,0.6,3.5,0,5.1-0.7c0.8-0.3,1.6-0.1,1.9,0.8c0.4,1.4,0.8,2.7,1.1,4.2C901.5,101,901.7,102.2,900.5,102.6z"/>
</svg>
