<?xml version="1.0" encoding="utf-8"?>
<!-- Generator: Adobe Illustrator 22.1.0, SVG Export Plug-In . SVG Version: 6.00 Build 0)  -->
<svg version="1.1" id="Layer_1" xmlns="http://www.w3.org/2000/svg" xmlns:xlink="http://www.w3.org/1999/xlink" x="0px" y="0px"
	 viewBox="0 0 671.9 155" style="enable-background:new 0 0 671.9 155;" xml:space="preserve">
<style type="text/css">
	.st0{fill:#FFFFFF;}
</style>
<title>logo FAM</title>
<g>
	<path class="st0" d="M59.8,33.6H16.3c-1.6,0.8-2.4,1.6-2.4,2.4v105.6c0.8,1.6,1.6,2.4,2.4,2.4h2.5c1.1,0,1.6-0.5,1.6-1.6v-35.4
		c0-3.2,2.1-4.9,6.4-4.9h1.6h20.9c1.1,0,1.6-0.5,1.6-1.6v-1.6c0-0.9-0.5-1.4-1.6-1.6H25.2c-3.2,0-4.8-1.6-4.8-4.8V44.1
		c0-3.2,2.1-4.9,6.4-4.9h33c1.6-0.8,2.5-1.6,2.5-2.4V36C61.4,34.4,60.6,33.6,59.8,33.6z"/>
	<path class="st0" d="M75.4,33.2h-1.6c-1.6,0.8-2.4,1.6-2.4,2.4v106.7c0,1.1,0.5,1.6,1.6,1.6h3.2c1.1,0,1.6-0.5,1.6-1.6V35.6
		C77.1,34,76.3,33.2,75.4,33.2z"/>
	<path class="st0" d="M124.7,33.2h-9.4C97,39,87.8,49.8,87.8,65.4V67c0,2.5,0.3,5.1,0.8,7.9c6.1,17.2,17.1,25.9,33,25.9
		c2.5,0,5.1-0.3,7.9-0.8c17.2-6,25.9-16.2,25.9-30.6v-9.4C148.9,42.1,138.7,33.2,124.7,33.2z M147.5,74.9c-5.3,13-14,19.6-25.9,19.6
		c-0.7-0.5-2.6-0.8-5.5-0.8C101.5,88.3,94.1,79.4,94.1,67v-1.6c3.9-17.2,13.1-25.9,27.5-25.9c18.3,2.8,27.4,11.7,27.4,26.6
		C149,69.9,148.5,72.8,147.5,74.9z"/>
	<path class="st0" d="M138.9,136.9h-35.3c-2.8,0-4.6,1.1-5.5,3.2v0.8c0,1,1.6,2.1,4.7,3.2l4.7-0.8h36.1c1,0,1.5-0.5,1.5-1.6v-2.3
		C144.8,137.6,142.7,136.9,138.9,136.9z"/>
	<path class="st0" d="M237.3,33.9h-7.2l-1.5,0.8c-1.1,1.6-10.1,37.2-26.9,106.9c0.8,1.6,1.6,2.4,2.4,2.4h2.4
		c1.8,0,5.8-13.2,11.9-39.6h1.5c7.4,16.4,11.6,24.6,12.7,24.6h2.4c1.7-0.7,5.9-8.9,12.6-24.6h0.8l1.5,0.8
		c5.4,25.9,9.1,38.8,11.1,38.8h2.4l2.4-1.6c0-2.8-4.2-20.2-12.7-52.2C244.8,52.7,239.5,33.9,237.3,33.9z M234.1,114.7
		c-1.4,0-5.4-7.9-11.9-23.8c0-3.6,3.7-19.1,11.1-46.7c1.4,1,5.7,16.3,12.7,45.9C242.3,99.1,238.3,107.3,234.1,114.7z"/>
	<path class="st0" d="M376.9,33.2h-0.8l-4,0.8c-15.7,30.3-24,45.9-24.9,46.6h-1.5c-14.9-30.8-23.5-46.6-25.7-47.3h-4.8
		c-2.2,0-3.2,3.2-3.2,9.6v92.2c0,5.9,0.8,8.9,2.4,8.9h2.5c1.6,0,2.4-3,2.4-8.9V43.6h1.6c15.3,31.9,23.9,47.9,25.6,48.2h2.4
		c15.7-31.6,24.3-47.7,25.7-48.2l0.8,5.6v93.1c0,1.1,0.5,1.6,1.6,1.6h3.2c1.1,0,1.6-0.5,1.6-1.6V35.6
		C381.8,34.4,380.2,33.6,376.9,33.2z"/>
	<path class="st0" d="M439.1,33.2h-42.6c-1.6,0.8-2.4,1.6-2.4,2.4v105.9c0.4,1.6,2.5,2.4,6.4,2.4H435c4,0,6.1-0.8,6.5-2.4v-1.6
		c-0.8-1.6-1.6-2.4-2.4-2.4h-34.6c-3.2,0-4.8-1.6-4.8-4.9v-24.9c0-4.3,4.3-6.4,12.9-6.4h16.8c1.1,0,1.6-0.5,1.6-1.6V99
		c-0.8-1.6-1.6-2.4-2.4-2.4h-24.1c-3.2,0-4.8-1.6-4.8-4.8V43.6c0-3.2,2.1-4.8,6.4-4.8h33c1.6-0.8,2.4-1.6,2.4-2.4v-0.8
		C440.7,34,439.9,33.2,439.1,33.2z"/>
	<path class="st0" d="M484.2,33.9h-7.2l-1.5,0.8c-1.1,1.6-10.1,37.2-26.9,106.9c0.8,1.6,1.6,2.4,2.4,2.4h2.4
		c1.8,0,5.8-13.2,11.9-39.6h1.5c7.4,16.4,11.6,24.6,12.7,24.6h2.4c1.7-0.7,5.9-8.9,12.6-24.6h0.8l1.5,0.8
		c5.4,25.9,9.1,38.8,11.1,38.8h2.4l2.4-1.6c0-2.8-4.2-20.2-12.7-52.2C491.8,52.7,486.5,33.9,484.2,33.9z M481.1,114.7
		c-1.4,0-5.4-7.9-11.9-23.8c0-3.6,3.7-19.1,11.1-46.7c1.4,1,5.7,16.3,12.7,45.9C489.2,99.1,485.3,107.3,481.1,114.7z"/>
	<path class="st0" d="M536.6,33.6h-15.2c-1.1,0-1.9,2.9-2.4,8.8c0.5,9.9,0.8,18.1,0.8,24.8v58.4c0,2.8-0.3,7.4-0.8,13.6
		c0.7,3.2,2.6,4.8,5.6,4.8c13.5,0,23.1-1.3,28.8-4c22.9-11.7,34.3-27.4,34.3-47.2v-7.9c0-5.4-1.3-11.6-4-18.4
		C571.7,44.5,556,33.6,536.6,33.6z M579.8,101.6c-8.8,24-24.8,36-48,36h-1.6c-3.2,0-4.8-1.6-4.8-4.8V44c0-3.2,1.6-4.8,4.8-4.8
		c1.9,0,6.4,0.5,13.6,1.5c25.6,9.3,38.3,25.3,38.3,48C581.7,92.9,580.9,97.2,579.8,101.6z"/>
	<path class="st0" d="M645.3,90.1c-8.3-37.5-13.5-56.2-15.8-56.2h-7.2l-1.5,0.8c-1.1,1.6-10.1,37.2-26.9,106.9
		c0.8,1.6,1.6,2.4,2.4,2.4h2.4c1.8,0,5.8-13.2,11.9-39.6h1.5c7.4,16.4,11.6,24.6,12.7,24.6h2.4c1.7-0.7,5.9-8.9,12.6-24.6h0.8
		l1.5,0.8c5.4,25.9,9.1,38.8,11.1,38.8h2.4l2.4-1.6C658,139.5,653.8,122.1,645.3,90.1z M626.4,114.7c-1.4,0-5.4-7.9-11.9-23.8
		c0-3.6,3.7-19.1,11.1-46.7c1.4,1,5.7,16.3,12.7,45.9C634.5,99.1,630.6,107.3,626.4,114.7z"/>
	<path class="st0" d="M216.2,37.2c0.8,0,1.6-0.8,2.5-2.5l-9.2-23.7h-2.5c-1.1,0.2-1.6,0.7-1.6,1.6c4,14.4,7,22.6,9.2,24.6H216.2z"/>
</g>
</svg>
