<svg xmlns="http://www.w3.org/2000/svg" viewBox="0 0 44.57 44.69"><defs><style>.cls-1{fill:#7f4f0f;}</style></defs><title>Asset 2</title><g id="Layer_2" data-name="Layer 2"><g id="Layer_1-2" data-name="Layer 1"><path class="cls-1" d="M22.28,0A22.35,22.35,0,1,0,44.57,22.34,22.31,22.31,0,0,0,22.28,0M10.93,10.87H33.64a3.49,3.49,0,0,1,1.41.3,1.06,1.06,0,0,0-.29.22L24.61,22.94a3.08,3.08,0,0,1-4.65,0L9.63,11.19l-.05,0a3.53,3.53,0,0,1,1.35-.27M37.15,30.3a3.52,3.52,0,0,1-3.51,3.52H10.93A3.52,3.52,0,0,1,7.42,30.3V14.39a3.46,3.46,0,0,1,.5-1.81l.06.07L18.31,24.4a5.27,5.27,0,0,0,8,0L36.41,12.86a1.08,1.08,0,0,0,.2-.34,3.5,3.5,0,0,1,.54,1.87Z"/></g></g></svg>