<svg xmlns="http://www.w3.org/2000/svg" viewBox="0 0 44.57 44.69"><defs><style>.cls-1{fill:#7f4f0f;}</style></defs><title>Asset 5</title><g id="Layer_2" data-name="Layer 2"><g id="Layer_1-2" data-name="Layer 1"><polygon class="cls-1" points="19.31 26.68 26.89 22.36 19.31 18.05 19.31 26.68"/><path class="cls-1" d="M22.28,0A22.35,22.35,0,1,0,44.57,22.34,22.31,22.31,0,0,0,22.28,0Zm13.9,29.39a3.59,3.59,0,0,1-2.56,2.54c-2.27.61-11.34.61-11.34.61s-9.07,0-11.33-.61a3.58,3.58,0,0,1-2.56-2.54,38,38,0,0,1-.61-7,37.89,37.89,0,0,1,.61-7A3.61,3.61,0,0,1,11,12.76c2.26-.61,11.33-.61,11.33-.61s9.07,0,11.34.61a3.63,3.63,0,0,1,2.56,2.58,37.89,37.89,0,0,1,.61,7A38,38,0,0,1,36.18,29.39Z"/></g></g></svg>